<?xml version="1.0" encoding="utf-8"?>
<!-- Generator: Adobe Illustrator 24.1.1, SVG Export Plug-In . SVG Version: 6.00 Build 0)  -->
<svg version="1.1" xmlns="http://www.w3.org/2000/svg" xmlns:xlink="http://www.w3.org/1999/xlink" x="0px" y="0px"
	 viewBox="0 0 737.01 737.01" style="enable-background:new 0 0 737.01 737.01;" xml:space="preserve">
<style type="text/css">
	.st0{fill:none;}
	.st1{fill:#6B6B6B;}
	.st2{fill:#A5A5A5;}
	.st3{fill:#FFFFFF;}
	.st4{fill:#727272;}
	.st5{fill:#424242;}
	.st6{fill:#606060;}
	.st7{fill:#595959;}
	.st8{fill:#AFAFAF;}
	.st9{fill:#B0B0B0;}
	.st10{fill:#BFBFBF;}
	.st11{fill:#676767;}
	.st12{fill:#8A8A8A;}
	.st13{fill:#C5C5C5;}
	.st14{fill:#757575;}
	.st15{fill:#777777;}
	.st16{fill:#575757;}
	.st17{fill:#898989;}
</style>
<g id="Layer_1">
	<g id="Layer_2_3_">
	</g>
</g>
<g id="Layer_2">
	<g>
		<path class="st0" d="M73.1,10.4L83.4,0H58.3l-0.8,0.8L39.4,18.9c-0.2,0.2-0.5,0.3-0.8,0.3s-0.6-0.1-0.8-0.3
			c-0.4-0.5-0.4-1.2,0-1.6l6.9-6.9L55.1,0H29.9l-0.8,0.8L0.8,29.1L0,29.9v25.2l3.3-3.3l16.9-16.9c0.5-0.4,1.2-0.4,1.6,0
			s0.4,1.2,0,1.6L4.9,53.4l-4.1,4.1L0,58.3v25.2l3.3-3.3L73.1,10.4z"/>
		<path class="st0" d="M691.51,46.6c-0.3,0-0.6-0.1-0.8-0.3c-0.4-0.4-0.4-1.2,0-1.6l34.3-34.3l2.4-2.4l8-8h-166.9l-0.8,0.8
			l-72.5,72.5c-0.2,0.2-0.5,0.3-0.8,0.3s-0.6-0.1-0.8-0.3c-0.4-0.5-0.4-1.2,0-1.6L565.31,0h-25.1l-0.8,0.8l-19.1,19.1
			c-0.2,0.2-0.5,0.3-0.8,0.3s-0.6-0.1-0.8-0.3c-0.5-0.4-0.5-1.1,0-1.6L537.01,0h-25.2l-0.8,0.8l-27.6,27.7c-0.2,0.2-0.5,0.3-0.8,0.3
			c-0.3,0-0.6-0.1-0.8-0.3c-0.4-0.5-0.4-1.2-0.1-1.6L508.61,0h-25.1l-0.8,0.8L448.5,35c-0.2,0.2-0.5,0.3-0.8,0.3s-0.6-0.1-0.8-0.3
			c-0.4-0.4-0.4-1.2,0-1.6L480.31,0h-81.9l-0.8,0.8l-59.1,59.1c-0.2,0.2-0.5,0.3-0.8,0.3s-0.6-0.1-0.8-0.3c-0.4-0.4-0.4-1.1,0-1.6
			L395.2,0h-25.1l-0.8,0.8L358.2,12l-7.9,7.9c-0.2,0.2-0.5,0.3-0.8,0.3s-0.6-0.1-0.8-0.3c-0.4-0.5-0.4-1.2,0-1.6l7.8-7.9L366.9,0
			h-25.1L341,0.8L220.4,121.4c-0.2,0.2-0.5,0.3-0.8,0.3s-0.6-0.1-0.8-0.3c-0.4-0.4-0.4-1.2,0-1.6L328.2,10.4L338.6,0H228.4l-0.8,0.8
			L216.4,12l-46.1,46.1c-0.2,0.2-0.5,0.3-0.8,0.3c-0.3,0-0.6-0.1-0.8-0.3c-0.4-0.4-0.4-1.2,0-1.6l46.1-46.1L225.2,0H200l-0.7,0.8
			l-67.6,67.6c-0.2,0.2-0.5,0.3-0.8,0.3c-0.3,0-0.6-0.1-0.8-0.3c-0.4-0.4-0.4-1.2,0-1.6l56.4-56.4L196.8,0h-53.5l-0.8,0.8L0.8,142.5
			L0,143.3v25.2l3.3-3.3l45.6-45.6c0.4-0.4,1.2-0.4,1.6,0c0.4,0.4,0.4,1.2,0,1.6L4.9,166.8l-4.1,4.1L0,171.7v25.1l3.3-3.3l67.6-67.6
			c0.4-0.4,1.2-0.4,1.6,0c0.4,0.4,0.4,1.2,0,1.6L4.9,195.1l-4.1,4.1L0,200v25.2l3.3-3.3l39.8-39.8c0.4-0.4,1.2-0.5,1.6,0
			c0.4,0.5,0.4,1.2,0,1.6L0.8,227.6L0,228.4v25.1l102-102c0.4-0.4,1.2-0.5,1.6,0c0.4,0.5,0.4,1.2,0,1.6L4.9,251.8L0,256.7v25.2
			l3.3-3.3l44-44c0.4-0.4,1.2-0.5,1.6,0s0.4,1.2,0,1.6l-44,44l-4.1,4.1L0,285.1v53.5l3.3-3.3l84.2-84.2c0.4-0.4,1.2-0.5,1.6,0
			s0.4,1.2,0,1.6L0.8,341L0,341.8v25.1l3.3-3.3l18.3-18.3c0.5-0.4,1.2-0.5,1.6,0c0.4,0.5,0.4,1.2,0,1.6L4.9,365.2l-4.1,4.1L0,370.1
			v53.5l3-3l0.3-0.3L54.6,369c0.4-0.4,1.2-0.5,1.6,0c0.4,0.5,0.4,1.2,0,1.6l-55.4,55.4l-0.8,0.8v25.2l47.5-47.6
			c0.4-0.4,1.2-0.5,1.6,0s0.4,1.2,0,1.6l-48.3,48.3l-0.8,0.9v25.1l51.8-51.9c0.4-0.4,1.2-0.5,1.6,0c0.4,0.5,0.4,1.2,0,1.6
			l-48.5,48.5l-0.3,0.4l-3.8,3.8l-0.8,0.8v53.5l5.8-5.8c0.4-0.4,1.2-0.4,1.6,0s0.4,1.2,0,1.6l-6.6,6.6l-0.8,0.8v25.1l107.3-107.3
			c0.4-0.4,1.2-0.5,1.6,0c0.4,0.5,0.4,1.2,0,1.6L0.8,567.71l-0.8,0.8v53.5l37-37c0.4-0.4,1.2-0.4,1.6,0s0.4,1.2,0,1.6l-37.8,37.8
			l-0.8,0.8v25.2l76.4-76.4c0.4-0.4,1.2-0.4,1.6,0c0.4,0.4,0.4,1.2,0,1.6l-77.2,77.2l-0.8,0.8v25.1l43.9-43.9c0.4-0.4,1.2-0.4,1.6,0
			s0.4,1.2,0,1.6l-44.7,44.7l-0.8,0.8v53.5l3.6-3.6l0.8-0.8l28.3-28.3c0.4-0.4,1.2-0.4,1.6,0c0.4,0.5,0.4,1.2,0,1.6l-32.7,32.7h25.2
			l0.7-0.7l80.5-80.5c0.4-0.4,1.2-0.4,1.6,0c0.4,0.4,0.4,1.1,0,1.6L30,737.01h25.1l0.8-0.8l47.2-47.2c0.08-0.08,0.18-0.13,0.28-0.17
			l9.58-9.58c0.5-0.4,1.2-0.4,1.6,0c0.4,0.4,0.4,1.1,0,1.6l-41.3,41.3c-0.08,0.08-0.18,0.13-0.28,0.17L58.3,737.01h25.2l0.7-0.7
			l29.7-29.7c0.4-0.4,1.2-0.4,1.6,0c0.4,0.4,0.4,1.1,0,1.6l-28.8,28.8h25.1l0.8-0.8l38.1-38.1c0.5-0.4,1.2-0.4,1.6,0
			c0.5,0.4,0.5,1.1,0,1.6l-37.3,37.3h25.1l0.8-0.8l50.6-50.6c0.5-0.4,1.2-0.4,1.6,0c0.4,0.5,0.4,1.2,0,1.6l-49.8,49.8h53.6l0.7-0.7
			l62.3-62.3c0.5-0.4,1.2-0.4,1.6,0c0.4,0.4,0.4,1.1-0.1,1.6l-61.3,61.4h25.1l0.8-0.8l86.6-86.6c0.5-0.4,1.2-0.4,1.6,0
			s0.4,1.2,0,1.6l-85.8,85.8h25.1l0.8-0.8l3.1-3.1l2.1-2.1l3.8-3.8c0.5-0.4,1.2-0.4,1.6,0c0.5,0.5,0.5,1.2,0,1.6l-8.2,8.2h53.5
			l0.8-0.8l91-91c0.5-0.4,1.2-0.4,1.6,0c0.4,0.5,0.4,1.2,0,1.6l-90.2,90.2h25.1l0.8-0.8l29.4-29.4c0.5-0.4,1.2-0.4,1.6,0
			c0.5,0.5,0.5,1.2,0,1.6l-28.6,28.6h25.2l0.8-0.8l215.7-215.7c0.4-0.4,1.2-0.4,1.6,0c0.5,0.4,0.5,1.1,0,1.6l-214.9,214.9h25.2
			l0.7-0.7l14.3-14.3c0.5-0.4,1.2-0.4,1.6,0c0.4,0.4,0.4,1.1,0,1.6l-13.4,13.4h53.5l0.7-0.8l9.1-9.1c0.5-0.4,1.2-0.4,1.6,0
			c0.5,0.5,0.5,1.2,0.1,1.6l-8.3,8.3h25.1l0.8-0.8l84.3-84.3c0.4-0.4,1.2-0.4,1.6,0c0.5,0.4,0.5,1.1,0,1.6l-83.5,83.5h25.2l0.8-0.8
			l40-40c0.4-0.4,1.2-0.4,1.6,0c0.4,0.4,0.4,1.1,0,1.6l-39.2,39.2h25.1l0.8-0.8l27.8-27.8c0.4-0.4,1.2-0.4,1.6,0
			c0.4,0.5,0.4,1.2,0,1.6l-27,27h25.1l0.8-0.8l47.8-47.8c0.4-0.4,1.2-0.4,1.6,0c0.5,0.5,0.5,1.2,0,1.6l-47,47h53.5l0.8-0.8
			l113.4-113.4l0.8-0.8v-53.4l-97,97c-0.2,0.2-0.5,0.3-0.8,0.3s-0.6-0.1-0.8-0.3c-0.4-0.4-0.4-1.2,0-1.6l97.8-97.9l0.8-0.7v-25.2
			l-11.9,11.9c-0.2,0.2-0.5,0.3-0.8,0.3s-0.6-0.1-0.8-0.3c-0.4-0.4-0.4-1.2,0-1.6l12.7-12.7l0.8-0.8v-53.5l-123.8,123.8
			c-0.2,0.2-0.5,0.3-0.8,0.3s-0.6-0.1-0.8-0.3c-0.4-0.4-0.4-1.2,0-1.6l124.6-124.6l0.8-0.8v-25.1l-36.9,36.9
			c-0.2,0.2-0.5,0.3-0.8,0.3s-0.6-0.1-0.8-0.3c-0.4-0.5-0.4-1.2,0-1.6l37.7-37.7l0.8-0.8v-25.2l-41.2,41.2c-0.2,0.2-0.5,0.3-0.8,0.3
			s-0.6-0.1-0.8-0.3c-0.4-0.5-0.4-1.2,0-1.6l42-42l0.8-0.8v-53.5l-42.8,42.8c-0.2,0.2-0.5,0.3-0.8,0.3s-0.6-0.1-0.8-0.3
			c-0.4-0.5-0.4-1.2,0-1.6l43.6-43.6l0.8-0.8v-25.1l-218.6,218.5c-0.2,0.2-0.5,0.3-0.8,0.3s-0.6-0.1-0.8-0.3c-0.4-0.4-0.4-1.2,0-1.6
			l219.4-219.3l0.8-0.8v-81.9l-146.7,146.7c-0.2,0.2-0.5,0.3-0.8,0.3s-0.6-0.1-0.8-0.3c-0.4-0.5-0.4-1.2,0-1.6l147.5-147.5l0.8-0.8
			v-25.1l-89,89c-0.2,0.2-0.5,0.3-0.8,0.3s-0.6-0.1-0.8-0.3c-0.4-0.5-0.4-1.2,0-1.6l89.8-89.8l0.8-0.8V200l-38.4,38.4
			c-0.2,0.2-0.5,0.3-0.8,0.3s-0.6-0.1-0.8-0.3c-0.4-0.5-0.4-1.2,0-1.6l39.2-39.2l0.8-0.8v-25.1l-254.8,254.8
			c-0.2,0.2-0.5,0.3-0.8,0.3s-0.6-0.1-0.8-0.3c-0.4-0.5-0.4-1.2,0-1.6l255.6-255.6l0.8-0.8V86.6l-45.9,45.9
			c-0.2,0.2-0.5,0.3-0.8,0.3s-0.6-0.1-0.8-0.3c-0.4-0.5-0.4-1.2,0-1.6l46.7-46.7l0.8-0.8V58.3L563.66,231.65
			c-0.05,0.11-0.11,0.21-0.19,0.3l-18.4,18.4c-0.08,0.08-0.18,0.13-0.28,0.17l-29.18,29.18c-0.2,0.2-0.5,0.3-0.8,0.3
			s-0.6-0.1-0.8-0.3c-0.4-0.5-0.4-1.2,0-1.6l222.2-222.2l0.8-0.8V29.9l-37.9,38c-0.2,0.2-0.5,0.3-0.8,0.3s-0.6-0.1-0.8-0.3
			c-0.4-0.4-0.4-1.2,0-1.6l38.7-38.7l0.8-0.9V1.6l-44.7,44.7C692.11,46.5,691.81,46.6,691.51,46.6z M312.6,709.51l-20.3,20.3
			c-0.2,0.2-0.5,0.3-0.8,0.3s-0.6-0.1-0.8-0.3c-0.4-0.4-0.4-1.2,0-1.6l20.3-20.3c0.4-0.4,1.2-0.4,1.6,0
			C313,708.31,313,709.11,312.6,709.51z M656.11,674.61l2.4-2.4c0.4-0.4,1.2-0.4,1.6,0c0.4,0.4,0.4,1.2,0,1.6l-2.4,2.4
			c-0.2,0.2-0.5,0.3-0.8,0.3c-0.3,0-0.6-0.1-0.8-0.3C655.71,675.81,655.71,675.01,656.11,674.61z M645.25,685.46
			c0.4-0.4,1.1-0.4,1.6,0c0.4,0.4,0.4,1.2,0,1.6l-20.1,20.1c-0.2,0.2-0.5,0.3-0.8,0.3s-0.6-0.1-0.8-0.3c-0.4-0.4-0.4-1.2,0-1.6
			L645.25,685.46z M712.01,565.31l-17.7,17.7c-0.2,0.2-0.5,0.3-0.8,0.3s-0.6-0.2-0.8-0.3c-0.4-0.4-0.4-1.2,0-1.6l17.7-17.7
			c0.4-0.4,1.2-0.4,1.6,0C712.41,564.11,712.41,564.91,712.01,565.31z M657.81,587.81l78.4-78.4l0.8-0.8v3.2l-77.6,77.6
			c-0.2,0.2-0.5,0.3-0.8,0.3s-0.6-0.1-0.8-0.3C657.41,589.01,657.41,588.21,657.81,587.81z M640.51,605.21l9.1-9.1
			c0.4-0.4,1.2-0.4,1.6,0c0.4,0.4,0.4,1.2,0,1.6l-9.1,9.1c-0.2,0.2-0.5,0.3-0.8,0.3s-0.6-0.1-0.8-0.3
			C640.11,606.41,640.11,605.61,640.51,605.21z M621.41,652.61l52-52c0.4-0.4,1.2-0.4,1.6,0c0.4,0.4,0.4,1.2,0,1.6l-52,52
			c-0.2,0.2-0.5,0.3-0.8,0.3s-0.6-0.1-0.8-0.3C621.01,653.81,621.01,653.01,621.41,652.61z M447.27,716.56l-16.2,16.2
			c-0.2,0.2-0.5,0.3-0.8,0.3s-0.6-0.1-0.8-0.3c-0.4-0.4-0.4-1.2,0-1.6l16.2-16.2c0.5-0.4,1.2-0.4,1.6,0
			C447.67,715.36,447.67,716.16,447.27,716.56z M445.5,690.01c-0.2,0.2-0.5,0.3-0.8,0.3s-0.6-0.1-0.8-0.3c-0.4-0.4-0.4-1.2,0-1.6
			l104.7-104.7c0.4-0.5,1.2-0.4,1.6,0s0.4,1.2,0,1.6L445.5,690.01z M569.91,679.01l-10.5,10.5c-0.2,0.2-0.5,0.3-0.8,0.3
			s-0.6-0.1-0.8-0.3c-0.4-0.4-0.4-1.2,0-1.6l10.5-10.5c0.4-0.5,1.2-0.5,1.6,0C570.31,677.81,570.31,678.61,569.91,679.01z
			 M581.27,582.65l-73.6,73.6c-0.2,0.2-0.5,0.3-0.8,0.3s-0.6-0.1-0.8-0.3c-0.4-0.4-0.4-1.2,0-1.6l73.6-73.6c0.4-0.4,1.1-0.4,1.6,0
			C581.67,581.45,581.67,582.25,581.27,582.65z M603.81,673.41l-20.1,20.1c-0.2,0.2-0.5,0.3-0.8,0.3s-0.6-0.1-0.8-0.3
			c-0.4-0.4-0.4-1.2,0-1.6l20.1-20.1c0.4-0.4,1.1-0.4,1.6,0C604.21,672.21,604.21,673.01,603.81,673.41z M620.27,543.55l-21.8,21.8
			c-0.2,0.2-0.5,0.3-0.8,0.3s-0.6-0.1-0.8-0.3c-0.4-0.4-0.4-1.2,0-1.6l21.8-21.8c0.5-0.4,1.2-0.4,1.6,0
			C620.67,542.45,620.67,543.15,620.27,543.55z M684.81,479.01l-7.9,7.9c-0.2,0.2-0.5,0.3-0.8,0.3s-0.6-0.1-0.8-0.3
			c-0.4-0.5-0.4-1.2,0-1.6l7.9-7.9c0.4-0.4,1.1-0.4,1.6,0C685.21,477.91,685.21,478.61,684.81,479.01z M699.91,432.41
			c0.4-0.4,1.2-0.5,1.6,0s0.4,1.2,0,1.6l-93,93c-0.2,0.2-0.5,0.3-0.8,0.3s-0.6-0.1-0.8-0.3c-0.4-0.5-0.4-1.2,0-1.6L699.91,432.41z
			 M640.91,463.01l35.9-35.9c0.4-0.4,1.2-0.5,1.6,0s0.4,1.2,0,1.6l-35.9,35.9c-0.2,0.2-0.5,0.3-0.8,0.3s-0.6-0.1-0.8-0.3
			C640.51,464.11,640.51,463.41,640.91,463.01z M594.01,510.01l36.4-36.4c0.4-0.4,1.2-0.5,1.6,0s0.4,1.2,0,1.6l-36.4,36.4
			c-0.2,0.2-0.5,0.3-0.8,0.3s-0.6-0.1-0.8-0.3C593.61,511.11,593.61,510.41,594.01,510.01z M698.81,178.3l37.4-37.4l0.8-0.8v3.2
			l-36.6,36.6c-0.2,0.2-0.5,0.3-0.8,0.3c-0.3,0-0.6-0.1-0.8-0.3C698.41,179.4,698.41,178.7,698.81,178.3z M696.31,12.4
			c0.5,0.4,0.5,1.1,0,1.6l0,0h0l-122.1,122.1c-0.2,0.2-0.5,0.3-0.8,0.3s-0.6-0.1-0.8-0.3c-0.4-0.5-0.4-1.2,0-1.6l35.3-35.3
			c0,0,0,0,0,0l86.8-86.8C695.11,12,695.91,12,696.31,12.4z M458.4,362.1c0.5-0.4,1.2-0.5,1.6,0c0.4,0.5,0.4,1.2,0,1.6l-236.7,236.7
			c-0.2,0.2-0.5,0.3-0.8,0.3s-0.6-0.1-0.8-0.3c-0.5-0.5-0.5-1.2,0-1.6L458.4,362.1z M374.2,417.91l59.6-59.6c0.5-0.4,1.2-0.5,1.6,0
			c0.4,0.5,0.4,1.2,0,1.6l-59.6,59.6c-0.2,0.2-0.5,0.3-0.8,0.3s-0.6-0.1-0.8-0.3C373.8,419.01,373.8,418.31,374.2,417.91z
			 M451,401.01l-99,99c-0.2,0.2-0.5,0.3-0.8,0.3s-0.6-0.1-0.8-0.3c-0.4-0.5-0.4-1.2,0-1.6l99-99c0.4-0.4,1.1-0.4,1.6,0
			C451.4,399.91,451.4,400.61,451,401.01z M329.2,522.81l-15.5,15.5c-0.2,0.2-0.5,0.3-0.8,0.3s-0.6-0.1-0.8-0.3
			c-0.4-0.4-0.4-1.2,0-1.6l15.5-15.5c0.5-0.5,1.2-0.4,1.6,0C329.6,521.61,329.6,522.41,329.2,522.81z M301.5,575.61
			c0.5-0.4,1.2-0.4,1.6,0c0.4,0.4,0.4,1.2,0,1.6l-100.6,100.6c-0.2,0.2-0.5,0.3-0.8,0.3s-0.6-0.1-0.8-0.3c-0.4-0.4-0.4-1.1,0-1.6
			L301.5,575.61z M210.5,638.21l26.5-26.5c0.5-0.4,1.2-0.4,1.6,0c0.4,0.4,0.4,1.2,0,1.6l-26.5,26.5c-0.2,0.2-0.5,0.3-0.8,0.3
			c-0.3,0-0.6-0.1-0.8-0.3C210.1,639.41,210.1,638.61,210.5,638.21z M259.1,592.81c-0.2,0.2-0.5,0.3-0.8,0.3s-0.6-0.1-0.8-0.3
			c-0.4-0.4-0.4-1.2,0-1.6l45-45c0.5-0.4,1.2-0.4,1.6,0c0.5,0.5,0.5,1.2,0,1.6L259.1,592.81z M234.8,557.31l80.6-80.6
			c0.5-0.4,1.2-0.5,1.6,0c0.4,0.5,0.4,1.2,0,1.6l-80.6,80.6c-0.2,0.2-0.5,0.3-0.8,0.3c-0.3,0-0.6-0.1-0.8-0.3
			C234.3,558.51,234.3,557.81,234.8,557.31z M342.3,424.61l-68.1,68.1c-0.2,0.3-0.5,0.3-0.8,0.3s-0.6-0.1-0.8-0.3
			c-0.4-0.5-0.4-1.2,0-1.6l68.1-68.1c0.5-0.4,1.2-0.5,1.6,0C342.7,423.51,342.7,424.21,342.3,424.61z M111.3,372.2
			c-0.2,0.2-0.5,0.3-0.8,0.3c-0.3,0-0.6-0.1-0.8-0.3c-0.4-0.5-0.4-1.2,0-1.6l37.3-37.3c0.5-0.5,1.2-0.5,1.6,0c0.4,0.5,0.4,1.2,0,1.6
			L111.3,372.2z M140.1,428.51l-6.8,6.8c-0.2,0.2-0.5,0.3-0.8,0.3s-0.6-0.1-0.8-0.3c-0.4-0.5-0.4-1.2,0-1.6l6.8-6.8
			c0.4-0.5,1.2-0.5,1.6,0S140.5,428.11,140.1,428.51z M100.8,354.3c-0.2,0.2-0.5,0.3-0.8,0.3c-0.3,0-0.6-0.1-0.8-0.3
			c-0.4-0.5-0.4-1.2,0-1.6l30.5-30.5c0.4-0.4,1.2-0.5,1.6,0c0.4,0.5,0.4,1.2,0,1.6L100.8,354.3z M100.8,382.71l-6.3,6.3
			c-0.2,0.2-0.5,0.3-0.8,0.3s-0.6-0.1-0.8-0.3c-0.4-0.5-0.4-1.2,0-1.6l6.3-6.3c0.4-0.4,1.2-0.5,1.6,0S101.2,382.31,100.8,382.71z
			 M77.4,349.4c-0.2,0.2-0.5,0.3-0.8,0.3s-0.6-0.1-0.8-0.3c-0.4-0.5-0.4-1.2,0-1.6l87.7-87.7c0.5-0.4,1.2-0.4,1.6,0
			c0.5,0.4,0.5,1.1,0,1.6L77.4,349.4z M83.9,399.61l-8,8c-0.2,0.2-0.5,0.3-0.8,0.3c-0.3,0-0.6-0.1-0.8-0.3c-0.4-0.5-0.4-1.2,0-1.6
			l8-8c0.4-0.4,1.2-0.5,1.6,0C84.3,398.51,84.3,399.21,83.9,399.61z M156.4,295.6l34.2-34.2c0.5-0.4,1.2-0.4,1.6,0
			c0.4,0.4,0.4,1.1,0,1.6L158,297.2c-0.2,0.2-0.5,0.3-0.8,0.3c-0.3,0-0.6-0.1-0.8-0.3C156,296.7,156,296,156.4,295.6z M225.4,254.9
			c0.4-0.4,1.2-0.4,1.6,0c0.4,0.4,0.4,1.2,0,1.6l-42.4,42.4c-0.2,0.2-0.5,0.3-0.8,0.3c-0.3,0-0.6-0.1-0.8-0.3
			c-0.4-0.5-0.4-1.2,0-1.6L225.4,254.9z M199.4,252.5l37.3-37.3c0.4-0.4,1.2-0.5,1.6,0s0.4,1.2,0,1.6L201,254.1
			c-0.2,0.2-0.5,0.3-0.8,0.3c-0.3,0-0.6-0.1-0.8-0.3C199,253.6,199,252.9,199.4,252.5z M218.3,321.9L178.2,362
			c-0.2,0.2-0.5,0.3-0.8,0.3s-0.6-0.1-0.8-0.3c-0.4-0.5-0.4-1.2,0-1.6l40.1-40.1c0.5-0.4,1.2-0.5,1.6,0
			C218.7,320.8,218.7,321.5,218.3,321.9z M162.9,402.51l162.6-162.7c0.5-0.4,1.2-0.5,1.6,0c0.4,0.5,0.4,1.2,0,1.6l-162.6,162.6
			c-0.2,0.2-0.5,0.3-0.8,0.3c-0.3,0-0.6-0.1-0.8-0.3C162.4,403.61,162.4,402.91,162.9,402.51z M335.29,145.08
			c0.04-0.06,0.06-0.12,0.11-0.17l5.5-5.44l16.82-16.84c0.03-0.04,0.04-0.09,0.08-0.12l48.6-48.6c0.01-0.01,0.02-0.01,0.03-0.01
			l7.53-7.54c0.5-0.4,1.2-0.4,1.6,0c0.4,0.4,0.4,1.2,0,1.6l-16.25,16.26L359.4,124.2c-0.04,0.04-0.1,0.06-0.14,0.09l-12.68,12.69
			c-0.03,0.04-0.05,0.09-0.08,0.13l-4,3.95l-68.84,68.89c-0.2,0.2-0.5,0.3-0.8,0.3s-0.6-0.1-0.8-0.3c-0.5-0.5-0.5-1.2,0-1.6
			L335.29,145.08z M305,147l34.9-34.9c0.4-0.5,1.2-0.4,1.6,0c0.4,0.4,0.4,1.2,0,1.6l-34.9,34.9c-0.2,0.2-0.5,0.3-0.8,0.3
			c-0.3,0-0.6-0.1-0.8-0.3C304.6,148.1,304.6,147.4,305,147z M341.2,224.2l56.2-56.2c0.5-0.4,1.2-0.5,1.6,0c0.4,0.5,0.4,1.2,0,1.6
			l-56.2,56.2c-0.2,0.2-0.5,0.3-0.8,0.3s-0.6-0.1-0.8-0.3C340.7,225.3,340.7,224.6,341.2,224.2z M337.7,202.5
			c-0.2,0.2-0.5,0.3-0.8,0.3c-0.3,0-0.6-0.1-0.8-0.3c-0.4-0.5-0.4-1.2,0-1.6l45.1-45.1c0.4-0.4,1.1-0.4,1.6,0c0.4,0.5,0.4,1.2,0,1.6
			L337.7,202.5z M318.5,190.1c0.5-0.4,1.2-0.5,1.6,0s0.4,1.2,0,1.6l-49.6,49.6c-0.2,0.2-0.5,0.3-0.8,0.3s-0.6-0.1-0.8-0.3
			c-0.4-0.4-0.4-1.1,0-1.6L318.5,190.1z M301.1,239.1l-31.3,31.3c-0.2,0.2-0.5,0.3-0.8,0.3s-0.6-0.1-0.8-0.3c-0.4-0.5-0.4-1.2,0-1.6
			l31.3-31.3c0.4-0.4,1.2-0.5,1.6,0C301.5,238,301.5,238.7,301.1,239.1z M270.9,184.2l-19.5,19.5c-0.2,0.2-0.5,0.3-0.8,0.3
			s-0.6-0.1-0.8-0.3c-0.4-0.5-0.4-1.2,0-1.6l19.5-19.5c0.5-0.4,1.2-0.4,1.6,0C271.4,183.1,271.4,183.8,270.9,184.2z M273.4,323.5
			l-13.9,13.9c-0.2,0.2-0.5,0.3-0.8,0.3s-0.6-0.1-0.8-0.3c-0.4-0.5-0.4-1.2,0-1.6l13.9-13.9c0.5-0.4,1.2-0.5,1.6,0
			C273.8,322.4,273.8,323.1,273.4,323.5z M216.6,377.01l9.4-9.4c0.5-0.4,1.2-0.5,1.6,0c0.4,0.5,0.4,1.2,0,1.6l-9.4,9.4
			c-0.2,0.3-0.5,0.3-0.8,0.3c-0.3,0-0.6-0.1-0.8-0.3C216.2,378.11,216.2,377.4,216.6,377.01z M322.6,299.5c0.5-0.4,1.2-0.5,1.6,0
			c0.4,0.5,0.4,1.2,0,1.6l-181,181c-0.2,0.2-0.5,0.3-0.8,0.3c-0.3,0-0.6-0.1-0.8-0.3c-0.5-0.5-0.5-1.2,0-1.6L322.6,299.5z
			 M145.2,508.31c-0.2,0.2-0.5,0.3-0.8,0.3s-0.6-0.1-0.8-0.3c-0.4-0.5-0.4-1.2,0-1.6l101.1-101.1c0.5-0.4,1.2-0.4,1.6,0
			c0.5,0.5,0.5,1.2,0,1.6L145.2,508.31z M232.5,449.41l-26.3,26.3c-0.2,0.2-0.5,0.3-0.8,0.3c-0.3,0-0.6-0.1-0.8-0.3
			c-0.4-0.5-0.4-1.2,0-1.6l26.3-26.3c0.4-0.4,1.2-0.5,1.6,0C232.9,448.31,232.9,449.01,232.5,449.41z M194.9,487.01l-39.3,39.3
			c-0.2,0.2-0.5,0.3-0.8,0.3c-0.3,0-0.6-0.1-0.8-0.3c-0.4-0.4-0.4-1.2,0-1.6l39.3-39.3c0.4-0.4,1.2-0.5,1.6,0
			C195.3,485.91,195.3,486.61,194.9,487.01z M142.9,592.61l8.3-8.3c0.5-0.4,1.2-0.4,1.6,0s0.4,1.2,0,1.6l-8.3,8.3
			c-0.2,0.2-0.5,0.3-0.8,0.3s-0.6-0.1-0.8-0.3C142.5,593.81,142.5,593.01,142.9,592.61z M148.16,562.15c-0.2,0.2-0.5,0.3-0.8,0.3
			s-0.6-0.1-0.8-0.3c-0.4-0.4-0.4-1.2,0-1.6l137.4-137.4c0.4-0.4,1.1-0.4,1.5,0.1c0.4,0.5,0.4,1.2,0,1.6L148.16,562.15z
			 M308.1,399.01l21.9-21.9c0.5-0.4,1.2-0.5,1.6,0c0.4,0.5,0.4,1.2,0,1.6l-21.9,21.9c-0.2,0.2-0.5,0.3-0.8,0.3s-0.6-0.1-0.8-0.3
			C307.7,400.11,307.7,399.41,308.1,399.01z M243.8,438.11c-0.2,0.2-0.5,0.3-0.8,0.3c-0.3,0-0.6-0.1-0.8-0.3c-0.4-0.5-0.4-1.2,0-1.6
			l121.1-121.1c0.5-0.4,1.2-0.4,1.6,0c0.5,0.4,0.5,1.2,0,1.6L243.8,438.11z M358.7,376.71l16-16c0.5-0.4,1.2-0.5,1.6,0
			c0.4,0.5,0.4,1.2,0,1.6l-16,16c-0.2,0.2-0.5,0.3-0.8,0.3s-0.6-0.1-0.8-0.3C358.3,377.8,358.3,377.1,358.7,376.71z M262,391.61
			c-0.2,0.2-0.5,0.3-0.8,0.3s-0.6-0.1-0.8-0.3c-0.4-0.5-0.4-1.2,0-1.6l118.5-118.6c0.5-0.4,1.2-0.4,1.6,0c0.5,0.5,0.5,1.2,0.1,1.6
			L262,391.61z M351.4,270.6l13.4-13.4c0.5-0.4,1.2-0.5,1.6,0c0.4,0.5,0.4,1.2,0,1.6L353,272.2c-0.2,0.2-0.5,0.3-0.8,0.3
			s-0.6-0.1-0.8-0.3C351,271.7,351,271,351.4,270.6z M289.1,307.8c-0.2,0.2-0.5,0.3-0.8,0.3c-0.3,0-0.6-0.1-0.8-0.3
			c-0.5-0.4-0.5-1.1,0-1.6l164.7-164.8c0.5-0.4,1.2-0.5,1.6,0c0.4,0.5,0.4,1.2,0,1.6L289.1,307.8z M455.1,226.8
			c-0.2,0.2-0.5,0.3-0.8,0.3c-0.3,0-0.6-0.1-0.8-0.3c-0.4-0.5-0.4-1.2,0-1.6l86.8-86.8c0.4-0.4,1.2-0.4,1.6,0c0.5,0.4,0.5,1.1,0,1.6
			L455.1,226.8z M536.41,173.8l-11.5,11.5c-0.2,0.2-0.5,0.3-0.8,0.3s-0.6-0.1-0.8-0.3c-0.4-0.5-0.4-1.2,0-1.6l11.5-11.5
			c0.5-0.4,1.2-0.5,1.6,0S536.81,173.4,536.41,173.8z M516.21,194.1l-13.6,13.6c-0.2,0.2-0.5,0.3-0.8,0.3s-0.6-0.1-0.8-0.3
			c-0.4-0.5-0.4-1.2,0-1.6l13.6-13.6c0.4-0.5,1.1-0.5,1.6,0C516.61,193,516.61,193.7,516.21,194.1z M534.1,119.5
			c-0.01,0.01-0.02,0.04-0.03,0.05l-42.8,42.8c-0.03,0.03-0.08,0.05-0.12,0.08L398.3,255.2c-0.2,0.2-0.5,0.3-0.8,0.3
			s-0.6-0.1-0.8-0.3c-0.4-0.4-0.4-1.1,0-1.5l155.6-155.6c0.4-0.4,1.2-0.4,1.6,0c0.4,0.4,0.4,1.2,0,1.6L534.1,119.5z M423.8,258.1
			L398.9,283c-0.2,0.2-0.5,0.3-0.8,0.3s-0.6-0.1-0.8-0.3c-0.4-0.5-0.4-1.2,0-1.6l24.9-24.9c0.5-0.4,1.2-0.5,1.6,0
			C424.2,257,424.2,257.7,423.8,258.1z M401.3,220.7l15.4-15.4c0.4-0.4,1.2-0.4,1.6,0c0.4,0.5,0.4,1.2,0,1.6l-15.4,15.4
			c-0.2,0.2-0.5,0.3-0.8,0.3s-0.6-0.1-0.8-0.3C400.9,221.8,400.9,221.1,401.3,220.7z M502.21,123.1l-66.1,66.1
			c-0.2,0.2-0.5,0.3-0.8,0.3s-0.6-0.1-0.8-0.3c-0.5-0.5-0.5-1.2,0-1.6l66.1-66.1c0.5-0.4,1.2-0.4,1.6,0
			C502.61,121.9,502.61,122.7,502.21,123.1z M385.3,321.8l68.1-68.1c0.5-0.4,1.2-0.5,1.6,0c0.4,0.5,0.4,1.2,0,1.6l-68.1,68.1
			c-0.2,0.2-0.5,0.3-0.8,0.3s-0.6-0.1-0.8-0.3C384.9,322.9,384.9,322.2,385.3,321.8z M454.7,280.7l118.8-118.8
			c0.4-0.4,1.2-0.5,1.6,0s0.4,1.2,0,1.6L456.3,282.3c-0.2,0.2-0.5,0.3-0.8,0.3s-0.6-0.1-0.8-0.3
			C454.3,281.9,454.3,281.2,454.7,280.7z M658.51,21.8c0.4,0.5,0.4,1.2,0,1.6l-37.8,37.8c-0.2,0.2-0.5,0.3-0.8,0.3s-0.5-0.1-0.8-0.3
			c-0.4-0.4-0.4-1.2,0-1.6l37.8-37.8C657.31,21.4,658.11,21.3,658.51,21.8z M649.21,1.1l0.2-0.1c0.4-0.4,1.2-0.4,1.6,0
			s0.4,1.2,0,1.6l-11.6,11.6L626.61,27c-0.2,0.2-0.5,0.3-0.8,0.3c-0.3,0-0.6-0.1-0.8-0.4c-0.4-0.5-0.4-1.2,0-1.6L648.41,2
			L649.21,1.1z M602.11,20l9.6-9.6l4-4l6.3-6.3h3.2l-0.8,0.8l-20.7,20.7c-0.2,0.2-0.5,0.3-0.8,0.3c-0.3,0-0.6-0.1-0.8-0.3
			C601.71,21.1,601.71,20.4,602.11,20z M593.01,29c0.4-0.4,1.2-0.5,1.6,0s0.4,1.2,0,1.6l-37.8,37.8c-0.2,0.2-0.5,0.3-0.8,0.3
			s-0.5-0.1-0.8-0.3c-0.4-0.4-0.4-1.2,0-1.6L593.01,29z M560.55,33.16h0.01l2.72-2.72c0.4-0.4,1.2-0.5,1.6,0s0.4,1.2,0,1.6
			l-37.8,37.8c-0.01,0.01-0.03,0.01-0.04,0.02l-57.84,57.84c-0.2,0.2-0.5,0.3-0.8,0.3s-0.6-0.1-0.8-0.3c-0.4-0.5-0.4-1.2,0-1.6
			L560.55,33.16z M484.61,80.7c0.5-0.4,1.2-0.4,1.6,0c0.4,0.4,0.4,1.2,0,1.6l-78.5,78.5c-0.2,0.2-0.5,0.3-0.8,0.3s-0.6-0.1-0.8-0.3
			c-0.5-0.4-0.5-1.1,0-1.6L484.61,80.7z M466.3,70.7c0.5-0.4,1.2-0.4,1.6,0c0.4,0.4,0.4,1.2,0,1.6l-32.2,32.2
			c-0.2,0.2-0.5,0.3-0.8,0.3s-0.6-0.1-0.8-0.3c-0.4-0.4-0.4-1.2,0-1.6L466.3,70.7z M452,0.1h3.1l-0.8,0.8l-9.9,9.9l-1.2,1.2
			l-85.4,85.3c-0.2,0.2-0.5,0.3-0.8,0.3c-0.3,0-0.6-0.1-0.8-0.3c-0.4-0.4-0.4-1.1,0.1-1.5L452,0.1z M394,29.6c0.5-0.4,1.2-0.5,1.6,0
			c0.4,0.5,0.4,1.2,0,1.6L183.7,243.1c-0.2,0.2-0.5,0.3-0.8,0.3c-0.3,0-0.6-0.1-0.8-0.3c-0.5-0.4-0.5-1.1,0-1.6L394,29.6z
			 M276.1,90.8l26-26c0.5-0.4,1.2-0.4,1.6,0c0.4,0.4,0.4,1.2,0,1.6l-26,26c-0.2,0.2-0.5,0.3-0.8,0.3s-0.6-0.1-0.8-0.3
			C275.7,92,275.7,91.2,276.1,90.8z M312.6,82.7c0.5-0.4,1.2-0.4,1.6,0c0.4,0.4,0.4,1.2,0,1.6L143.7,254.7c-0.2,0.2-0.5,0.3-0.8,0.3
			c-0.3,0-0.6-0.1-0.8-0.3c-0.4-0.4-0.4-1.1,0-1.6L312.6,82.7z M140.5,173c-0.2,0.2-0.5,0.3-0.8,0.3c-0.3,0-0.6-0.1-0.8-0.3
			c-0.4-0.5-0.4-1.2,0-1.6l57.6-57.6c0.5-0.4,1.2-0.4,1.6,0c0.4,0.4,0.4,1.1,0,1.6L140.5,173z M177.6,192.5L152,218.1
			c-0.2,0.2-0.5,0.3-0.8,0.3c-0.3,0-0.6-0.1-0.8-0.3c-0.4-0.5-0.4-1.2,0-1.6l25.6-25.6c0.4-0.4,1.2-0.5,1.6,0
			C178,191.4,178,192.1,177.6,192.5z M141.6,225.3c0.5-0.4,1.2-0.5,1.6,0s0.4,1.2,0,1.6l-49.9,49.9c-0.2,0.2-0.5,0.3-0.8,0.3
			s-0.6-0.1-0.8-0.3c-0.4-0.4-0.4-1.1-0.1-1.6L141.6,225.3z M310.2,0.1h3.2l-0.8,0.8L301.5,12L208,105.5c-0.2,0.2-0.5,0.3-0.8,0.3
			s-0.6-0.1-0.8-0.3c-0.4-0.4-0.4-1.2,0-1.6l93.4-93.4L310.2,0.1z M198.6,55l44.6-44.6l10.3-10.3h3.2l-0.8,0.8l-55.7,55.7
			c-0.2,0.2-0.5,0.3-0.8,0.3c-0.3,0-0.6-0.1-0.8-0.3C198.2,56.2,198.2,55.4,198.6,55z M172.8,80.7l16.1-16.1c0.5-0.4,1.2-0.4,1.6,0
			c0.4,0.4,0.4,1.2,0,1.6l-16.1,16.1c-0.2,0.2-0.5,0.3-0.8,0.3s-0.6-0.1-0.8-0.3C172.4,81.9,172.4,81.1,172.8,80.7z M112.8,140.7
			l25.3-25.3c0.5-0.4,1.2-0.4,1.6,0c0.4,0.4,0.4,1.2,0,1.6l-25.3,25.3c-0.2,0.2-0.5,0.3-0.8,0.3c-0.3,0-0.6-0.1-0.8-0.3
			C112.3,141.9,112.3,141.2,112.8,140.7z M87.2,82.9c-0.4-0.4-0.4-1.2,0-1.6l19.6-19.6c0.4-0.4,1.2-0.4,1.6,0c0.4,0.5,0.4,1.2,0,1.6
			L88.8,82.9c-0.2,0.2-0.5,0.3-0.8,0.3C87.7,83.2,87.4,83.1,87.2,82.9z M95.76,132.75l-5.5,5.5c-0.2,0.2-0.5,0.3-0.8,0.3
			c-0.3,0-0.6-0.1-0.8-0.3c-0.4-0.4-0.4-1.2,0-1.6l5.5-5.5c0.5-0.4,1.2-0.4,1.6,0C96.16,131.55,96.16,132.35,95.76,132.75z
			 M96.7,103.4c-0.2,0.2-0.5,0.3-0.8,0.3c-0.3,0-0.6-0.1-0.8-0.3c-0.4-0.4-0.4-1.2,0-1.6l7.6-7.6c0.4-0.4,1.2-0.4,1.6,0
			c0.4,0.4,0.4,1.1,0,1.6L96.7,103.4z M75,206.9L240.7,41.2c0.5-0.4,1.2-0.4,1.6,0c0.4,0.4,0.4,1.2,0,1.6L76.6,208.5
			c-0.2,0.2-0.5,0.3-0.8,0.3c-0.3,0-0.6-0.1-0.8-0.3C74.6,208,74.6,207.3,75,206.9z M18.9,294.5c-0.2,0.2-0.5,0.3-0.8,0.3
			c-0.3,0-0.6-0.1-0.8-0.3c-0.4-0.5-0.4-1.2,0-1.6l79.2-79.2c0.4-0.4,1.2-0.4,1.6,0c0.5,0.4,0.5,1.1,0,1.6L18.9,294.5z M45.3,353.2
			c-0.2,0.2-0.5,0.3-0.8,0.3c-0.3,0-0.6-0.1-0.8-0.3c-0.4-0.5-0.4-1.2,0-1.6l90.1-90.1c0.5-0.4,1.2-0.4,1.6,0c0.4,0.4,0.4,1.1,0,1.6
			L45.3,353.2z M0,511.91v-3.2l108.76-108.76c0.5-0.4,1.2-0.4,1.6,0c0.4,0.4,0.4,1.2,0,1.6L0,511.91z M28.1,568.81
			c-0.2,0.2-0.5,0.3-0.8,0.3s-0.6-0.1-0.8-0.3c-0.4-0.4-0.4-1.2,0-1.6l158.3-158.3c0.5-0.4,1.2-0.4,1.6,0c0.4,0.5,0.4,1.2,0,1.6
			L28.1,568.81z M132.9,492.31l-10.1,10.1c-0.2,0.3-0.5,0.3-0.8,0.3c-0.3,0-0.6-0.1-0.8-0.3c-0.4-0.5-0.4-1.2,0-1.6l10.1-10.1
			c0.5-0.4,1.2-0.5,1.6,0S133.3,491.91,132.9,492.31z M64.8,560.41c-0.2,0.2-0.5,0.3-0.8,0.3c-0.3,0-0.6-0.1-0.8-0.3
			c-0.4-0.4-0.4-1.2,0-1.6l20.1-20.1c0.4-0.4,1.2-0.4,1.6,0c0.5,0.4,0.5,1.1,0,1.6L64.8,560.41z M70.1,608.61l48.7-48.6
			c0.4-0.4,1.2-0.4,1.6,0c0.4,0.4,0.4,1.1,0,1.6l-48.7,48.6c-0.2,0.2-0.5,0.3-0.8,0.3s-0.6-0.1-0.8-0.3
			C69.7,609.81,69.7,609.01,70.1,608.61z M81.35,628.95l-73.9,73.9c-0.2,0.2-0.5,0.3-0.8,0.3s-0.6-0.1-0.8-0.3
			c-0.4-0.4-0.4-1.2,0-1.6l73.9-73.9c0.5-0.4,1.2-0.4,1.6,0C81.75,627.75,81.75,628.55,81.35,628.95z M88.4,621.91
			c-0.2,0.2-0.5,0.3-0.8,0.3s-0.6-0.1-0.8-0.3c-0.5-0.5-0.5-1.2,0-1.6l47-47c0.5-0.4,1.2-0.4,1.6,0c0.4,0.4,0.4,1.2,0,1.6
			L88.4,621.91z M119.7,646.71c-0.3,0-0.6-0.1-0.8-0.3c-0.4-0.4-0.4-1.2,0-1.6l132.4-132.4c0.5-0.4,1.2-0.4,1.6,0
			c0.5,0.5,0.5,1.2,0,1.6l-132.4,132.4C120.3,646.61,120,646.71,119.7,646.71z M125.9,669.51c-0.2,0.2-0.5,0.3-0.8,0.3
			c-0.3,0-0.6-0.1-0.8-0.3c-0.4-0.4-0.4-1.2,0-1.6l96.4-96.5c0.5-0.4,1.2-0.4,1.6,0c0.5,0.4,0.5,1.1,0,1.6L125.9,669.51z
			 M161.3,690.81c-0.2,0.2-0.5,0.3-0.8,0.3s-0.6-0.1-0.8-0.3c-0.4-0.4-0.4-1.2,0-1.6l40.6-40.7c0.5-0.4,1.2-0.4,1.6,0
			c0.4,0.5,0.4,1.2,0,1.6L161.3,690.81z M214.1,694.61l-20.3,20.3c-0.2,0.2-0.5,0.3-0.8,0.3c-0.3,0-0.6-0.1-0.8-0.3
			c-0.4-0.4-0.4-1.2,0-1.6l20.3-20.3c0.4-0.4,1.2-0.4,1.6,0S214.5,694.21,214.1,694.61z M305.9,602.81l-44.9,44.9
			c-0.2,0.2-0.5,0.3-0.8,0.3s-0.6-0.1-0.8-0.3c-0.4-0.4-0.4-1.2,0-1.6l44.9-44.9c0.4-0.4,1.2-0.4,1.6,0
			C306.3,601.61,306.3,602.41,305.9,602.81z M311.7,568.61c-0.2,0.2-0.5,0.3-0.8,0.3s-0.6-0.1-0.8-0.3c-0.4-0.4-0.4-1.2,0-1.6
			l83.6-83.5c0.5-0.4,1.2-0.4,1.6,0c0.4,0.4,0.4,1.1,0,1.5L311.7,568.61z M392.3,516.41l-25.5,25.5c-0.2,0.2-0.5,0.3-0.8,0.3
			s-0.6-0.1-0.8-0.3c-0.4-0.4-0.4-1.2,0-1.6l25.5-25.5c0.5-0.5,1.2-0.5,1.6,0C392.7,515.21,392.7,516.01,392.3,516.41z
			 M317.7,675.61c-0.3,0-0.6-0.1-0.8-0.3c-0.4-0.4-0.4-1.2,0-1.6l135.6-135.6c0.5-0.4,1.2-0.4,1.6,0s0.4,1.1,0,1.6l-135.6,135.6
			C318.3,675.51,318,675.61,317.7,675.61z M338.2,623.91l46-46c0.5-0.4,1.2-0.4,1.6,0c0.4,0.4,0.4,1.2,0,1.6l-46,46
			c-0.2,0.3-0.5,0.3-0.8,0.3s-0.6-0.1-0.8-0.3C337.8,625.11,337.8,624.31,338.2,623.91z M414.86,547.45l22.9-22.9
			c0.5-0.4,1.2-0.5,1.6,0c0.4,0.5,0.4,1.2,0,1.6l-22.9,22.9c-0.2,0.2-0.5,0.3-0.8,0.3s-0.6-0.1-0.8-0.3
			C414.36,548.55,414.36,547.85,414.86,547.45z M443.1,607.31l-28.5,28.5c-0.2,0.2-0.5,0.3-0.8,0.3s-0.6-0.1-0.8-0.3
			c-0.4-0.4-0.4-1.2,0-1.6l28.5-28.5c0.4-0.4,1.1-0.4,1.6,0C443.5,606.11,443.5,606.91,443.1,607.31z M371.9,650.11l-43.3,43.3
			c-0.2,0.2-0.5,0.3-0.8,0.3s-0.6-0.1-0.8-0.3c-0.4-0.4-0.4-1.2,0-1.6l43.4-43.3c0.4-0.4,1.1-0.4,1.5,0
			C372.3,648.91,372.3,649.71,371.9,650.11z M395.9,626.31c-0.2,0.2-0.5,0.3-0.8,0.3s-0.6-0.1-0.8-0.3c-0.4-0.4-0.4-1.2,0-1.6
			l27.6-27.7c0.5-0.4,1.2-0.4,1.6,0c0.4,0.5,0.4,1.2,0,1.6L395.9,626.31z M443.5,635.31l-39.5,39.5c-0.2,0.2-0.5,0.3-0.8,0.3
			s-0.6-0.1-0.8-0.3c-0.4-0.4-0.4-1.2,0-1.6l39.5-39.5c0.4-0.4,1.1-0.4,1.6,0C443.9,634.11,443.9,634.91,443.5,635.31z
			 M451.4,569.11c-0.4-0.4-0.4-1.2,0-1.6l33.5-33.5c0.5-0.4,1.2-0.4,1.6,0c0.4,0.4,0.4,1.2,0,1.6l-33.5,33.5
			c-0.2,0.2-0.5,0.3-0.8,0.3S451.6,569.31,451.4,569.11z M480.71,481.41l16.3-16.3c0.5-0.4,1.2-0.5,1.6,0c0.4,0.5,0.4,1.2,0,1.6
			l-16.3,16.3c-0.2,0.3-0.5,0.3-0.8,0.3s-0.6-0.1-0.8-0.3C480.31,482.51,480.31,481.81,480.71,481.41z M471.51,607.31l-17,17
			c-0.2,0.2-0.5,0.3-0.8,0.3s-0.6-0.1-0.8-0.3c-0.4-0.4-0.4-1.2,0-1.6l17-17c0.4-0.4,1.1-0.4,1.6,0
			C471.91,606.11,471.91,606.91,471.51,607.31z M553.71,496.71l-88.7,88.7c-0.2,0.2-0.5,0.3-0.8,0.3s-0.6-0.1-0.8-0.3
			c-0.4-0.4-0.4-1.2,0-1.6l88.7-88.7c0.5-0.4,1.2-0.4,1.6,0C554.11,495.61,554.11,496.31,553.71,496.71z M541.61,448.91
			c0.4-0.4,1.2-0.5,1.6,0s0.4,1.2,0,1.6l-36.2,36.2c-0.2,0.2-0.5,0.3-0.8,0.3s-0.6-0.1-0.8-0.3c-0.4-0.4-0.4-1.1,0-1.6
			L541.61,448.91z M517.91,444.31l41.5-41.5c0.4-0.4,1.2-0.5,1.6,0c0.4,0.5,0.4,1.2,0,1.6l-41.5,41.5c-0.3,0.2-0.5,0.3-0.8,0.3
			s-0.6-0.1-0.8-0.3C517.51,445.41,517.51,444.71,517.91,444.31z M669.31,349.6l66.9-66.9l0.8-0.8v3.2l-66.1,66.1
			c-0.2,0.2-0.5,0.3-0.8,0.3s-0.6-0.1-0.8-0.3C668.91,350.7,668.91,350,669.31,349.6z M636.41,410.91l31-31c0.4-0.4,1.2-0.5,1.6,0
			s0.4,1.2,0,1.6l-31,31c-0.2,0.2-0.5,0.3-0.8,0.3c-0.3,0-0.6-0.2-0.8-0.3C636.01,412.01,636.01,411.31,636.41,410.91z
			 M608.81,410.11c0.4-0.4,1.2-0.5,1.6,0s0.4,1.2,0,1.6l-81.6,81.6c-0.2,0.2-0.5,0.3-0.8,0.3s-0.6-0.1-0.8-0.3
			c-0.4-0.5-0.4-1.2,0-1.6L608.81,410.11z M583.41,350.5l50.5-50.5c0.4-0.4,1.2-0.5,1.6,0s0.4,1.2,0,1.6l-50.5,50.5
			c-0.2,0.2-0.5,0.3-0.8,0.3s-0.6-0.1-0.8-0.3C583.01,351.6,583.01,350.9,583.41,350.5z M582.91,409.21c0.4,0.5,0.4,1.2,0,1.6
			l-28.3,28.3c-0.2,0.2-0.5,0.3-0.8,0.3s-0.6-0.1-0.8-0.3c-0.5-0.4-0.5-1.1,0-1.6l28.3-28.3
			C581.71,408.81,582.51,408.71,582.91,409.21z M574.41,359.4c0.4-0.4,1.2-0.5,1.6,0c0.4,0.5,0.4,1.2,0,1.6l-252,252.1
			c-0.2,0.2-0.5,0.3-0.8,0.3s-0.6-0.1-0.8-0.3c-0.5-0.4-0.5-1.2,0-1.6L574.41,359.4z M571.31,309l-157.4,157.4
			c-0.2,0.2-0.5,0.3-0.8,0.3s-0.6-0.1-0.8-0.3c-0.4-0.5-0.4-1.2,0-1.6l157.4-157.3c0.4-0.5,1.1-0.5,1.6-0.1
			C571.71,307.9,571.71,308.6,571.31,309z M473.41,321.9c-0.2,0.2-0.5,0.3-0.8,0.3s-0.6-0.1-0.8-0.3c-0.4-0.5-0.4-1.2,0-1.6
			l24.2-24.2c0.5-0.4,1.2-0.4,1.6,0c0.5,0.4,0.5,1.1,0,1.6L473.41,321.9z M475.11,373.7l64.5-64.5c0.4-0.4,1.2-0.5,1.6,0
			s0.4,1.2,0,1.6l-64.5,64.5c-0.2,0.2-0.5,0.3-0.8,0.3s-0.5-0.1-0.8-0.3C474.71,374.8,474.71,374.1,475.11,373.7z M623.21,257.2
			l-34,34c-0.2,0.2-0.5,0.3-0.8,0.3s-0.6-0.1-0.8-0.3c-0.4-0.5-0.4-1.2,0-1.6l34-34c0.4-0.4,1.1-0.4,1.6,0
			C623.61,256.1,623.61,256.8,623.21,257.2z M676.01,204.4l-33,33.1c-0.2,0.2-0.5,0.3-0.8,0.3s-0.6-0.1-0.8-0.3
			c-0.4-0.5-0.4-1.2,0-1.6l33-33.1c0.4-0.4,1.1-0.4,1.6,0C676.41,203.3,676.41,204,676.01,204.4z M629.51,191l43.3-43.3
			c0.4-0.4,1.2-0.5,1.6,0c0.4,0.5,0.4,1.2,0,1.6l-43.3,43.3c-0.2,0.2-0.5,0.3-0.8,0.3s-0.5-0.2-0.8-0.3
			C629.11,192.1,629.11,191.4,629.51,191z M577.31,243.2l14-14c0.4-0.4,1.2-0.5,1.6,0c0.4,0.5,0.4,1.2,0,1.6l-14,14
			c-0.2,0.2-0.5,0.3-0.8,0.3s-0.6-0.1-0.8-0.3C576.91,244.3,576.91,243.6,577.31,243.2z M557.51,291.3l130.2-130.2
			c0.4-0.4,1.2-0.5,1.6,0c0.4,0.5,0.4,1.2,0,1.6l-130.2,130.2c-0.2,0.2-0.5,0.3-0.8,0.3s-0.6-0.1-0.8-0.3
			C557.11,292.4,557.11,291.7,557.51,291.3z M553.01,267.4c0.4-0.4,1.2-0.5,1.6,0c0.4,0.5,0.4,1.2,0,1.6l-68.9,68.9
			c-0.2,0.2-0.5,0.3-0.8,0.3s-0.6-0.1-0.8-0.3c-0.4-0.4-0.4-1.1,0-1.6L553.01,267.4z M530.61,236.4l-177.1,177.1
			c-0.2,0.2-0.5,0.3-0.8,0.3s-0.6-0.1-0.8-0.3c-0.4-0.5-0.4-1.2,0-1.6l177-177.1c0.5-0.4,1.3-0.5,1.7,0S531.01,236,530.61,236.4z
			 M600.01,167l-58,58c-0.2,0.2-0.5,0.3-0.8,0.3s-0.6-0.1-0.8-0.3c-0.4-0.5-0.4-1.2,0-1.6l58-58c0.4-0.4,1.2-0.5,1.6,0
			S600.41,166.6,600.01,167z M604.11,134.1c-0.3,0-0.6-0.2-0.8-0.3c-0.4-0.5-0.4-1.2,0-1.6l31.6-31.6c0.4-0.4,1.2-0.4,1.6,0
			s0.4,1.2,0,1.6l-31.6,31.6C604.71,134,604.41,134.1,604.11,134.1z M672.11,94.9l-58.9,58.9c-0.2,0.2-0.5,0.3-0.8,0.3
			s-0.6-0.1-0.8-0.3c-0.4-0.5-0.4-1.2,0-1.6l58.9-58.9c0.4-0.4,1.1-0.4,1.6,0C672.51,93.7,672.51,94.5,672.11,94.9z M683.61,55
			l-17.3,17.3c-0.2,0.2-0.5,0.3-0.8,0.3c-0.3,0-0.6-0.1-0.9-0.2c-0.4-0.4-0.4-1.2,0-1.6l17.4-17.4c0.4-0.4,1.2-0.4,1.6,0
			S684.01,54.6,683.61,55z"/>
		<path class="st0" d="M735.41,737.01l1.6-1.6v-53.5l-31.7,31.7c-0.2,0.2-0.5,0.3-0.8,0.3s-0.6-0.1-0.8-0.3c-0.4-0.4-0.4-1.2,0-1.6
			l32.5-32.5l0.8-0.8v-53.5l-111.8,111.8H735.41z M693.7,725.19l-2.4,2.4c-0.2,0.2-0.5,0.3-0.8,0.3c-0.3,0-0.6-0.1-0.8-0.3
			c-0.4-0.4-0.4-1.2,0-1.6l2.4-2.4c0.4-0.4,1.2-0.4,1.6,0S694.1,724.79,693.7,725.19z M736.21,651.21l0.8-0.8v3.2l-74.1,74.1
			c-0.2,0.2-0.5,0.3-0.8,0.3s-0.6-0.1-0.8-0.3c-0.4-0.4-0.4-1.2,0-1.6L736.21,651.21z"/>
		<polygon class="st0" points="16.4,10.4 26.8,0 1.6,0 0,1.6 0,26.8 3.3,23.5 		"/>
		<path class="st0" d="M129.8,10.4L140.1,0H115l-0.9,0.8L103,12l-7.8,7.8c-0.2,0.2-0.5,0.3-0.8,0.3s-0.6-0.1-0.8-0.3
			c-0.4-0.5-0.4-1.2,0-1.6l7.8-7.8L111.8,0H86.6l-0.8,0.8L4.9,81.7l-4.1,4.1L0,86.6v53.5l3.3-3.3L129.8,10.4z M7.54,104.25
			l25.3-25.3c0.5-0.4,1.2-0.4,1.6,0s0.4,1.2,0,1.6l-25.3,25.3c-0.2,0.2-0.5,0.3-0.8,0.3s-0.6-0.1-0.8-0.3
			C7.04,105.45,7.04,104.75,7.54,104.25z"/>
		<path class="st1" d="M37.8,17.3c-0.4,0.4-0.4,1.1,0,1.6c0.2,0.2,0.5,0.3,0.8,0.3s0.6-0.1,0.8-0.3L57.5,0.8L58.3,0h-3.2L44.7,10.4
			L37.8,17.3z"/>
		<polygon class="st2" points="4.9,81.7 85.8,0.8 86.6,0 83.4,0 73.1,10.4 3.3,80.2 0,83.5 0,86.6 0.8,85.8 		"/>
		<path class="st3" d="M93.6,18.2c-0.4,0.4-0.4,1.1,0,1.6c0.2,0.2,0.5,0.3,0.8,0.3s0.6-0.1,0.8-0.3L103,12l11.1-11.2L115,0h-3.2
			l-10.4,10.4L93.6,18.2z"/>
		<polygon class="st3" points="142.5,0.8 143.3,0 140.1,0 129.8,10.4 3.3,136.8 0,140.1 0,143.3 0.8,142.5 		"/>
		<path class="st4" d="M130.1,66.8c-0.4,0.4-0.4,1.2,0,1.6c0.2,0.2,0.5,0.3,0.8,0.3c0.3,0,0.6-0.1,0.8-0.3l67.6-67.6L200,0h-3.2
			l-10.3,10.4L130.1,66.8z"/>
		<path class="st3" d="M168.7,56.5c-0.4,0.4-0.4,1.2,0,1.6c0.2,0.2,0.5,0.3,0.8,0.3c0.3,0,0.6-0.1,0.8-0.3L216.4,12l11.2-11.2
			l0.8-0.8h-3.2l-10.4,10.4L168.7,56.5z"/>
		<path class="st3" d="M199.4,56.9c0.3,0,0.6-0.1,0.8-0.3l55.7-55.7l0.8-0.8h-3.2l-10.3,10.3L198.6,55c-0.4,0.4-0.4,1.2,0,1.6
			C198.8,56.8,199.1,56.9,199.4,56.9z"/>
		<path class="st3" d="M113.6,142.6c0.3,0,0.6-0.1,0.8-0.3l25.3-25.3c0.4-0.4,0.4-1.2,0-1.6c-0.4-0.4-1.1-0.4-1.6,0l-25.3,25.3
			c-0.5,0.5-0.5,1.2,0,1.6C113,142.5,113.3,142.6,113.6,142.6z"/>
		<path class="st3" d="M8.34,106.15c0.3,0,0.6-0.1,0.8-0.3l25.3-25.3c0.4-0.4,0.4-1.2,0-1.6s-1.1-0.4-1.6,0l-25.3,25.3
			c-0.5,0.5-0.5,1.2,0,1.6C7.74,106.05,8.04,106.15,8.34,106.15z"/>
		<path class="st3" d="M75.8,208.8c0.3,0,0.6-0.1,0.8-0.3L242.3,42.8c0.4-0.4,0.4-1.2,0-1.6c-0.4-0.4-1.1-0.4-1.6,0L75,206.9
			c-0.4,0.4-0.4,1.1,0,1.6C75.2,208.7,75.5,208.8,75.8,208.8z"/>
		<path class="st5" d="M198.1,113.8c-0.4-0.4-1.1-0.4-1.6,0l-57.6,57.6c-0.4,0.4-0.4,1.1,0,1.6c0.2,0.2,0.5,0.3,0.8,0.3
			c0.3,0,0.6-0.1,0.8-0.3l57.6-57.6C198.5,114.9,198.5,114.2,198.1,113.8z"/>
		<path class="st6" d="M206.4,105.5c0.2,0.2,0.5,0.3,0.8,0.3s0.6-0.1,0.8-0.3L301.5,12l11.1-11.1l0.8-0.8h-3.2l-10.4,10.4
			l-93.4,93.4C206,104.3,206,105.1,206.4,105.5z"/>
		<path class="st3" d="M218.8,119.8c-0.4,0.4-0.4,1.2,0,1.6c0.2,0.2,0.5,0.3,0.8,0.3s0.6-0.1,0.8-0.3L341,0.8l0.8-0.8h-3.2
			l-10.4,10.4L218.8,119.8z"/>
		<path class="st3" d="M348.7,18.3c-0.4,0.4-0.4,1.1,0,1.6c0.2,0.2,0.5,0.3,0.8,0.3s0.6-0.1,0.8-0.3l7.9-7.9l11.1-11.2l0.8-0.8h-3.2
			l-10.4,10.4L348.7,18.3z"/>
		<path class="st3" d="M176,190.9l-25.6,25.6c-0.4,0.4-0.4,1.1,0,1.6c0.2,0.2,0.5,0.3,0.8,0.3c0.3,0,0.6-0.1,0.8-0.3l25.6-25.6
			c0.4-0.4,0.4-1.1,0-1.6C177.2,190.4,176.4,190.5,176,190.9z"/>
		<path class="st3" d="M135.4,261.5c-0.4-0.4-1.1-0.4-1.6,0l-90.1,90.1c-0.4,0.4-0.4,1.1,0,1.6c0.2,0.2,0.5,0.3,0.8,0.3
			c0.3,0,0.6-0.1,0.8-0.3l90.1-90.1C135.8,262.6,135.8,261.9,135.4,261.5z"/>
		<path class="st3" d="M336.9,59.9c0.2,0.2,0.5,0.3,0.8,0.3s0.6-0.1,0.8-0.3l59.1-59.1l0.8-0.8h-3.2l-58.3,58.3
			C336.5,58.8,336.5,59.5,336.9,59.9z"/>
		<path class="st3" d="M165.1,260.1c-0.4-0.4-1.1-0.4-1.6,0l-87.7,87.7c-0.4,0.4-0.4,1.1,0,1.6c0.2,0.2,0.5,0.3,0.8,0.3
			s0.6-0.1,0.8-0.3l87.7-87.7C165.6,261.2,165.6,260.5,165.1,260.1z"/>
		<path class="st3" d="M131.3,322.2c-0.4-0.5-1.2-0.4-1.6,0l-30.5,30.5c-0.4,0.4-0.4,1.1,0,1.6c0.2,0.2,0.5,0.3,0.8,0.3
			c0.3,0,0.6-0.1,0.8-0.3l30.5-30.5C131.7,323.4,131.7,322.7,131.3,322.2z"/>
		<path class="st3" d="M269.3,182.6l-19.5,19.5c-0.4,0.4-0.4,1.1,0,1.6c0.2,0.2,0.5,0.3,0.8,0.3s0.6-0.1,0.8-0.3l19.5-19.5
			c0.5-0.4,0.5-1.1,0-1.6C270.5,182.2,269.8,182.2,269.3,182.6z"/>
		<path class="st3" d="M306.6,148.6l34.9-34.9c0.4-0.4,0.4-1.2,0-1.6c-0.4-0.4-1.2-0.5-1.6,0L305,147c-0.4,0.4-0.4,1.1,0,1.6
			c0.2,0.2,0.5,0.3,0.8,0.3C306.1,148.9,306.4,148.8,306.6,148.6z"/>
		<path class="st3" d="M356.2,97.3c0.2,0.2,0.5,0.3,0.8,0.3c0.3,0,0.6-0.1,0.8-0.3L443.2,12l1.2-1.2l9.9-9.9l0.8-0.8H452l-95.7,95.7
			C355.8,96.2,355.8,96.9,356.2,97.3z"/>
		<path class="st3" d="M446.9,35c0.2,0.2,0.5,0.3,0.8,0.3s0.6-0.1,0.8-0.3l34.2-34.2l0.8-0.8h-3.2l-33.4,33.4
			C446.5,33.8,446.5,34.6,446.9,35z"/>
		<path class="st3" d="M335.4,144.9c-0.05,0.05-0.08,0.12-0.11,0.17l5.61-5.62L335.4,144.9z"/>
		<path class="st3" d="M346.5,137.1c0.04-0.04,0.05-0.09,0.08-0.13l-4.08,4.08L346.5,137.1z"/>
		<path class="st3" d="M148.6,333.3c-0.4-0.5-1.1-0.5-1.6,0l-37.3,37.3c-0.4,0.4-0.4,1.1,0,1.6c0.2,0.2,0.5,0.3,0.8,0.3
			c0.3,0,0.6-0.1,0.8-0.3l37.3-37.3C149,334.5,149,333.8,148.6,333.3z"/>
		<path class="st3" d="M268.9,241.3c0.2,0.2,0.5,0.3,0.8,0.3s0.6-0.1,0.8-0.3l49.6-49.6c0.4-0.4,0.4-1.1,0-1.6s-1.1-0.4-1.6,0
			l-49.6,49.6C268.5,240.2,268.5,240.9,268.9,241.3z"/>
		<path class="st2" d="M481.81,28.5c0.2,0.2,0.5,0.3,0.8,0.3c0.3,0,0.6-0.1,0.8-0.3l27.6-27.7l0.8-0.8h-3.2l-26.9,26.9
			C481.41,27.3,481.41,28,481.81,28.5z"/>
		<path class="st3" d="M518.71,19.9c0.2,0.2,0.5,0.3,0.8,0.3s0.6-0.1,0.8-0.3l19.1-19.1l0.8-0.8h-3.2l-18.3,18.3
			C518.21,18.8,518.21,19.5,518.71,19.9z"/>
		<path class="st3" d="M216.7,320.3l-40.1,40.1c-0.4,0.4-0.4,1.1,0,1.6c0.2,0.2,0.5,0.3,0.8,0.3s0.6-0.1,0.8-0.3l40.1-40.1
			c0.4-0.4,0.4-1.1,0-1.6C217.9,319.8,217.2,319.9,216.7,320.3z"/>
		<path class="st3" d="M382.8,155.8c-0.5-0.4-1.2-0.4-1.6,0l-45.1,45.1c-0.4,0.4-0.4,1.1,0,1.6c0.2,0.2,0.5,0.3,0.8,0.3
			c0.3,0,0.6-0.1,0.8-0.3l45.1-45.1C383.2,157,383.2,156.3,382.8,155.8z"/>
		<path class="st3" d="M299.5,237.5l-31.3,31.3c-0.4,0.4-0.4,1.1,0,1.6c0.2,0.2,0.5,0.3,0.8,0.3s0.6-0.1,0.8-0.3l31.3-31.3
			c0.4-0.4,0.4-1.1,0-1.6C300.7,237,299.9,237.1,299.5,237.5z"/>
		<path class="st3" d="M342,226.1c0.3,0,0.6-0.1,0.8-0.3l56.2-56.2c0.4-0.4,0.4-1.1,0-1.6c-0.4-0.5-1.1-0.4-1.6,0l-56.2,56.2
			c-0.5,0.4-0.5,1.1,0,1.6C341.4,226,341.7,226.1,342,226.1z"/>
		<path class="st3" d="M493.61,73.3c0.2,0.2,0.5,0.3,0.8,0.3s0.6-0.1,0.8-0.3l72.5-72.5l0.8-0.8h-3.2l-71.7,71.7
			C493.21,72.1,493.21,72.8,493.61,73.3z"/>
		<path class="st3" d="M163.7,404.31c0.3,0,0.6-0.1,0.8-0.3l162.6-162.6c0.4-0.4,0.4-1.1,0-1.6c-0.4-0.5-1.1-0.4-1.6,0l-162.6,162.7
			c-0.5,0.4-0.5,1.1,0,1.5C163.1,404.21,163.4,404.31,163.7,404.31z"/>
		<path class="st3" d="M186.4,408.91c-0.4-0.4-1.1-0.4-1.6,0L26.5,567.21c-0.4,0.4-0.4,1.2,0,1.6c0.2,0.2,0.5,0.3,0.8,0.3
			s0.6-0.1,0.8-0.3l158.3-158.3C186.8,410.11,186.8,409.41,186.4,408.91z"/>
		<path class="st3" d="M217.4,378.91c0.3,0,0.6,0,0.8-0.3l9.4-9.4c0.4-0.4,0.4-1.1,0-1.6c-0.4-0.5-1.1-0.4-1.6,0l-9.4,9.4
			c-0.4,0.4-0.4,1.1,0,1.6C216.8,378.81,217.1,378.91,217.4,378.91z"/>
		<path class="st3" d="M353,272.2l13.4-13.4c0.4-0.4,0.4-1.1,0-1.6c-0.4-0.5-1.1-0.4-1.6,0l-13.4,13.4c-0.4,0.4-0.4,1.1,0,1.6
			c0.2,0.2,0.5,0.3,0.8,0.3S352.8,272.4,353,272.2z"/>
		<path class="st3" d="M602.91,21.9c0.3,0,0.6-0.1,0.8-0.3l20.7-20.7l0.8-0.8h-3.2l-6.3,6.3l-4,4l-9.6,9.6c-0.4,0.4-0.4,1.1,0,1.6
			C602.31,21.8,602.61,21.9,602.91,21.9z"/>
		<path class="st3" d="M555.21,68.4c0.3,0.2,0.5,0.3,0.8,0.3s0.6-0.1,0.8-0.3l37.8-37.8c0.4-0.4,0.4-1.1,0-1.6s-1.2-0.4-1.6,0
			l-37.8,37.8C554.81,67.2,554.81,68,555.21,68.4z"/>
		<path class="st3" d="M619.11,61.2c0.3,0.2,0.5,0.3,0.8,0.3s0.6-0.1,0.8-0.3l37.8-37.8c0.4-0.4,0.4-1.1,0-1.6s-1.2-0.4-1.6,0
			l-37.8,37.8C618.71,60,618.71,60.8,619.11,61.2z"/>
		<path class="st3" d="M500.61,121.5l-66.1,66.1c-0.5,0.4-0.5,1.1,0,1.6c0.2,0.2,0.5,0.3,0.8,0.3s0.6-0.1,0.8-0.3l66.1-66.1
			c0.4-0.4,0.4-1.2,0-1.6C501.81,121.1,501.11,121.1,500.61,121.5z"/>
		<path class="st3" d="M131.3,490.71l-10.1,10.1c-0.4,0.4-0.4,1.1,0,1.6c0.2,0.2,0.5,0.3,0.8,0.3c0.3,0,0.6,0,0.8-0.3l10.1-10.1
			c0.4-0.4,0.4-1.1,0-1.6S131.8,490.31,131.3,490.71z"/>
		<path class="st3" d="M380.5,271.4c-0.4-0.4-1.1-0.4-1.6,0l-118.5,118.6c-0.4,0.4-0.4,1.1,0,1.6c0.2,0.2,0.5,0.3,0.8,0.3
			s0.6-0.1,0.8-0.3L380.6,273C381,272.6,381,271.9,380.5,271.4z"/>
		<path class="st5" d="M246.3,405.61c-0.4-0.4-1.1-0.4-1.6,0l-101.1,101.1c-0.4,0.4-0.4,1.1,0,1.6c0.2,0.2,0.5,0.3,0.8,0.3
			s0.6-0.1,0.8-0.3l101.1-101.1C246.8,406.81,246.8,406.11,246.3,405.61z"/>
		<path class="st3" d="M193.3,485.41l-39.3,39.3c-0.4,0.4-0.4,1.2,0,1.6c0.2,0.2,0.5,0.3,0.8,0.3c0.3,0,0.6-0.1,0.8-0.3l39.3-39.3
			c0.4-0.4,0.4-1.1,0-1.6C194.5,484.91,193.7,485.01,193.3,485.41z"/>
		<path class="st3" d="M541.91,138.4c-0.4-0.4-1.2-0.4-1.6,0l-86.8,86.8c-0.4,0.4-0.4,1.1,0,1.6c0.2,0.2,0.5,0.3,0.8,0.3
			c0.3,0,0.6-0.1,0.8-0.3l86.8-86.8C542.41,139.5,542.41,138.8,541.91,138.4z"/>
		<path class="st3" d="M364.9,315.4c-0.4-0.4-1.1-0.4-1.6,0l-121.1,121.1c-0.4,0.4-0.4,1.1,0,1.6c0.2,0.2,0.5,0.3,0.8,0.3
			c0.3,0,0.6-0.1,0.8-0.3L364.9,317C365.4,316.6,365.4,315.8,364.9,315.4z"/>
		<path class="st3" d="M135.4,573.31c-0.4-0.4-1.1-0.4-1.6,0l-47,47c-0.5,0.4-0.5,1.1,0,1.6c0.2,0.2,0.5,0.3,0.8,0.3
			s0.6-0.1,0.8-0.3l47-47C135.8,574.51,135.8,573.71,135.4,573.31z"/>
		<path class="st3" d="M386.1,323.7c0.3,0,0.6-0.1,0.8-0.3l68.1-68.1c0.4-0.4,0.4-1.1,0-1.6c-0.4-0.5-1.1-0.4-1.6,0l-68.1,68.1
			c-0.4,0.4-0.4,1.1,0,1.6C385.5,323.6,385.8,323.7,386.1,323.7z"/>
		<path class="st3" d="M514.61,192.5l-13.6,13.6c-0.4,0.4-0.4,1.1,0,1.6c0.2,0.2,0.5,0.3,0.8,0.3s0.6-0.1,0.8-0.3l13.6-13.6
			c0.4-0.4,0.4-1.1,0-1.6C515.71,192,515.01,192,514.61,192.5z"/>
		<path class="st3" d="M682.01,53.4l-17.4,17.4c-0.4,0.4-0.4,1.2,0,1.6c0.3,0.1,0.6,0.2,0.9,0.2c0.3,0,0.6-0.1,0.8-0.3l17.3-17.3
			c0.4-0.4,0.4-1.2,0-1.6S682.41,53,682.01,53.4z"/>
		<path class="st3" d="M34.3,702.71c-0.4-0.4-1.2-0.4-1.6,0l-28.3,28.3l-0.8,0.8l-3.6,3.6v1.6h1.6l32.7-32.7
			C34.7,703.91,34.7,703.21,34.3,702.71z"/>
		<path class="st3" d="M143.7,594.51c0.3,0,0.6-0.1,0.8-0.3l8.3-8.3c0.4-0.4,0.4-1.2,0-1.6s-1.1-0.4-1.6,0l-8.3,8.3
			c-0.4,0.4-0.4,1.2,0,1.6C143.1,594.41,143.4,594.51,143.7,594.51z"/>
		<path class="st5" d="M455.5,282.6c0.3,0,0.6-0.1,0.8-0.3l118.8-118.8c0.4-0.4,0.4-1.1,0-1.6s-1.2-0.4-1.6,0L454.7,280.7
			c-0.4,0.5-0.4,1.2,0,1.6C454.9,282.5,455.2,282.6,455.5,282.6z"/>
		<path class="st3" d="M528.91,234.8l-177,177.1c-0.4,0.4-0.4,1.1,0,1.6c0.2,0.2,0.5,0.3,0.8,0.3s0.6-0.1,0.8-0.3l177.1-177.1
			c0.4-0.4,0.4-1.1,0-1.6S529.41,234.4,528.91,234.8z"/>
		<path class="st3" d="M109.6,655.81c-0.4-0.4-1.2-0.4-1.6,0l-80.5,80.5l-0.7,0.7H30l79.6-79.6C110,656.91,110,656.21,109.6,655.81z
			"/>
		<path class="st3" d="M670.51,93.3l-58.9,58.9c-0.4,0.4-0.4,1.1,0,1.6c0.2,0.2,0.5,0.3,0.8,0.3s0.6-0.1,0.8-0.3l58.9-58.9
			c0.4-0.4,0.4-1.2,0-1.6C671.61,92.9,670.91,92.9,670.51,93.3z"/>
		<path class="st3" d="M340.7,423.01l-68.1,68.1c-0.4,0.4-0.4,1.1,0,1.6c0.2,0.2,0.5,0.3,0.8,0.3s0.6,0,0.8-0.3l68.1-68.1
			c0.4-0.4,0.4-1.1,0-1.6C341.9,422.51,341.2,422.61,340.7,423.01z"/>
		<path class="st3" d="M598.41,165.4l-58,58c-0.4,0.4-0.4,1.1,0,1.6c0.2,0.2,0.5,0.3,0.8,0.3s0.6-0.1,0.8-0.3l58-58
			c0.4-0.4,0.4-1.1,0-1.6S598.81,165,598.41,165.4z"/>
		<path class="st3" d="M497.61,296.1c-0.4-0.4-1.1-0.4-1.6,0l-24.2,24.2c-0.4,0.4-0.4,1.1,0,1.6c0.2,0.2,0.5,0.3,0.8,0.3
			s0.6-0.1,0.8-0.3l24.2-24.2C498.11,297.2,498.11,296.5,497.61,296.1z"/>
		<path class="st3" d="M222.3,571.41c-0.4-0.4-1.1-0.4-1.6,0l-96.4,96.5c-0.4,0.4-0.4,1.2,0,1.6c0.2,0.2,0.5,0.3,0.8,0.3
			c0.3,0,0.6-0.1,0.8-0.3l96.4-96.5C222.8,572.51,222.8,571.81,222.3,571.41z"/>
		<path class="st1" d="M72.46,722.46c-0.3,0-0.6-0.1-0.8-0.3c-0.4-0.4-0.4-1.2,0-1.6l31.72-31.72c-0.1,0.05-0.2,0.1-0.28,0.17
			l-47.2,47.2l-0.8,0.8h3.2l14.68-14.68C72.82,722.4,72.65,722.46,72.46,722.46z"/>
		<path class="st3" d="M236.4,558.91l80.6-80.6c0.4-0.4,0.4-1.1,0-1.6c-0.4-0.5-1.1-0.4-1.6,0l-80.6,80.6c-0.5,0.5-0.5,1.2,0,1.6
			c0.2,0.2,0.5,0.3,0.8,0.3C235.9,559.21,236.2,559.11,236.4,558.91z"/>
		<path class="st3" d="M630.31,192.9c0.3,0,0.6-0.1,0.8-0.3l43.3-43.3c0.4-0.4,0.4-1.1,0-1.6c-0.4-0.5-1.2-0.4-1.6,0l-43.3,43.3
			c-0.4,0.4-0.4,1.1,0,1.6C629.81,192.7,630.01,192.9,630.31,192.9z"/>
		<path class="st2" d="M115.5,706.61c-0.4-0.4-1.2-0.4-1.6,0l-29.7,29.7l-0.7,0.7h3.2l28.8-28.8
			C115.9,707.71,115.9,707.01,115.5,706.61z"/>
		<path class="st3" d="M484.11,337.9c0.2,0.2,0.5,0.3,0.8,0.3s0.6-0.1,0.8-0.3l68.9-68.9c0.4-0.4,0.4-1.1,0-1.6
			c-0.4-0.5-1.2-0.4-1.6,0l-68.9,68.9C483.71,336.8,483.71,337.5,484.11,337.9z"/>
		<path class="st3" d="M578.11,245.1c0.3,0,0.6-0.1,0.8-0.3l14-14c0.4-0.4,0.4-1.1,0-1.6c-0.4-0.5-1.2-0.4-1.6,0l-14,14
			c-0.4,0.4-0.4,1.1,0,1.6C577.51,245,577.81,245.1,578.11,245.1z"/>
		<path class="st3" d="M221.7,600.41c0.2,0.2,0.5,0.3,0.8,0.3s0.6-0.1,0.8-0.3L460,363.7c0.4-0.4,0.4-1.1,0-1.6
			c-0.4-0.5-1.1-0.4-1.6,0l-236.7,236.7C221.2,599.21,221.2,599.91,221.7,600.41z"/>
		<path class="st3" d="M475.91,375.6c0.3,0,0.6-0.1,0.8-0.3l64.5-64.5c0.4-0.4,0.4-1.1,0-1.6s-1.2-0.4-1.6,0l-64.5,64.5
			c-0.4,0.4-0.4,1.1,0,1.6C475.41,375.5,475.61,375.6,475.91,375.6z"/>
		<path class="st3" d="M327.6,521.21l-15.5,15.5c-0.4,0.4-0.4,1.2,0,1.6c0.2,0.2,0.5,0.3,0.8,0.3s0.6-0.1,0.8-0.3l15.5-15.5
			c0.4-0.4,0.4-1.2,0-1.6C328.8,520.81,328.1,520.71,327.6,521.21z"/>
		<path class="st3" d="M201.9,648.51c-0.4-0.4-1.1-0.4-1.6,0l-40.6,40.7c-0.4,0.4-0.4,1.2,0,1.6c0.2,0.2,0.5,0.3,0.8,0.3
			s0.6-0.1,0.8-0.3l40.6-40.7C202.3,649.71,202.3,649.01,201.9,648.51z"/>
		<path class="st3" d="M152.3,698.11c-0.4-0.4-1.1-0.4-1.6,0l-38.1,38.1l-0.8,0.8h3.2l37.3-37.3
			C152.8,699.21,152.8,698.51,152.3,698.11z"/>
		<path class="st3" d="M212.1,639.81l26.5-26.5c0.4-0.4,0.4-1.2,0-1.6c-0.4-0.4-1.1-0.4-1.6,0l-26.5,26.5c-0.4,0.4-0.4,1.2,0,1.6
			c0.2,0.2,0.5,0.3,0.8,0.3C211.6,640.11,211.9,640.01,212.1,639.81z"/>
		<path class="st3" d="M304.1,546.21c-0.4-0.4-1.1-0.4-1.6,0l-45,45c-0.4,0.4-0.4,1.2,0,1.6c0.2,0.2,0.5,0.3,0.8,0.3
			s0.6-0.1,0.8-0.3l45-45C304.6,547.41,304.6,546.71,304.1,546.21z"/>
		<path class="st3" d="M449.4,399.41l-99,99c-0.4,0.4-0.4,1.1,0,1.6c0.2,0.2,0.5,0.3,0.8,0.3s0.6-0.1,0.8-0.3l99-99
			c0.4-0.4,0.4-1.1,0-1.6C450.5,399.01,449.8,399.01,449.4,399.41z"/>
		<path class="st3" d="M200.9,677.81c0.2,0.2,0.5,0.3,0.8,0.3s0.6-0.1,0.8-0.3l100.6-100.6c0.4-0.4,0.4-1.2,0-1.6
			c-0.4-0.4-1.1-0.4-1.6,0l-100.6,100.6C200.5,676.71,200.5,677.41,200.9,677.81z"/>
		<path class="st3" d="M193.1,685.61c-0.4-0.4-1.1-0.4-1.6,0l-50.6,50.6l-0.8,0.8h3.2l49.8-49.8
			C193.5,686.81,193.5,686.11,193.1,685.61z"/>
		<path class="st3" d="M674.41,202.8l-33,33.1c-0.4,0.4-0.4,1.1,0,1.6c0.2,0.2,0.5,0.3,0.8,0.3s0.6-0.1,0.8-0.3l33-33.1
			c0.4-0.4,0.4-1.1,0-1.6C675.51,202.4,674.81,202.4,674.41,202.8z"/>
		<path class="st3" d="M390.7,514.81l-25.5,25.5c-0.4,0.4-0.4,1.2,0,1.6c0.2,0.2,0.5,0.3,0.8,0.3s0.6-0.1,0.8-0.3l25.5-25.5
			c0.4-0.4,0.4-1.2,0-1.6C391.9,514.31,391.2,514.31,390.7,514.81z"/>
		<path class="st3" d="M212.5,693.01l-20.3,20.3c-0.4,0.4-0.4,1.2,0,1.6c0.2,0.2,0.5,0.3,0.8,0.3c0.3,0,0.6-0.1,0.8-0.3l20.3-20.3
			c0.4-0.4,0.4-1.2,0-1.6S212.9,692.61,212.5,693.01z"/>
		<path class="st3" d="M311,707.91l-20.3,20.3c-0.4,0.4-0.4,1.2,0,1.6c0.2,0.2,0.5,0.3,0.8,0.3s0.6-0.1,0.8-0.3l20.3-20.3
			c0.4-0.4,0.4-1.2,0-1.6C312.2,707.51,311.4,707.51,311,707.91z"/>
		<path class="st3" d="M304.3,601.21l-44.9,44.9c-0.4,0.4-0.4,1.2,0,1.6c0.2,0.2,0.5,0.3,0.8,0.3s0.6-0.1,0.8-0.3l44.9-44.9
			c0.4-0.4,0.4-1.2,0-1.6C305.5,600.81,304.7,600.81,304.3,601.21z"/>
		<path class="st4" d="M261.5,674.01c-0.4-0.4-1.1-0.4-1.6,0l-62.3,62.3l-0.7,0.7h3.2l61.3-61.4
			C261.9,675.11,261.9,674.41,261.5,674.01z"/>
		<path class="st3" d="M584.21,352.4c0.3,0,0.6-0.1,0.8-0.3l50.5-50.5c0.4-0.4,0.4-1.1,0-1.6s-1.2-0.4-1.6,0l-50.5,50.5
			c-0.4,0.4-0.4,1.1,0,1.6C583.61,352.3,583.91,352.4,584.21,352.4z"/>
		<path class="st3" d="M314.2,649.61c-0.4-0.4-1.1-0.4-1.6,0l-86.6,86.6l-0.8,0.8h3.2l85.8-85.8
			C314.6,650.81,314.6,650.01,314.2,649.61z"/>
		<path class="st3" d="M519.51,445.91l41.5-41.5c0.4-0.4,0.4-1.1,0-1.6c-0.4-0.5-1.2-0.4-1.6,0l-41.5,41.5c-0.4,0.4-0.4,1.1,0,1.6
			c0.2,0.2,0.5,0.3,0.8,0.3S519.21,446.11,519.51,445.91z"/>
		<path class="st3" d="M339.8,625.51l46-46c0.4-0.4,0.4-1.2,0-1.6c-0.4-0.4-1.1-0.4-1.6,0l-46,46c-0.4,0.4-0.4,1.2,0,1.6
			c0.2,0.2,0.5,0.3,0.8,0.3S339.6,625.81,339.8,625.51z"/>
		<path class="st3" d="M482.31,483.01l16.3-16.3c0.4-0.4,0.4-1.1,0-1.6c-0.4-0.5-1.1-0.4-1.6,0l-16.3,16.3c-0.4,0.4-0.4,1.1,0,1.6
			c0.2,0.2,0.5,0.3,0.8,0.3S482.11,483.31,482.31,483.01z"/>
		<path class="st3" d="M505.41,486.71c0.2,0.2,0.5,0.3,0.8,0.3s0.6-0.1,0.8-0.3l36.2-36.2c0.4-0.4,0.4-1.1,0-1.6s-1.2-0.4-1.6,0
			l-36.2,36.2C505.01,485.61,505.01,486.31,505.41,486.71z"/>
		<path class="st3" d="M264.9,727.21c-0.4-0.4-1.1-0.4-1.6,0l-3.8,3.8l-2.1,2.1l-3.1,3.1l-0.8,0.8h3.2l8.2-8.2
			C265.4,728.41,265.4,727.71,264.9,727.21z"/>
		<path class="st3" d="M370.4,648.51l-43.4,43.3c-0.4,0.4-0.4,1.2,0,1.6c0.2,0.2,0.5,0.3,0.8,0.3s0.6-0.1,0.8-0.3l43.3-43.3
			c0.4-0.4,0.4-1.2,0-1.6C371.5,648.11,370.8,648.11,370.4,648.51z"/>
		<path class="st3" d="M527.21,493.31c0.2,0.2,0.5,0.3,0.8,0.3s0.6-0.1,0.8-0.3l81.6-81.6c0.4-0.4,0.4-1.1,0-1.6s-1.2-0.4-1.6,0
			l-81.6,81.6C526.81,492.11,526.81,492.81,527.21,493.31z"/>
		<path class="st3" d="M486.51,535.61c0.4-0.4,0.4-1.2,0-1.6c-0.4-0.4-1.1-0.4-1.6,0l-33.5,33.5c-0.4,0.4-0.4,1.2,0,1.6
			c0.2,0.2,0.5,0.3,0.8,0.3s0.6-0.1,0.8-0.3L486.51,535.61z"/>
		<path class="st3" d="M423.5,597.01c-0.4-0.4-1.1-0.4-1.6,0l-27.6,27.7c-0.4,0.4-0.4,1.2,0,1.6c0.2,0.2,0.5,0.3,0.8,0.3
			s0.6-0.1,0.8-0.3l27.6-27.7C423.9,598.21,423.9,597.51,423.5,597.01z"/>
		<path class="st3" d="M552.11,495.11l-88.7,88.7c-0.4,0.4-0.4,1.2,0,1.6c0.2,0.2,0.5,0.3,0.8,0.3s0.6-0.1,0.8-0.3l88.7-88.7
			c0.4-0.4,0.4-1.1,0-1.6C553.31,494.71,552.61,494.71,552.11,495.11z"/>
		<path class="st6" d="M403.6,645.21c-0.4-0.4-1.1-0.4-1.6,0l-91,91l-0.8,0.8h3.2l90.2-90.2C404,646.41,404,645.71,403.6,645.21z"/>
		<path class="st3" d="M441.5,605.71l-28.5,28.5c-0.4,0.4-0.4,1.2,0,1.6c0.2,0.2,0.5,0.3,0.8,0.3s0.6-0.1,0.8-0.3l28.5-28.5
			c0.4-0.4,0.4-1.2,0-1.6C442.6,605.31,441.9,605.31,441.5,605.71z"/>
		<path class="st3" d="M637.21,412.81c0.3,0,0.6-0.1,0.8-0.3l31-31c0.4-0.4,0.4-1.1,0-1.6s-1.2-0.4-1.6,0l-31,31
			c-0.4,0.4-0.4,1.1,0,1.6C636.61,412.61,636.91,412.81,637.21,412.81z"/>
		<path class="st3" d="M370.3,706.81c-0.4-0.4-1.1-0.4-1.6,0l-29.4,29.4l-0.8,0.8h3.2l28.6-28.6
			C370.8,708.01,370.8,707.31,370.3,706.81z"/>
		<path class="st3" d="M585.01,520.51c-0.4-0.4-1.2-0.4-1.6,0l-215.7,215.7l-0.8,0.8h3.2l214.9-214.9
			C585.51,521.61,585.51,520.91,585.01,520.51z"/>
		<path class="st3" d="M411.9,722.01c-0.4-0.4-1.1-0.4-1.6,0l-14.3,14.3l-0.7,0.7h3.2l13.4-13.4
			C412.3,723.11,412.3,722.41,411.9,722.01z"/>
		<path class="st3" d="M550.21,583.71c-0.4-0.4-1.2-0.5-1.6,0l-104.7,104.7c-0.4,0.4-0.4,1.2,0,1.6c0.2,0.2,0.5,0.3,0.8,0.3
			s0.6-0.1,0.8-0.3l104.7-104.7C550.61,584.91,550.61,584.11,550.21,583.71z"/>
		<path class="st5" d="M606.91,527.01c0.2,0.2,0.5,0.3,0.8,0.3s0.6-0.1,0.8-0.3l93-93c0.4-0.4,0.4-1.1,0-1.6s-1.2-0.4-1.6,0l-93,93
			C606.51,525.81,606.51,526.51,606.91,527.01z"/>
		<path class="st3" d="M463.4,727.11c-0.4-0.4-1.1-0.4-1.6,0l-9.1,9.1l-0.7,0.8h3.2l8.3-8.3C463.9,728.31,463.9,727.61,463.4,727.11
			z"/>
		<path class="st7" d="M94.16,131.15l-5.5,5.5c-0.4,0.4-0.4,1.2,0,1.6c0.2,0.2,0.5,0.3,0.8,0.3c0.3,0,0.6-0.1,0.8-0.3l5.5-5.5
			c0.4-0.4,0.4-1.2,0-1.6C95.36,130.75,94.66,130.75,94.16,131.15z"/>
		<path class="st7" d="M272.06,209.95c0.2,0.2,0.5,0.3,0.8,0.3s0.6-0.1,0.8-0.3l68.84-68.89l4.08-4.08l12.68-12.69
			c-0.19,0.13-0.42,0.21-0.66,0.21c-0.3,0-0.6-0.2-0.8-0.4c-0.37-0.37-0.38-1.06-0.08-1.48l-16.82,16.84l-5.61,5.62l-63.23,63.27
			C271.56,208.75,271.56,209.45,272.06,209.95z"/>
		<path class="st7" d="M408,73.9c0.4,0.4,0.4,1.2,0,1.6l-8.69,8.71l16.25-16.26c0.4-0.4,0.4-1.2,0-1.6c-0.4-0.4-1.1-0.4-1.6,0
			l-7.53,7.54C406.93,73.51,407.61,73.51,408,73.9z"/>
		<path class="st7" d="M491.27,162.35l42.8-42.8c0.01-0.01,0.02-0.04,0.03-0.05l-42.95,42.93
			C491.18,162.4,491.23,162.38,491.27,162.35z"/>
		<path class="st7" d="M79.75,627.35l-73.9,73.9c-0.4,0.4-0.4,1.2,0,1.6c0.2,0.2,0.5,0.3,0.8,0.3s0.6-0.1,0.8-0.3l73.9-73.9
			c0.4-0.4,0.4-1.2,0-1.6C80.95,626.95,80.25,626.95,79.75,627.35z"/>
		<path class="st7" d="M285.46,423.25c-0.4-0.5-1.1-0.5-1.5-0.1l-137.4,137.4c-0.4,0.4-0.4,1.2,0,1.6c0.2,0.2,0.5,0.3,0.8,0.3
			s0.6-0.1,0.8-0.3l137.3-137.3C285.86,424.45,285.86,423.75,285.46,423.25z"/>
		<path class="st7" d="M545.07,250.35l18.4-18.4c0.09-0.09,0.15-0.19,0.19-0.3l-18.87,18.87
			C544.89,250.48,544.99,250.43,545.07,250.35z"/>
		<path class="st7" d="M71.66,722.16c0.2,0.2,0.5,0.3,0.8,0.3c0.18,0,0.36-0.05,0.52-0.13c0.1-0.05,0.2-0.1,0.28-0.17l41.3-41.3
			c0.4-0.5,0.4-1.2,0-1.6c-0.4-0.4-1.1-0.4-1.6,0l-9.58,9.58l-31.72,31.72C71.26,720.96,71.26,721.76,71.66,722.16z"/>
		<path class="st7" d="M416.46,549.05l22.9-22.9c0.4-0.4,0.4-1.1,0-1.6c-0.4-0.5-1.1-0.4-1.6,0l-22.9,22.9c-0.5,0.4-0.5,1.1,0,1.6
			c0.2,0.2,0.5,0.3,0.8,0.3S416.27,549.25,416.46,549.05z"/>
		<path class="st7" d="M618.67,541.95l-21.8,21.8c-0.4,0.4-0.4,1.2,0,1.6c0.2,0.2,0.5,0.3,0.8,0.3s0.6-0.1,0.8-0.3l21.8-21.8
			c0.4-0.4,0.4-1.1,0-1.6C619.87,541.55,619.17,541.55,618.67,541.95z"/>
		<path class="st7" d="M579.67,581.05l-73.6,73.6c-0.4,0.4-0.4,1.2,0,1.6c0.2,0.2,0.5,0.3,0.8,0.3s0.6-0.1,0.8-0.3l73.6-73.6
			c0.4-0.4,0.4-1.2,0-1.6C580.77,580.65,580.07,580.65,579.67,581.05z"/>
		<path class="st7" d="M445.67,714.96l-16.2,16.2c-0.4,0.4-0.4,1.2,0,1.6c0.2,0.2,0.5,0.3,0.8,0.3s0.6-0.1,0.8-0.3l16.2-16.2
			c0.4-0.4,0.4-1.2,0-1.6C446.87,714.56,446.17,714.56,445.67,714.96z"/>
		<path class="st3" d="M567.01,651.91c-0.4-0.4-1.2-0.4-1.6,0l-84.3,84.3l-0.8,0.8h3.2l83.5-83.5
			C567.51,653.01,567.51,652.31,567.01,651.91z"/>
		<path class="st2" d="M551.11,696.21c-0.4-0.4-1.2-0.4-1.6,0l-40,40l-0.8,0.8h3.2l39.2-39.2
			C551.51,697.31,551.51,696.61,551.11,696.21z"/>
		<path class="st3" d="M568.31,677.41l-10.5,10.5c-0.4,0.4-0.4,1.2,0,1.6c0.2,0.2,0.5,0.3,0.8,0.3s0.6-0.1,0.8-0.3l10.5-10.5
			c0.4-0.4,0.4-1.2,0-1.6C569.51,676.91,568.71,676.91,568.31,677.41z"/>
		<path class="st3" d="M567.21,708.41c-0.4-0.4-1.2-0.4-1.6,0l-27.8,27.8l-0.8,0.8h3.2l27-27
			C567.61,709.61,567.61,708.91,567.21,708.41z"/>
		<path class="st8" d="M108.4,63.3c0.4-0.4,0.4-1.1,0-1.6c-0.4-0.4-1.2-0.4-1.6,0L87.2,81.3c-0.4,0.4-0.4,1.2,0,1.6
			c0.2,0.2,0.5,0.3,0.8,0.3c0.3,0,0.6-0.1,0.8-0.3L108.4,63.3z"/>
		<path class="st8" d="M173.6,82.6c0.3,0,0.6-0.1,0.8-0.3l16.1-16.1c0.4-0.4,0.4-1.2,0-1.6c-0.4-0.4-1.1-0.4-1.6,0l-16.1,16.1
			c-0.4,0.4-0.4,1.2,0,1.6C173,82.5,173.3,82.6,173.6,82.6z"/>
		<path class="st8" d="M98.1,213.7c-0.4-0.4-1.2-0.4-1.6,0l-79.2,79.2c-0.4,0.4-0.4,1.1,0,1.6c0.2,0.2,0.5,0.3,0.8,0.3
			c0.3,0,0.6-0.1,0.8-0.3l79.2-79.2C98.6,214.8,98.6,214.1,98.1,213.7z"/>
		<path class="st8" d="M276.9,92.7c0.3,0,0.6-0.1,0.8-0.3l26-26c0.4-0.4,0.4-1.2,0-1.6c-0.4-0.4-1.1-0.4-1.6,0l-26,26
			c-0.4,0.4-0.4,1.2,0,1.6C276.3,92.6,276.6,92.7,276.9,92.7z"/>
		<path class="st8" d="M91.7,276.8c0.2,0.2,0.5,0.3,0.8,0.3s0.6-0.1,0.8-0.3l49.9-49.9c0.4-0.4,0.4-1.1,0-1.6s-1.1-0.4-1.6,0
			l-50,49.9C91.3,275.7,91.3,276.4,91.7,276.8z"/>
		<path class="st8" d="M142.1,254.7c0.2,0.2,0.5,0.3,0.8,0.3c0.3,0,0.6-0.1,0.8-0.3L314.2,84.3c0.4-0.4,0.4-1.2,0-1.6
			c-0.4-0.4-1.1-0.4-1.6,0L142.1,253.1C141.7,253.6,141.7,254.3,142.1,254.7z"/>
		<path class="st8" d="M201,254.1l37.3-37.3c0.4-0.4,0.4-1.1,0-1.6s-1.2-0.4-1.6,0l-37.3,37.3c-0.4,0.4-0.4,1.1,0,1.6
			c0.2,0.2,0.5,0.3,0.8,0.3C200.5,254.4,200.8,254.3,201,254.1z"/>
		<path class="st8" d="M357.8,124.1c0.2,0.2,0.5,0.4,0.8,0.4c0.24,0,0.47-0.08,0.66-0.21c0.05-0.03,0.1-0.05,0.14-0.09l39.91-39.99
			L408,75.5c0.4-0.4,0.4-1.2,0-1.6c-0.39-0.39-1.08-0.4-1.57-0.01c-0.01,0.01-0.02,0.01-0.03,0.01l-48.6,48.6
			c-0.03,0.03-0.05,0.08-0.08,0.12C357.42,123.05,357.44,123.74,357.8,124.1z"/>
		<path class="st8" d="M82.3,398.01l-8,8c-0.4,0.4-0.4,1.1,0,1.6c0.2,0.2,0.5,0.3,0.8,0.3c0.3,0,0.6-0.1,0.8-0.3l8-8
			c0.4-0.4,0.4-1.1,0-1.6C83.5,397.51,82.7,397.61,82.3,398.01z"/>
		<path class="st8" d="M183,298.9c0.2,0.2,0.5,0.3,0.8,0.3c0.3,0,0.6-0.1,0.8-0.3l42.4-42.4c0.4-0.4,0.4-1.2,0-1.6
			c-0.4-0.4-1.2-0.4-1.6,0L183,297.3C182.6,297.7,182.6,298.4,183,298.9z"/>
		<path class="st8" d="M406.1,160.8c0.2,0.2,0.5,0.3,0.8,0.3s0.6-0.1,0.8-0.3l78.5-78.5c0.4-0.4,0.4-1.2,0-1.6
			c-0.4-0.4-1.1-0.4-1.6,0l-78.5,78.5C405.6,159.7,405.6,160.4,406.1,160.8z"/>
		<path class="st8" d="M271.8,321.9l-13.9,13.9c-0.4,0.4-0.4,1.1,0,1.6c0.2,0.2,0.5,0.3,0.8,0.3s0.6-0.1,0.8-0.3l13.9-13.9
			c0.4-0.4,0.4-1.1,0-1.6C273,321.4,272.3,321.5,271.8,321.9z"/>
		<path class="st8" d="M453.8,141.4c-0.4-0.5-1.1-0.4-1.6,0L287.5,306.2c-0.5,0.5-0.5,1.2,0,1.6c0.2,0.2,0.5,0.3,0.8,0.3
			c0.3,0,0.6-0.1,0.8-0.3L453.8,143C454.2,142.6,454.2,141.9,453.8,141.4z"/>
		<path class="st8" d="M141.6,482.11c0.2,0.2,0.5,0.3,0.8,0.3c0.3,0,0.6-0.1,0.8-0.3l181-181c0.4-0.4,0.4-1.1,0-1.6
			c-0.4-0.5-1.1-0.4-1.6,0l-181,181C141.1,480.91,141.1,481.61,141.6,482.11z"/>
		<path class="st8" d="M84.9,538.71c-0.4-0.4-1.2-0.4-1.6,0l-20.1,20.1c-0.4,0.4-0.4,1.2,0,1.6c0.2,0.2,0.5,0.3,0.8,0.3
			c0.3,0,0.6-0.1,0.8-0.3l20.1-20.1C85.4,539.81,85.4,539.11,84.9,538.71z"/>
		<path class="st8" d="M422.2,256.5l-24.9,24.9c-0.4,0.4-0.4,1.1,0,1.6c0.2,0.2,0.5,0.3,0.8,0.3s0.6-0.1,0.8-0.3l24.9-24.9
			c0.4-0.4,0.4-1.1,0-1.6C423.4,256,422.7,256.1,422.2,256.5z"/>
		<path class="st8" d="M230.9,447.81l-26.3,26.3c-0.4,0.4-0.4,1.1,0,1.6c0.2,0.2,0.5,0.3,0.8,0.3c0.3,0,0.6-0.1,0.8-0.3l26.3-26.3
			c0.4-0.4,0.4-1.1,0-1.6C232.1,447.31,231.3,447.41,230.9,447.81z"/>
		<path class="st8" d="M70.9,610.51c0.3,0,0.6-0.1,0.8-0.3l48.7-48.6c0.4-0.5,0.4-1.2,0-1.6c-0.4-0.4-1.2-0.4-1.6,0l-48.7,48.6
			c-0.4,0.4-0.4,1.2,0,1.6C70.3,610.41,70.6,610.51,70.9,610.51z"/>
		<path class="st8" d="M309.7,400.61l21.9-21.9c0.4-0.4,0.4-1.1,0-1.6c-0.4-0.5-1.1-0.4-1.6,0l-21.9,21.9c-0.4,0.4-0.4,1.1,0,1.6
			c0.2,0.2,0.5,0.3,0.8,0.3S309.5,400.81,309.7,400.61z"/>
		<path class="st8" d="M375.8,419.51l59.6-59.6c0.4-0.4,0.4-1.1,0-1.6c-0.4-0.5-1.1-0.4-1.6,0l-59.6,59.6c-0.4,0.4-0.4,1.1,0,1.6
			c0.2,0.2,0.5,0.3,0.8,0.3S375.6,419.71,375.8,419.51z"/>
		<path class="st8" d="M558.31,293.2c0.3,0,0.6-0.1,0.8-0.3l130.2-130.2c0.4-0.4,0.4-1.1,0-1.6c-0.4-0.5-1.2-0.4-1.6,0l-130.2,130.2
			c-0.4,0.4-0.4,1.1,0,1.6C557.71,293.1,558.01,293.2,558.31,293.2z"/>
		<path class="st8" d="M569.71,307.5l-157.4,157.3c-0.4,0.4-0.4,1.1,0,1.6c0.2,0.2,0.5,0.3,0.8,0.3s0.6-0.1,0.8-0.3L571.31,309
			c0.4-0.4,0.4-1.1,0-1.6C570.81,307,570.11,307,569.71,307.5z"/>
		<path class="st8" d="M395.3,483.51c-0.4-0.4-1.1-0.4-1.6,0l-83.6,83.5c-0.4,0.4-0.4,1.2,0,1.6c0.2,0.2,0.5,0.3,0.8,0.3
			s0.6-0.1,0.8-0.3l83.6-83.6C395.7,484.61,395.7,483.91,395.3,483.51z"/>
		<path class="st8" d="M621.61,255.6l-34,34c-0.4,0.4-0.4,1.1,0,1.6c0.2,0.2,0.5,0.3,0.8,0.3s0.6-0.1,0.8-0.3l34-34
			c0.4-0.4,0.4-1.1,0-1.6C622.71,255.2,622.01,255.2,621.61,255.6z"/>
		<path class="st8" d="M322.4,613.11c0.2,0.2,0.5,0.3,0.8,0.3s0.6-0.1,0.8-0.3l252-252.1c0.4-0.4,0.4-1.1,0-1.6
			c-0.4-0.5-1.2-0.4-1.6,0l-252,252.1C321.9,611.91,321.9,612.71,322.4,613.11z"/>
		<path class="st8" d="M553.01,439.11c0.2,0.2,0.5,0.3,0.8,0.3s0.6-0.1,0.8-0.3l28.3-28.3c0.4-0.4,0.4-1.1,0-1.6s-1.2-0.4-1.6,0
			l-28.3,28.3C552.51,438.01,552.51,438.71,553.01,439.11z"/>
		<path class="st8" d="M594.81,511.91c0.3,0,0.6-0.1,0.8-0.3l36.4-36.4c0.4-0.4,0.4-1.1,0-1.6s-1.2-0.4-1.6,0l-36.4,36.4
			c-0.4,0.4-0.4,1.1,0,1.6C594.21,511.81,594.51,511.91,594.81,511.91z"/>
		<path class="st8" d="M641.71,464.91c0.3,0,0.6-0.1,0.8-0.3l35.9-35.9c0.4-0.4,0.4-1.1,0-1.6s-1.2-0.4-1.6,0l-35.9,35.9
			c-0.4,0.4-0.4,1.1,0,1.6C641.11,464.81,641.41,464.91,641.71,464.91z"/>
		<path class="st8" d="M683.21,477.41l-7.9,7.9c-0.4,0.4-0.4,1.1,0,1.6c0.2,0.2,0.5,0.3,0.8,0.3s0.6-0.1,0.8-0.3l7.9-7.9
			c0.4-0.4,0.4-1.1,0-1.6C684.31,477.01,683.61,477.01,683.21,477.41z"/>
		<path class="st8" d="M641.31,607.11c0.3,0,0.6-0.1,0.8-0.3l9.1-9.1c0.4-0.4,0.4-1.2,0-1.6c-0.4-0.4-1.2-0.4-1.6,0l-9.1,9.1
			c-0.4,0.4-0.4,1.2,0,1.6C640.71,607.01,641.01,607.11,641.31,607.11z"/>
		<path class="st8" d="M710.41,563.71l-17.7,17.7c-0.4,0.4-0.4,1.2,0,1.6c0.2,0.1,0.5,0.3,0.8,0.3s0.6-0.1,0.8-0.3l17.7-17.7
			c0.4-0.4,0.4-1.2,0-1.6C711.61,563.31,710.81,563.31,710.41,563.71z"/>
		<path class="st8" d="M602.21,671.81l-20.1,20.1c-0.4,0.4-0.4,1.2,0,1.6c0.2,0.2,0.5,0.3,0.8,0.3s0.6-0.1,0.8-0.3l20.1-20.1
			c0.4-0.4,0.4-1.2,0-1.6C603.31,671.41,602.61,671.41,602.21,671.81z"/>
		<path class="st8" d="M625.15,707.16c0.2,0.2,0.5,0.3,0.8,0.3s0.6-0.1,0.8-0.3l20.1-20.1c0.4-0.4,0.4-1.2,0-1.6
			c-0.5-0.4-1.2-0.4-1.6,0l-20.1,20.1C624.75,705.96,624.75,706.76,625.15,707.16z"/>
		<path class="st3" d="M615.51,688.41c-0.4-0.4-1.2-0.4-1.6,0l-47.8,47.8l-0.8,0.8h3.2l47-47
			C616.01,689.61,616.01,688.91,615.51,688.41z"/>
		<path class="st3" d="M656.91,676.51c0.3,0,0.6-0.1,0.8-0.3l2.4-2.4c0.4-0.4,0.4-1.2,0-1.6c-0.4-0.4-1.2-0.4-1.6,0l-2.4,2.4
			c-0.4,0.4-0.4,1.2,0,1.6C656.31,676.41,656.61,676.51,656.91,676.51z"/>
		<path class="st3" d="M692.1,723.59l-2.4,2.4c-0.4,0.4-0.4,1.2,0,1.6c0.2,0.2,0.5,0.3,0.8,0.3c0.3,0,0.6-0.1,0.8-0.3l2.4-2.4
			c0.4-0.4,0.4-1.2,0-1.6S692.5,723.19,692.1,723.59z"/>
		<polygon class="st3" points="622.81,736.21 622.01,737.01 625.21,737.01 737.01,625.21 737.01,622.01 736.21,622.81 		"/>
		<path class="st9" d="M661.31,727.71c0.2,0.2,0.5,0.3,0.8,0.3s0.6-0.1,0.8-0.3l74.1-74.1v-3.2l-0.8,0.8l-74.9,74.9
			C660.91,726.51,660.91,727.31,661.31,727.71z"/>
		<path class="st3" d="M703.71,712.01c-0.4,0.4-0.4,1.2,0,1.6c0.2,0.2,0.5,0.3,0.8,0.3s0.6-0.1,0.8-0.3l31.7-31.7v-3.2l-0.8,0.8
			L703.71,712.01z"/>
		<polygon class="st3" points="29.1,0.8 29.9,0 26.8,0 16.4,10.4 3.3,23.5 0,26.8 0,29.9 0.8,29.1 		"/>
		<path class="st10" d="M4.9,53.4l16.9-16.9c0.4-0.4,0.4-1.2,0-1.6s-1.1-0.4-1.6,0L3.3,51.8L0,55.1v3.2l0.8-0.8L4.9,53.4z"/>
		<polygon class="st3" points="0,0 0,1.6 1.6,0 		"/>
		<path class="st3" d="M4.9,166.8l45.6-45.6c0.4-0.4,0.4-1.2,0-1.6c-0.4-0.4-1.2-0.4-1.6,0L3.3,165.2L0,168.5v3.2l0.8-0.8L4.9,166.8
			z"/>
		<path class="st3" d="M4.9,195.1l67.6-67.6c0.4-0.4,0.4-1.2,0-1.6c-0.4-0.4-1.2-0.4-1.6,0L3.3,193.5L0,196.8v3.2l0.8-0.8L4.9,195.1
			z"/>
		<path class="st3" d="M44.7,183.7c0.4-0.4,0.4-1.1,0-1.6c-0.4-0.5-1.2-0.4-1.6,0L3.3,221.9L0,225.2v3.2l0.8-0.8L44.7,183.7z"/>
		<path class="st3" d="M103.6,153.1c0.4-0.4,0.4-1.1,0-1.6c-0.4-0.5-1.2-0.4-1.6,0L0,253.5v3.2l4.9-4.9L103.6,153.1z"/>
		<path class="st11" d="M4.9,280.2l44-44c0.4-0.4,0.4-1.1,0-1.6s-1.2-0.4-1.6,0l-44,44L0,281.9v3.2l0.8-0.8L4.9,280.2z"/>
		<path class="st3" d="M89.1,252.7c0.4-0.4,0.4-1.1,0-1.6s-1.2-0.4-1.6,0L3.3,335.3L0,338.6v3.2l0.8-0.8L89.1,252.7z"/>
		<path class="st3" d="M4.9,365.2l18.3-18.3c0.4-0.4,0.4-1.1,0-1.6c-0.4-0.5-1.1-0.4-1.6,0L3.3,363.6L0,366.9v3.2l0.8-0.8L4.9,365.2
			z"/>
		<path class="st12" d="M56.2,370.6c0.4-0.4,0.4-1.1,0-1.6c-0.4-0.5-1.2-0.4-1.6,0l-51.3,51.3l-0.3,0.3l-3,3v3.2l0.8-0.8L56.2,370.6
			z"/>
		<path class="st3" d="M49.1,406.01c0.4-0.4,0.4-1.1,0-1.6s-1.2-0.4-1.6,0L0,452.01v3.2l0.8-0.9L49.1,406.01z"/>
		<path class="st13" d="M4.6,478.91l0.3-0.4l48.5-48.5c0.4-0.4,0.4-1.1,0-1.6c-0.4-0.5-1.2-0.4-1.6,0L0,480.31v3.2l0.8-0.8
			L4.6,478.91z"/>
		<path class="st3" d="M7.4,532.81c0.4-0.4,0.4-1.2,0-1.6s-1.2-0.4-1.6,0l-5.8,5.8v3.2l0.8-0.8L7.4,532.81z"/>
		<path class="st14" d="M108.9,459.61c0.4-0.4,0.4-1.1,0-1.6c-0.4-0.5-1.2-0.4-1.6,0L0,565.31v3.2l0.8-0.8L108.9,459.61z"/>
		<path class="st3" d="M38.6,586.61c0.4-0.4,0.4-1.2,0-1.6s-1.2-0.4-1.6,0l-37,37v3.2l0.8-0.8L38.6,586.61z"/>
		<path class="st9" d="M78,575.61c0.4-0.4,0.4-1.2,0-1.6c-0.4-0.4-1.2-0.4-1.6,0L0,650.41v3.2l0.8-0.8L78,575.61z"/>
		<path class="st3" d="M45.5,636.41c0.4-0.4,0.4-1.2,0-1.6s-1.2-0.4-1.6,0L0,678.71v3.2l0.8-0.8L45.5,636.41z"/>
		<path class="st3" d="M735.41,0l-8,8l-2.4,2.4l-34.3,34.3c-0.4,0.4-0.4,1.2,0,1.6c0.2,0.2,0.5,0.3,0.8,0.3s0.6-0.1,0.8-0.3
			l44.7-44.7V0H735.41z"/>
		<path class="st3" d="M697.51,66.3c-0.4,0.4-0.4,1.2,0,1.6c0.2,0.2,0.5,0.3,0.8,0.3s0.6-0.1,0.8-0.3l37.9-38v-3.2l-0.8,0.9
			L697.51,66.3z"/>
		<path class="st10" d="M514.01,278.1c-0.4,0.4-0.4,1.1,0,1.6c0.2,0.2,0.5,0.3,0.8,0.3s0.6-0.1,0.8-0.3l29.18-29.18l18.87-18.87
			L737.01,58.3v-3.2l-0.8,0.8L514.01,278.1z"/>
		<path class="st2" d="M689.51,130.9c-0.4,0.4-0.4,1.1,0,1.6c0.2,0.2,0.5,0.3,0.8,0.3s0.6-0.1,0.8-0.3l45.9-45.9v-3.2l-0.8,0.8
			L689.51,130.9z"/>
		<path class="st3" d="M699.61,180.2c0.3,0,0.6-0.1,0.8-0.3l36.6-36.6v-3.2l-0.8,0.8l-37.4,37.4c-0.4,0.4-0.4,1.1,0,1.6
			C699.01,180.1,699.31,180.2,699.61,180.2z"/>
		<path class="st3" d="M480.61,424.91c-0.4,0.4-0.4,1.1,0,1.6c0.2,0.2,0.5,0.3,0.8,0.3s0.6-0.1,0.8-0.3l254.8-254.8v-3.2l-0.8,0.8
			L480.61,424.91z"/>
		<path class="st3" d="M697.01,236.8c-0.4,0.4-0.4,1.1,0,1.6c0.2,0.2,0.5,0.3,0.8,0.3s0.6-0.1,0.8-0.3l38.4-38.4v-3.2l-0.8,0.8
			L697.01,236.8z"/>
		<path class="st3" d="M646.41,315.8c-0.4,0.4-0.4,1.1,0,1.6c0.2,0.2,0.5,0.3,0.8,0.3s0.6-0.1,0.8-0.3l89-89v-3.2l-0.8,0.8
			L646.41,315.8z"/>
		<path class="st15" d="M359.5,378.61c0.3,0,0.6-0.1,0.8-0.3l16-16c0.4-0.4,0.4-1.1,0-1.6c-0.4-0.5-1.1-0.4-1.6,0l-16,16
			c-0.4,0.4-0.4,1.1,0,1.6C358.9,378.51,359.2,378.61,359.5,378.61z"/>
		<path class="st15" d="M104.3,94.2c-0.4-0.4-1.2-0.4-1.6,0l-7.6,7.6c-0.4,0.4-0.4,1.2,0,1.6c0.2,0.2,0.5,0.3,0.8,0.3
			c0.3,0,0.6-0.1,0.8-0.3l7.6-7.6C104.7,95.3,104.7,94.6,104.3,94.2z"/>
		<path class="st15" d="M182.1,243.1c0.2,0.2,0.5,0.3,0.8,0.3c0.3,0,0.6-0.1,0.8-0.3L395.6,31.2c0.4-0.4,0.4-1.1,0-1.6
			c-0.4-0.5-1.1-0.4-1.6,0L182.1,241.5C181.6,242,181.6,242.7,182.1,243.1z"/>
		<path class="st15" d="M157.2,297.5c0.3,0,0.6-0.1,0.8-0.3l34.2-34.2c0.4-0.5,0.4-1.2,0-1.6c-0.4-0.4-1.1-0.4-1.6,0l-34.2,34.2
			c-0.4,0.4-0.4,1.1,0,1.6C156.6,297.4,156.9,297.5,157.2,297.5z"/>
		<path class="st15" d="M99.2,381.11l-6.3,6.3c-0.4,0.4-0.4,1.1,0,1.6c0.2,0.2,0.5,0.3,0.8,0.3s0.6-0.1,0.8-0.3l6.3-6.3
			c0.4-0.4,0.4-1.1,0-1.6S99.6,380.71,99.2,381.11z"/>
		<path class="st15" d="M434.1,104.5c0.2,0.2,0.5,0.3,0.8,0.3s0.6-0.1,0.8-0.3l32.2-32.2c0.4-0.4,0.4-1.2,0-1.6
			c-0.4-0.4-1.1-0.4-1.6,0l-32.2,32.2C433.7,103.3,433.7,104.1,434.1,104.5z"/>
		<path class="st15" d="M138.5,426.91l-6.8,6.8c-0.4,0.4-0.4,1.1,0,1.6c0.2,0.2,0.5,0.3,0.8,0.3s0.6-0.1,0.8-0.3l6.8-6.8
			c0.4-0.4,0.4-1.1,0-1.6S138.9,426.41,138.5,426.91z"/>
		<path class="st15" d="M402.9,222.3l15.4-15.4c0.4-0.4,0.4-1.1,0-1.6c-0.4-0.4-1.2-0.4-1.6,0l-15.4,15.4c-0.4,0.4-0.4,1.1,0,1.6
			c0.2,0.2,0.5,0.3,0.8,0.3S402.7,222.5,402.9,222.3z"/>
		<path class="st15" d="M553.91,98.1c-0.4-0.4-1.2-0.4-1.6,0L396.7,253.7c-0.4,0.4-0.4,1.1,0,1.5c0.2,0.2,0.5,0.3,0.8,0.3
			s0.6-0.1,0.8-0.3l92.84-92.78l42.95-42.93l19.81-19.8C554.31,99.3,554.31,98.5,553.91,98.1z"/>
		<path class="st15" d="M534.81,172.2l-11.5,11.5c-0.4,0.4-0.4,1.1,0,1.6c0.2,0.2,0.5,0.3,0.8,0.3s0.6-0.1,0.8-0.3l11.5-11.5
			c0.4-0.4,0.4-1.1,0-1.6S535.31,171.8,534.81,172.2z"/>
		<path class="st15" d="M636.51,100.6c-0.4-0.4-1.2-0.4-1.6,0l-31.6,31.6c-0.4,0.4-0.4,1.1,0,1.6c0.2,0.1,0.5,0.3,0.8,0.3
			s0.6-0.1,0.8-0.3l31.6-31.6C636.91,101.8,636.91,101,636.51,100.6z"/>
		<path class="st15" d="M252.9,512.41c-0.4-0.4-1.1-0.4-1.6,0l-132.4,132.4c-0.4,0.4-0.4,1.2,0,1.6c0.2,0.2,0.5,0.3,0.8,0.3
			s0.6-0.1,0.8-0.3l132.4-132.4C253.4,513.61,253.4,512.91,252.9,512.41z"/>
		<path class="st15" d="M454.1,538.11c-0.4-0.4-1.1-0.4-1.6,0l-135.6,135.6c-0.4,0.4-0.4,1.2,0,1.6c0.2,0.2,0.5,0.3,0.8,0.3
			s0.6-0.1,0.8-0.3l135.6-135.6C454.5,539.21,454.5,538.51,454.1,538.11z"/>
		<path class="st15" d="M441.9,633.71l-39.5,39.5c-0.4,0.4-0.4,1.2,0,1.6c0.2,0.2,0.5,0.3,0.8,0.3s0.6-0.1,0.8-0.3l39.5-39.5
			c0.4-0.4,0.4-1.2,0-1.6C443,633.31,442.3,633.31,441.9,633.71z"/>
		<path class="st15" d="M469.91,605.71l-17,17c-0.4,0.4-0.4,1.2,0,1.6c0.2,0.2,0.5,0.3,0.8,0.3s0.6-0.1,0.8-0.3l17-17
			c0.4-0.4,0.4-1.2,0-1.6C471.01,605.31,470.3,605.31,469.91,605.71z"/>
		<path class="st15" d="M622.21,654.51c0.3,0,0.6-0.1,0.8-0.3l52-52c0.4-0.4,0.4-1.2,0-1.6c-0.4-0.4-1.2-0.4-1.6,0l-52,52
			c-0.4,0.4-0.4,1.2,0,1.6C621.61,654.41,621.91,654.51,622.21,654.51z"/>
		<path class="st15" d="M588.71,401.81c-0.4,0.4-0.4,1.1,0,1.6c0.2,0.2,0.5,0.3,0.8,0.3s0.6-0.1,0.8-0.3l146.7-146.7v-3.2l-0.8,0.8
			L588.71,401.81z"/>
		<path class="st11" d="M670.11,351.5c0.3,0,0.6-0.1,0.8-0.3l66.1-66.1v-3.2l-0.8,0.8l-66.9,66.9c-0.4,0.4-0.4,1.1,0,1.6
			C669.51,351.4,669.81,351.5,670.11,351.5z"/>
		<path class="st3" d="M516.81,558.71c-0.4,0.4-0.4,1.2,0,1.6c0.2,0.2,0.5,0.3,0.8,0.3s0.6-0.1,0.8-0.3l218.6-218.5v-3.2l-0.8,0.8
			L516.81,558.71z"/>
		<path class="st3" d="M692.61,411.31c-0.4,0.4-0.4,1.1,0,1.6c0.2,0.2,0.5,0.3,0.8,0.3s0.6-0.1,0.8-0.3l42.8-42.8v-3.2l-0.8,0.8
			L692.61,411.31z"/>
		<path class="st12" d="M694.21,466.41c-0.4,0.4-0.4,1.1,0,1.6c0.2,0.2,0.5,0.3,0.8,0.3s0.6-0.1,0.8-0.3l41.2-41.2v-3.2l-0.8,0.8
			L694.21,466.41z"/>
		<path class="st3" d="M698.51,490.51c-0.4,0.4-0.4,1.1,0,1.6c0.2,0.2,0.5,0.3,0.8,0.3s0.6-0.1,0.8-0.3l36.9-36.9v-3.2l-0.8,0.8
			L698.51,490.51z"/>
		<path class="st13" d="M611.61,605.71c-0.4,0.4-0.4,1.2,0,1.6c0.2,0.2,0.5,0.3,0.8,0.3s0.6-0.1,0.8-0.3l123.8-123.8v-3.2l-0.8,0.8
			L611.61,605.71z"/>
		<path class="st3" d="M658.61,589.71c0.3,0,0.6-0.1,0.8-0.3l77.6-77.6v-3.2l-0.8,0.8l-78.4,78.4c-0.4,0.4-0.4,1.2,0,1.6
			C658.01,589.61,658.31,589.71,658.61,589.71z"/>
		<path class="st3" d="M723.51,550.51c-0.4,0.4-0.4,1.2,0,1.6c0.2,0.2,0.5,0.3,0.8,0.3s0.6-0.1,0.8-0.3l11.9-11.9v-3.2l-0.8,0.8
			L723.51,550.51z"/>
		<path class="st14" d="M638.41,664.01c-0.4,0.4-0.4,1.2,0,1.6c0.2,0.2,0.5,0.3,0.8,0.3s0.6-0.1,0.8-0.3l97-97v-3.2l-0.8,0.7
			L638.41,664.01z"/>
		<polygon class="st3" points="737.01,737.01 737.01,735.41 735.41,737.01 		"/>
		<path class="st16" d="M625.01,26.9c0.2,0.3,0.5,0.4,0.8,0.4c0.3,0,0.6-0.1,0.8-0.3l12.8-12.8l11.6-11.6c0.4-0.4,0.4-1.2,0-1.6
			s-1.2-0.4-1.6,0l-0.2,0.1l-0.8,0.9l-23.4,23.3C624.61,25.7,624.61,26.4,625.01,26.9z"/>
		<path class="st17" d="M607.91,99.2l-35.3,35.3c-0.4,0.4-0.4,1.1,0,1.6c0.2,0.2,0.5,0.3,0.8,0.3s0.6-0.1,0.8-0.3L696.31,14h0l0,0
			c0.5-0.5,0.5-1.2,0-1.6c-0.4-0.4-1.2-0.4-1.6,0L607.91,99.2C607.91,99.2,607.91,99.2,607.91,99.2z"/>
		<path class="st3" d="M467.61,127.7c0.2,0.2,0.5,0.3,0.8,0.3s0.6-0.1,0.8-0.3l57.84-57.84c0.01-0.01,0.03-0.01,0.04-0.02l37.8-37.8
			c0.4-0.4,0.4-1.1,0-1.6s-1.2-0.4-1.6,0l-2.72,2.72h-0.01l-92.94,92.94C467.21,126.5,467.21,127.2,467.61,127.7z"/>
		<path class="st7" d="M110.36,399.95c-0.4-0.4-1.1-0.4-1.6,0L0,508.71v3.2l110.36-110.36
			C110.76,401.15,110.76,400.35,110.36,399.95z"/>
	</g>
</g>
</svg>
