<?xml version="1.0" encoding="utf-8"?>
<!-- Generator: Adobe Illustrator 24.1.1, SVG Export Plug-In . SVG Version: 6.00 Build 0)  -->
<svg version="1.1" id="Layer_1" xmlns="http://www.w3.org/2000/svg" xmlns:xlink="http://www.w3.org/1999/xlink" x="0px" y="0px"
	 viewBox="0 0 593.94 595.28" style="enable-background:new 0 0 593.94 595.28;" xml:space="preserve">
<style type="text/css">
	.st0{fill:#FFFFFF;}
</style>
<g>
	<g>
		<path class="st0" d="M0.46,409.82c4.56-4.46,9.16-8.87,13.67-13.38C48.85,361.72,83.55,327,118.27,292.28
			c29.92-29.92,59.85-59.84,89.77-89.76c0.86-0.86,1.68-1.79,2.64-2.52c0.35-0.26,1.07-0.04,1.61-0.04
			c-0.05,0.49,0.02,1.05-0.19,1.46c-0.23,0.45-0.7,0.79-1.08,1.16c-29.67,29.64-59.35,59.26-89,88.91
			c-27.71,27.71-55.39,55.45-83.09,83.18c-12.48,12.49-24.96,24.97-37.45,37.46c-0.32,0.32-0.69,0.59-1.04,0.88
			C0.46,411.95,0.46,410.88,0.46,409.82z"/>
		<path class="st0" d="M594.39,139.35c-3,2.89-6.05,5.73-8.99,8.67c-28.96,28.93-57.9,57.86-86.84,86.81
			c-25.12,25.13-50.21,50.27-75.33,75.4c-10.54,10.55-21.1,21.07-31.67,31.6c-0.47,0.47-1.04,0.87-1.63,1.16
			c-0.17,0.08-0.87-0.4-0.84-0.54c0.11-0.6,0.24-1.33,0.64-1.73c3.72-3.81,7.49-7.57,11.26-11.33
			c15.44-15.44,30.88-30.87,46.33-46.31c17.65-17.64,35.31-35.26,52.95-52.91c17.32-17.32,34.62-34.67,51.93-52
			c13.87-13.88,27.76-27.76,41.64-41.63c0.16-0.16,0.37-0.26,0.55-0.39C594.39,137.21,594.39,138.28,594.39,139.35z"/>
		<path class="st0" d="M594.39,47.97c-4.08,3.97-8.2,7.88-12.23,11.91c-25.14,25.12-50.26,50.27-75.39,75.41
			c-26.58,26.59-53.17,53.17-79.75,79.75c-3.88,3.87-7.71,7.79-11.66,11.59c-0.62,0.59-1.72,0.68-2.59,1
			c0.36-0.82,0.51-1.85,1.1-2.44c19.03-19.07,38.1-38.09,57.15-57.14c21.36-21.36,42.71-42.74,64.07-64.11
			c19.31-19.32,38.63-38.64,57.96-57.96c0.43-0.43,0.9-0.81,1.35-1.21C594.39,45.84,594.39,46.91,594.39,47.97z"/>
		<path class="st0" d="M296.05,594.39c5.35-5.4,10.67-10.82,16.04-16.2c12.36-12.38,24.74-24.73,37.11-37.1
			c12.48-12.48,24.95-24.96,37.43-37.44c15.22-15.22,30.44-30.44,45.66-45.66c12.69-12.69,25.38-25.37,38.08-38.05
			c0.22-0.22,0.4-0.56,0.66-0.62c0.62-0.15,1.28-0.17,1.92-0.24c-0.15,0.58-0.11,1.34-0.46,1.71c-2.68,2.8-5.43,5.54-8.18,8.28
			c-11.41,11.39-22.83,22.76-34.22,34.16c-13.29,13.29-26.55,26.59-39.83,39.88c-12.79,12.81-25.59,25.61-38.39,38.41
			c-13.18,13.18-26.38,26.33-39.55,39.52c-4.39,4.4-8.7,8.88-13.05,13.33C298.19,594.39,297.12,594.39,296.05,594.39z"/>
		<path class="st0" d="M594.39,276.41c-3.91,3.81-7.87,7.58-11.73,11.44c-27.28,27.26-54.53,54.54-81.8,81.81
			c-21.35,21.35-42.72,42.69-64.09,64.03c-0.53,0.52-1.16,0.94-1.75,1.4c-0.36-0.37-0.73-0.74-1.09-1.11
			c2.11-2.26,4.15-4.59,6.34-6.78c27.14-27.17,54.3-54.33,81.46-81.48c23.98-23.98,47.97-47.97,71.96-71.95
			c0.21-0.21,0.47-0.37,0.71-0.56C594.39,274.28,594.39,275.34,594.39,276.41z"/>
		<path class="st0" d="M469.27,469.35c-1.48,1.61-2.9,3.28-4.45,4.82c-20.76,20.79-41.53,41.57-62.3,62.34
			c-9.89,9.9-19.78,19.8-29.67,29.69c-8.82,8.82-17.66,17.63-26.47,26.46c-0.53,0.53-0.96,1.15-1.44,1.73c-1.07,0-2.13,0-3.2,0
			c6.9-6.96,13.79-13.93,20.72-20.87c11.59-11.61,23.2-23.21,34.8-34.81c23.16-23.17,46.32-46.33,69.5-69.49
			c0.4-0.4,0.97-0.65,1.46-0.97C468.57,468.62,468.92,468.99,469.27,469.35z"/>
		<path class="st0" d="M594.39,207.88c-5.2,5.1-10.44,10.16-15.6,15.31c-18.42,18.38-36.8,36.79-55.2,55.19
			c-14.58,14.58-29.15,29.17-43.72,43.75c-0.86,0.86-1.64,1.83-2.62,2.53c-0.54,0.39-1.4,0.33-2.11,0.47
			c0.19-0.65,0.18-1.5,0.6-1.93c3.88-3.97,7.83-7.87,11.76-11.8c15.39-15.38,30.78-30.75,46.17-46.13
			c18.34-18.34,36.67-36.69,55.02-55.03c1.88-1.88,3.8-3.71,5.71-5.56C594.39,205.75,594.39,206.81,594.39,207.88z"/>
		<path class="st0" d="M0.46,112.85c4.34-4.24,8.73-8.43,13.02-12.72c28.73-28.71,57.45-57.43,86.16-86.17
			c4.45-4.45,8.81-9,13.21-13.5c1.07,0,2.13,0,3.2,0c-7.5,7.55-14.97,15.11-22.49,22.63C63.14,53.52,32.72,83.94,2.3,114.36
			c-0.59,0.59-1.23,1.13-1.84,1.69C0.46,114.98,0.46,113.91,0.46,112.85z"/>
		<path class="st0" d="M0.46,569.72c3.33-3.21,6.7-6.38,9.97-9.65c22.78-22.74,45.54-45.51,68.3-68.27
			c10.06-10.06,20.12-20.14,30.17-30.21c0.11-0.11,0.19-0.27,0.32-0.32c0.74-0.27,1.49-0.52,2.23-0.78
			c-0.23,0.75-0.23,1.73-0.72,2.23c-5.86,5.97-11.8,11.87-17.72,17.79c-15.44,15.45-30.87,30.91-46.32,46.34
			c-6.62,6.61-13.34,13.13-19.95,19.75c-8.33,8.34-16.6,16.75-24.91,25.12c-0.43,0.43-0.91,0.8-1.37,1.2
			C0.46,571.85,0.46,570.79,0.46,569.72z"/>
		<path class="st0" d="M572.92,0.46c-7.34,7.39-14.67,14.8-22.03,22.17c-26.55,26.58-53.12,53.15-79.68,79.73
			c-2.1,2.1-4.15,4.24-6.35,6.24c-0.51,0.47-1.5,0.41-2.26,0.59c0.26-0.7,0.33-1.59,0.81-2.08c10.13-10.21,20.3-20.37,30.47-30.53
			c19.15-19.15,38.31-38.29,57.46-57.44C557,13.49,562.67,7.85,568.31,2.2c0.53-0.53,0.94-1.16,1.41-1.74
			C570.79,0.46,571.85,0.46,572.92,0.46z"/>
		<path class="st0" d="M481.54,0.46c-8.74,8.79-17.46,17.6-26.22,26.37c-24.69,24.7-49.39,49.38-74.09,74.07
			c-0.38,0.38-0.69,0.87-1.15,1.09c-0.41,0.2-0.96,0.11-1.45,0.14c-0.01-0.55-0.24-1.29,0.03-1.6c1.03-1.21,2.23-2.28,3.36-3.41
			c28.62-28.63,57.24-57.26,85.84-85.91c3.53-3.54,6.98-7.17,10.47-10.76C479.41,0.46,480.48,0.46,481.54,0.46z"/>
		<path class="st0" d="M594.39,390.63c-4.4,4.29-8.84,8.55-13.19,12.89c-19.77,19.72-39.52,39.46-59.26,59.2
			c-8.39,8.39-16.73,16.84-25.16,25.2c-0.72,0.72-2.61,1.53-2.79,1.31c-1.24-1.47,0.54-2.07,1.25-2.79
			c25.73-25.8,51.5-51.57,77.27-77.33c6.94-6.94,13.88-13.88,20.82-20.82c0.32-0.32,0.7-0.57,1.06-0.86
			C594.39,388.49,594.39,389.56,594.39,390.63z"/>
		<path class="st0" d="M0.46,546.88c3.97-3.86,7.98-7.68,11.9-11.6c28-27.97,55.97-55.96,83.95-83.95c0.22-0.22,0.39-0.54,0.64-0.63
			c0.69-0.26,1.42-0.41,2.14-0.61c-0.19,0.7-0.17,1.61-0.61,2.06c-5.01,5.11-10.09,10.15-15.14,15.2
			c-19.48,19.48-38.95,38.97-58.44,58.44c-8.13,8.12-16.29,16.19-24.44,24.29C0.46,549.01,0.46,547.94,0.46,546.88z"/>
		<path class="st0" d="M275.95,0.46c-7.28,7.34-14.55,14.7-21.85,22.02c-14.72,14.75-29.47,29.47-44.2,44.21
			c-10.11,10.11-20.2,20.24-30.36,30.3c-0.72,0.72-1.34,2.46-2.81,1.25c-0.19-0.16,0.66-2.06,1.39-2.79
			c18.73-18.8,37.5-37.56,56.27-56.33c12.42-12.42,24.85-24.83,37.27-37.25c0.42-0.42,0.73-0.94,1.09-1.41
			C273.82,0.46,274.89,0.46,275.95,0.46z"/>
		<path class="st0" d="M594.39,504.85c-3.05,2.94-6.13,5.86-9.15,8.84c-8.86,8.77-17.71,17.53-26.52,26.35
			c-9.29,9.29-18.52,18.65-27.8,27.95c-8.48,8.51-16.99,16.99-25.48,25.49c-0.25,0.25-0.4,0.61-0.6,0.92c-1.07,0-2.13,0-3.2,0
			c6.42-6.47,12.83-12.95,19.26-19.41c11.25-11.28,22.51-22.56,33.77-33.82c13.16-13.15,26.33-26.29,39.5-39.43
			c0.05-0.05,0.14-0.06,0.21-0.09C594.39,502.71,594.39,503.78,594.39,504.85z"/>
		<path class="st0" d="M0.46,455.5c4.12-4.02,8.29-8,12.36-12.08c23.24-23.22,46.46-46.47,69.68-69.71
			c1.51-1.51,2.97-3.06,4.59-4.45c0.55-0.47,1.49-0.48,2.25-0.7c-0.25,0.7-0.32,1.6-0.79,2.08c-5.64,5.76-11.33,11.47-17.04,17.17
			c-14.3,14.3-28.61,28.61-42.93,42.89c-9.36,9.34-18.75,18.66-28.13,27.98C0.46,457.64,0.46,456.57,0.46,455.5z"/>
		<path class="st0" d="M253.11,0.46c-7.77,7.82-15.54,15.66-23.33,23.47c-10.64,10.66-21.29,21.3-31.94,31.95
			c-9.74,9.74-19.47,19.48-29.21,29.21c-0.38,0.38-0.69,0.92-1.15,1.08c-0.47,0.17-1.07-0.03-1.62-0.07
			c0.05-0.48-0.07-1.11,0.18-1.42c0.71-0.88,1.59-1.64,2.39-2.44c12.27-12.27,24.53-24.54,36.8-36.8
			c14.47-14.47,28.94-28.93,43.41-43.41c0.47-0.47,0.84-1.04,1.26-1.57C250.98,0.46,252.04,0.46,253.11,0.46z"/>
		<path class="st0" d="M0.46,204.22c1.65-1.55,3.34-3.06,4.94-4.66c22.45-22.41,44.88-44.84,67.32-67.26
			c3.07-3.06,6.07-6.19,9.21-9.18c0.56-0.54,1.6-0.57,2.42-0.84c-0.29,0.77-0.38,1.74-0.91,2.27
			c-13.4,13.49-26.85,26.93-40.29,40.38c-13.66,13.66-27.33,27.31-41,40.96c-0.54,0.53-1.12,1.02-1.69,1.52
			C0.46,206.35,0.46,205.29,0.46,204.22z"/>
		<path class="st0" d="M367.33,0.46c-7.18,7.24-14.33,14.49-21.53,21.7c-13.55,13.57-27.12,27.11-40.68,40.66
			c-5.43,5.43-10.86,10.88-16.29,16.31c-0.27,0.27-0.52,0.64-0.85,0.75c-0.57,0.19-1.19,0.2-1.78,0.29c0.12-0.6,0.03-1.4,0.38-1.77
			c2.62-2.76,5.32-5.43,8.01-8.12c14.2-14.2,28.41-28.4,42.62-42.6c8.56-8.55,17.11-17.1,25.66-25.67c0.47-0.47,0.84-1.03,1.25-1.56
			C365.19,0.46,366.26,0.46,367.33,0.46z"/>
		<path class="st0" d="M594.39,459.16c-3.38,3.27-6.79,6.5-10.12,9.82c-17.49,17.46-34.95,34.94-52.42,52.42
			c-4.62,4.62-9.23,9.26-13.85,13.89c-0.38,0.38-0.7,0.88-1.16,1.09c-0.72,0.33-1.53,0.47-2.3,0.68c0.25-0.71,0.31-1.61,0.79-2.1
			c4.29-4.41,8.66-8.76,13.01-13.12c15.54-15.54,31.08-31.08,46.63-46.6c6.45-6.44,12.94-12.85,19.42-19.27
			C594.39,457.03,594.39,458.09,594.39,459.16z"/>
		<path class="st0" d="M250.37,594.39c8.1-8.15,16.17-16.32,24.29-24.45c16.13-16.16,32.28-32.3,48.47-48.4
			c0.69-0.69,1.81-0.93,2.74-1.38c-0.43,0.98-0.62,2.21-1.32,2.91c-23.21,23.27-46.47,46.5-69.72,69.74
			c-0.47,0.47-0.84,1.06-1.25,1.59C252.5,594.39,251.43,594.39,250.37,594.39z"/>
		<path class="st0" d="M594.39,185.03c-4.61,4.51-9.27,8.99-13.83,13.55c-19.12,19.09-38.21,38.2-57.31,57.31
			c-0.22,0.22-0.39,0.53-0.65,0.63c-0.57,0.21-1.18,0.31-1.78,0.46c0.08-0.65-0.08-1.54,0.28-1.92c2.56-2.71,5.22-5.32,7.86-7.96
			c13.18-13.18,26.36-26.36,39.55-39.52c8.61-8.59,17.25-17.16,25.88-25.74C594.39,182.9,594.39,183.97,594.39,185.03z"/>
		<path class="st0" d="M0.46,272.75c3.33-3.21,6.69-6.38,9.98-9.63c9.18-9.1,18.34-18.21,27.47-27.35
			c9.35-9.36,18.65-18.76,27.98-28.14c1.82-1.83,3.59-3.72,5.5-5.45c0.62-0.56,1.61-0.7,2.43-1.03c-0.29,0.83-0.34,1.89-0.89,2.46
			c-5.32,5.43-10.74,10.76-16.11,16.13c-18.22,18.23-36.44,36.47-54.66,54.69c-0.53,0.54-1.13,1.01-1.7,1.51
			C0.46,274.89,0.46,273.82,0.46,272.75z"/>
		<path class="st0" d="M181.84,594.39c7.71-7.77,15.39-15.56,23.13-23.3c15.58-15.6,31.2-31.17,46.8-46.75
			c0.32-0.32,0.59-0.76,0.98-0.94c0.54-0.25,1.17-0.3,1.75-0.44c-0.09,0.65,0.05,1.52-0.32,1.9c-3.7,3.83-7.48,7.57-11.24,11.33
			c-18.88,18.87-37.75,37.74-56.62,56.62c-0.47,0.47-0.85,1.04-1.27,1.57C183.97,594.39,182.9,594.39,181.84,594.39z"/>
		<path class="st0" d="M594.39,2.28c-3.05,2.95-6.14,5.86-9.14,8.85c-13.47,13.4-26.93,26.82-40.37,40.25
			c-6.51,6.5-12.96,13.04-19.5,19.51c-0.5,0.5-1.46,0.53-2.2,0.78c0.25-0.75,0.28-1.71,0.77-2.21c9.49-9.54,19.06-19,28.57-28.52
			c13.16-13.18,26.3-26.38,39.43-39.58c0.25-0.26,0.41-0.6,0.62-0.91c0.61,0,1.22,0,1.83,0C594.39,1.07,594.39,1.68,594.39,2.28z"/>
		<path class="st0" d="M387.43,594.39c5.18-5.25,10.33-10.52,15.54-15.74c17.26-17.27,34.53-34.52,51.84-51.74
			c0.69-0.69,2.48-1.49,2.63-1.31c1.19,1.45-0.46,2.06-1.2,2.81c-17.56,17.62-35.17,35.19-52.74,52.8
			c-4.34,4.35-8.58,8.79-12.87,13.19C389.56,594.39,388.49,594.39,387.43,594.39z"/>
		<path class="st0" d="M0.46,67.16c3.43-3.32,6.89-6.6,10.27-9.97C29.19,38.76,47.64,20.32,66.08,1.87
			c0.41-0.41,0.72-0.94,1.08-1.41c1.07,0,2.13,0,3.2,0C65.02,5.85,59.7,11.26,54.34,16.64C42.91,28.09,31.47,39.53,20.02,50.95
			c-6.5,6.49-13.04,12.94-19.56,19.41C0.46,69.29,0.46,68.23,0.46,67.16z"/>
		<path class="st0" d="M524.49,594.39c6.3-6.36,12.59-12.75,18.92-19.09c16.58-16.61,33.19-33.19,49.78-49.78
			c0.37-0.37,0.8-0.69,1.2-1.03c0,1.07,0,2.13,0,3.2c-3.32,3.21-6.68,6.38-9.95,9.64c-18.62,18.59-37.23,37.2-55.83,55.82
			c-0.36,0.36-0.62,0.83-0.93,1.25C526.62,594.39,525.56,594.39,524.49,594.39z"/>
		<path class="st0" d="M21.93,594.39c6.1-6.15,12.19-12.32,18.31-18.46c9.83-9.85,19.68-19.68,29.51-29.51
			c5.53-5.53,11.06-11.07,16.59-16.6c0.22-0.22,0.4-0.54,0.66-0.61c0.58-0.16,1.19-0.2,1.79-0.28c-0.1,0.6,0.02,1.39-0.33,1.76
			c-2.46,2.59-5.01,5.1-7.54,7.62c-12.3,12.23-24.62,24.43-36.89,36.68c-6.03,6.02-11.99,12.11-17.96,18.17
			c-0.36,0.37-0.63,0.83-0.94,1.24C24.06,594.39,23,594.39,21.93,594.39z"/>
		<path class="st0" d="M594.39,413.47c-4.18,4.07-8.41,8.1-12.54,12.23c-16.57,16.55-33.11,33.13-49.71,49.66
			c-0.68,0.68-1.82,0.89-2.74,1.32c0.4-0.93,0.58-2.08,1.24-2.75c21.04-21.12,42.12-42.19,63.2-63.26c0.16-0.16,0.36-0.26,0.54-0.39
			C594.39,411.34,594.39,412.4,594.39,413.47z"/>
		<path class="st0" d="M0.46,524.03c4.39-4.28,8.83-8.53,13.17-12.86c13.4-13.36,26.76-26.76,40.14-40.14
			c3.06-3.06,6.09-6.17,9.21-9.16c0.53-0.51,1.48-0.57,2.24-0.83c-0.23,0.75-0.25,1.73-0.74,2.23c-7.36,7.47-14.79,14.88-22.2,22.3
			c-13.64,13.66-27.29,27.32-40.94,40.97c-0.26,0.26-0.59,0.47-0.88,0.7C0.46,526.17,0.46,525.1,0.46,524.03z"/>
		<path class="st0" d="M458.7,0.46c-6.85,6.91-13.69,13.83-20.56,20.72c-12.25,12.27-24.51,24.54-36.81,36.75
			c-0.8,0.8-2.04,1.16-3.07,1.73c-0.99-1.85,0.84-2.4,1.66-3.22c18.08-18.17,36.21-36.28,54.32-54.42c0.47-0.47,0.85-1.04,1.27-1.56
			C456.57,0.46,457.64,0.46,458.7,0.46z"/>
		<path class="st0" d="M0.46,158.54c4.28-4.18,8.61-8.31,12.84-12.54c14.25-14.23,28.46-28.5,42.73-42.7
			c0.68-0.68,1.83-0.89,2.77-1.32c-0.4,0.93-0.58,2.09-1.24,2.76C38.8,123.58,19.99,142.39,1.18,161.2
			c-0.21,0.21-0.48,0.36-0.73,0.53C0.46,160.67,0.46,159.6,0.46,158.54z"/>
		<path class="st0" d="M594.39,230.72c-3.32,3.21-6.69,6.37-9.95,9.63c-14.26,14.24-28.48,28.51-42.76,42.72
			c-0.52,0.52-1.5,0.57-2.27,0.84c0.24-0.77,0.24-1.77,0.74-2.28c17.18-17.23,34.4-34.41,51.62-51.59c0.86-0.86,1.75-1.68,2.62-2.52
			C594.39,228.59,594.39,229.66,594.39,230.72z"/>
		<path class="st0" d="M161.73,0.46c-5.18,5.24-10.34,10.5-15.55,15.72c-12.63,12.65-25.28,25.27-37.92,37.91
			c-0.11,0.11-0.19,0.26-0.32,0.32c-0.81,0.35-1.62,0.68-2.44,1.01c0.31-0.87,0.39-1.97,0.97-2.58c3.16-3.29,6.45-6.46,9.67-9.68
			c13.88-13.87,27.75-27.75,41.61-41.63c0.31-0.31,0.52-0.71,0.77-1.07C159.6,0.46,160.67,0.46,161.73,0.46z"/>
		<path class="st0" d="M158.99,594.39c6.53-6.59,13.05-13.18,19.6-19.75c10.37-10.4,20.75-20.77,31.13-31.15
			c0.16-0.16,0.29-0.41,0.49-0.47c0.65-0.22,1.33-0.38,1.99-0.56c-0.17,0.71-0.1,1.65-0.54,2.1c-3.22,3.34-6.54,6.58-9.82,9.85
			c-12.97,12.96-25.93,25.91-38.88,38.88c-0.31,0.31-0.51,0.73-0.77,1.1C161.12,594.39,160.06,594.39,158.99,594.39z"/>
		<path class="st0" d="M594.39,482c-4.83,4.72-9.68,9.41-14.47,14.18c-10.62,10.57-21.19,21.18-31.79,31.77
			c-0.37,0.37-0.73,0.82-1.19,1.03c-0.34,0.15-0.98,0.12-1.21-0.11c-0.24-0.23-0.28-0.85-0.16-1.22c0.13-0.4,0.53-0.73,0.85-1.05
			c15.75-15.76,31.49-31.52,47.25-47.27c0.21-0.21,0.48-0.36,0.73-0.54C594.39,479.87,594.39,480.94,594.39,482z"/>
		<path class="st0" d="M321.64,0.46c-7.23,7.28-14.45,14.58-21.69,21.85c-8.43,8.46-16.89,16.89-25.33,25.33
			c-0.22,0.22-0.39,0.55-0.64,0.63c-0.63,0.21-1.3,0.3-1.96,0.44c0.15-0.67,0.08-1.55,0.49-1.98c2.08-2.22,4.29-4.31,6.44-6.46
			c12.91-12.91,25.81-25.82,38.71-38.74c0.31-0.31,0.53-0.71,0.79-1.06C319.51,0.46,320.57,0.46,321.64,0.46z"/>
		<path class="st0" d="M550.08,0.46c-7.06,7.12-14.11,14.25-21.2,21.35c-8.37,8.39-16.77,16.76-25.16,25.14
			c-0.27,0.27-0.48,0.66-0.81,0.79c-0.56,0.23-1.18,0.29-1.78,0.42c0.1-0.66-0.05-1.54,0.33-1.93c2.95-3.07,6-6.04,9.01-9.05
			c11.82-11.83,23.65-23.65,35.46-35.49c0.36-0.36,0.63-0.82,0.94-1.24C547.94,0.46,549.01,0.46,550.08,0.46z"/>
		<path class="st0" d="M207.42,0.46c-6.31,6.38-12.6,12.78-18.94,19.13c-9.08,9.1-18.2,18.17-27.3,27.26
			c-0.32,0.32-0.6,0.79-0.99,0.93c-0.49,0.17-1.07,0.08-1.61,0.1c0.05-0.53-0.09-1.26,0.2-1.57c1.75-1.9,3.59-3.72,5.42-5.55
			c13.03-13.01,26.06-26.02,39.08-39.04c0.36-0.36,0.62-0.83,0.93-1.26C205.29,0.46,206.35,0.46,207.42,0.46z"/>
		<path class="st0" d="M184.58,0.46c-8.03,8.08-16.06,16.17-24.1,24.25c-7.13,7.16-14.29,14.3-21.43,21.45
			c-0.43,0.43-0.8,0.99-1.31,1.24c-0.43,0.21-1.05,0.05-1.58,0.06c0.04-0.53-0.12-1.24,0.16-1.55c1.32-1.47,2.75-2.83,4.15-4.23
			c13.17-13.16,26.34-26.33,39.5-39.5c0.52-0.52,0.95-1.15,1.42-1.72C182.44,0.46,183.51,0.46,184.58,0.46z"/>
		<path class="st0" d="M0.46,341.28c3.54-3.43,7.12-6.82,10.6-10.3c11.05-11.01,22.05-22.06,33.12-33.06
			c0.46-0.46,1.37-0.47,2.07-0.69c-0.23,0.77-0.22,1.77-0.71,2.27c-10.4,10.48-20.85,20.91-31.3,31.33
			c-4.58,4.56-9.19,9.09-13.78,13.64C0.46,343.42,0.46,342.35,0.46,341.28z"/>
		<path class="st0" d="M478.8,594.39c6.41-6.48,12.81-12.97,19.25-19.42c7.78-7.8,15.59-15.58,23.38-23.37
			c0.48-0.48,0.91-1.08,1.49-1.4c0.49-0.27,1.17-0.23,1.76-0.32c-0.1,0.61,0.01,1.4-0.34,1.79c-1.64,1.8-3.4,3.48-5.12,5.2
			c-12.04,12.04-24.08,24.08-36.11,36.13c-0.42,0.42-0.75,0.93-1.11,1.39C480.94,594.39,479.87,594.39,478.8,594.39z"/>
		<path class="st0" d="M0.46,135.69c3.53-3.43,7.1-6.82,10.58-10.3c10.07-10.03,20.1-20.1,30.19-30.11
			c0.46-0.46,1.37-0.45,2.07-0.67c-0.23,0.76-0.22,1.76-0.72,2.25c-11.04,11.11-22.13,22.16-33.21,33.22
			c-2.96,2.95-5.94,5.87-8.91,8.8C0.46,137.82,0.46,136.76,0.46,135.69z"/>
		<path class="st0" d="M594.39,70.82c-3.37,3.27-6.79,6.49-10.11,9.8c-10.12,10.1-20.2,20.24-30.34,30.31
			c-0.49,0.49-1.5,0.46-2.27,0.66c0.18-0.66,0.15-1.53,0.56-1.95c13.96-14,27.96-27.96,41.96-41.93c0.05-0.05,0.14-0.07,0.2-0.1
			C594.39,68.68,594.39,69.75,594.39,70.82z"/>
		<path class="st0" d="M0.46,386.97c4.4-4.29,8.83-8.55,13.18-12.89c9-8.97,17.96-17.99,26.98-26.93c0.51-0.51,1.51-0.52,2.28-0.76
			c-0.19,0.69-0.17,1.6-0.61,2.04C28.56,362.24,14.78,376,1.01,389.77c-0.16,0.16-0.36,0.27-0.55,0.4
			C0.46,389.1,0.46,388.04,0.46,386.97z"/>
		<path class="st0" d="M113.3,594.39c6.9-6.96,13.79-13.92,20.71-20.87c6.81-6.84,13.65-13.65,20.48-20.48
			c0.21-0.21,0.38-0.55,0.64-0.64c0.58-0.2,1.2-0.29,1.8-0.42c-0.1,0.66,0.03,1.54-0.35,1.94c-2.28,2.44-4.67,4.78-7.04,7.15
			c-10.7,10.7-21.4,21.39-32.09,32.09c-0.36,0.36-0.64,0.81-0.95,1.22C115.44,594.39,114.37,594.39,113.3,594.39z"/>
		<path class="st0" d="M0.46,364.13c3.48-3.38,7-6.71,10.44-10.13c9.01-8.96,17.96-17.97,26.99-26.91c0.44-0.43,1.37-0.35,2.08-0.51
			c-0.18,0.65-0.16,1.5-0.58,1.92c-9.97,10.04-19.98,20.04-30,30.04c-2.96,2.95-5.96,5.86-8.94,8.79
			C0.46,366.26,0.46,365.19,0.46,364.13z"/>
		<path class="st0" d="M455.96,594.39c6.26-6.32,12.5-12.65,18.78-18.95c6.39-6.41,12.81-12.78,19.23-19.17
			c0.37-0.37,0.74-0.82,1.2-1.03c0.33-0.15,0.82,0.06,1.24,0.11c-0.11,0.6-0.02,1.39-0.37,1.77c-2.62,2.76-5.32,5.43-8.01,8.12
			c-9.31,9.3-18.62,18.59-27.92,27.89c-0.37,0.37-0.63,0.84-0.94,1.26C458.09,594.39,457.03,594.39,455.96,594.39z"/>
		<path class="st0" d="M0.46,227.07c4.34-4.24,8.71-8.45,13.01-12.72c7.93-7.88,15.82-15.81,23.77-23.67
			c0.45-0.44,1.34-0.43,2.02-0.63c-0.17,0.69-0.11,1.61-0.54,2.04c-12.54,12.63-25.13,25.21-37.71,37.8
			c-0.16,0.16-0.37,0.26-0.55,0.39C0.46,229.2,0.46,228.13,0.46,227.07z"/>
		<path class="st0" d="M44.77,594.39c9.17-9.22,18.35-18.44,27.52-27.66c3.44-3.45,6.85-6.93,10.35-10.3
			c0.51-0.49,1.48-0.52,2.24-0.76c-0.26,0.77-0.3,1.76-0.81,2.27C72.44,569.66,60.75,581.32,49.08,593
			c-0.42,0.42-0.74,0.93-1.11,1.39C46.91,594.39,45.84,594.39,44.77,594.39z"/>
		<path class="st0" d="M594.39,299.25c-4.28,4.18-8.59,8.33-12.83,12.55c-7.32,7.29-14.59,14.63-21.88,21.94
			c-0.21,0.22-0.42,0.52-0.68,0.6c-0.69,0.2-1.41,0.3-2.12,0.44c0.18-0.65,0.18-1.44,0.57-1.91c0.86-1.05,1.92-1.94,2.88-2.91
			c11.17-11.17,22.33-22.35,33.5-33.52c0.16-0.16,0.37-0.26,0.56-0.38C594.39,297.12,594.39,298.19,594.39,299.25z"/>
		<path class="st0" d="M0.46,181.38c3.43-3.32,6.89-6.6,10.27-9.96c7.97-7.93,15.9-15.9,23.84-23.86c0.16-0.16,0.3-0.41,0.49-0.46
			c0.7-0.19,1.41-0.32,2.12-0.47c-0.18,0.65-0.17,1.49-0.58,1.92c-2.13,2.27-4.37,4.43-6.58,6.63c-9.85,9.8-19.71,19.6-29.56,29.4
			C0.46,183.51,0.46,182.44,0.46,181.38z"/>
		<path class="st0" d="M390.17,0.46c-6.15,6.2-12.28,12.41-18.44,18.6c-4.93,4.96-9.88,9.89-14.82,14.83
			c-0.43,0.43-0.82,0.97-1.34,1.22c-0.52,0.25-1.18,0.21-1.78,0.3c0.11-0.6,0.02-1.39,0.37-1.76c2.67-2.8,5.43-5.53,8.17-8.27
			c8.01-8,16.02-16,24.02-24.01c0.26-0.26,0.41-0.61,0.62-0.92C388.04,0.46,389.1,0.46,390.17,0.46z"/>
		<path class="st0" d="M410.27,594.39c9.17-9.22,18.34-18.45,27.52-27.67c1.82-1.83,3.61-3.71,5.51-5.46
			c0.49-0.45,1.37-0.48,2.07-0.7c-0.21,0.75-0.18,1.72-0.66,2.21c-9.85,9.95-19.76,19.84-29.65,29.76
			c-0.58,0.58-1.06,1.25-1.59,1.88C412.4,594.39,411.34,594.39,410.27,594.39z"/>
		<path class="st0" d="M594.39,344.94c-4.23,4.13-8.49,8.23-12.69,12.39c-6.25,6.21-12.45,12.48-18.72,18.67
			c-0.46,0.46-1.39,0.45-2.1,0.66c0.13-0.65,0.03-1.53,0.42-1.92c11-11.03,22.05-22.01,33.09-32.99
			C594.39,342.81,594.39,343.87,594.39,344.94z"/>
		<path class="st0" d="M0.46,501.19c3.53-3.43,7.09-6.83,10.59-10.3c6.86-6.8,13.66-13.64,20.54-20.41c0.47-0.46,1.36-0.47,2.06-0.7
			c-0.19,0.71-0.14,1.64-0.59,2.08C22.41,482.6,11.7,493.29,1,503.98c-0.16,0.16-0.36,0.27-0.54,0.41
			C0.46,503.32,0.46,502.26,0.46,501.19z"/>
		<path class="st0" d="M594.39,162.19c-3.43,3.33-6.89,6.62-10.28,9.99c-6.47,6.44-12.9,12.91-19.35,19.37
			c-0.38,0.38-0.71,0.86-1.17,1.07c-0.53,0.25-1.18,0.26-1.78,0.38c0.08-0.6-0.04-1.39,0.29-1.77c1.35-1.54,2.84-2.96,4.3-4.41
			c9.08-9.1,18.17-18.19,27.26-27.28c0.21-0.21,0.49-0.36,0.73-0.54C594.39,160.06,594.39,161.12,594.39,162.19z"/>
		<path class="st0" d="M90.46,594.39c6.43-6.48,12.85-12.97,19.28-19.45c3.75-3.78,7.52-7.54,11.29-11.31
			c0.32-0.32,0.61-0.77,1-0.91c0.49-0.18,1.08-0.11,1.62-0.15c-0.06,0.55,0.09,1.29-0.21,1.62c-1.36,1.53-2.85,2.96-4.3,4.41
			c-8.24,8.23-16.48,16.45-24.71,24.68c-0.31,0.31-0.52,0.73-0.78,1.1C92.59,594.39,91.53,594.39,90.46,594.39z"/>
		<path class="st0" d="M594.39,116.5c-4.93,4.83-9.88,9.64-14.79,14.49c-4.81,4.76-9.56,9.58-14.41,14.3
			c-0.44,0.43-1.36,0.37-2.06,0.53c0.18-0.66,0.16-1.52,0.58-1.94c10.2-10.22,20.44-20.4,30.67-30.58
			C594.39,114.37,594.39,115.44,594.39,116.5z"/>
		<path class="st0" d="M594.39,25.13c-4.45,4.35-8.92,8.68-13.36,13.04c-5.04,4.95-10.05,9.93-15.07,14.91
			c-0.78,0.77-1.54,1.6-2.63,0c3.3-3.39,6.56-6.77,9.87-10.11c6.53-6.58,13.1-13.13,19.66-19.69c0.48-0.48,1.02-0.9,1.54-1.35
			C594.39,23,594.39,24.06,594.39,25.13z"/>
		<path class="st0" d="M594.39,93.66c-3.48,3.38-6.99,6.74-10.44,10.16c-5.78,5.73-11.51,11.51-17.33,17.21
			c-0.43,0.42-1.34,0.33-2.03,0.48c0.12-0.59,0.03-1.38,0.38-1.73c9.78-9.8,19.6-19.55,29.42-29.32
			C594.39,91.53,594.39,92.59,594.39,93.66z"/>
		<path class="st0" d="M594.39,367.78c-3.38,3.27-6.78,6.51-10.12,9.83c-5.4,5.36-10.76,10.77-16.14,16.15
			c-0.43,0.43-0.87,0.9-1.4,1.15c-0.3,0.14-0.87-0.04-1.17-0.27c-0.2-0.16-0.24-0.69-0.14-1c0.1-0.34,0.4-0.63,0.66-0.9
			c9.43-9.39,18.87-18.77,28.31-28.15C594.39,365.65,594.39,366.72,594.39,367.78z"/>
		<path class="st0" d="M0.46,592.57c4.34-4.23,8.7-8.44,13.01-12.7c4.22-4.17,8.36-8.4,12.6-12.54c0.54-0.53,1.48-0.64,2.24-0.94
			c-0.24,0.82-0.24,1.88-0.77,2.41c-8.07,8.16-16.21,16.24-24.32,24.35c-0.36,0.36-0.63,0.83-0.94,1.25c-0.61,0-1.22,0-1.83,0
			C0.46,593.78,0.46,593.17,0.46,592.57z"/>
		<path class="st0" d="M594.39,550.53c-2.57,2.46-5.17,4.88-7.69,7.39c-5.18,5.14-10.29,10.34-15.49,15.45
			c-0.54,0.53-1.56,0.56-2.36,0.82c0.28-0.76,0.35-1.73,0.87-2.25c8.19-8.23,16.45-16.41,24.69-24.6
			C594.39,548.4,594.39,549.47,594.39,550.53z"/>
		<path class="st0" d="M67.62,594.39c6.42-6.47,12.84-12.95,19.27-19.42c1.71-1.73,3.37-3.51,5.18-5.14
			c0.54-0.49,1.5-0.51,2.27-0.74c-0.27,0.77-0.32,1.75-0.83,2.27c-7.05,7.14-14.17,14.21-21.26,21.31
			c-0.52,0.52-0.96,1.14-1.43,1.72C69.75,594.39,68.68,594.39,67.62,594.39z"/>
		<path class="st0" d="M0.46,90c4.12-4.02,8.26-8.04,12.36-12.08c3.03-2.99,6.02-6.01,9.04-9.02c0.48-0.48,0.95-1.04,1.54-1.34
			c0.45-0.23,1.08-0.09,1.62-0.12c-0.13,0.52-0.11,1.2-0.43,1.55c-1.63,1.8-3.33,3.54-5.05,5.25C13.19,80.58,6.82,86.89,0.46,93.2
			C0.46,92.14,0.46,91.07,0.46,90z"/>
		<path class="st0" d="M273.21,594.39c7.18-7.23,14.36-14.46,21.54-21.69c0.75-0.76,1.43-1.61,2.27-2.24
			c0.52-0.38,1.29-0.42,1.95-0.62c-0.15,0.72-0.07,1.68-0.5,2.13c-4.03,4.15-8.17,8.19-12.23,12.3c-3.31,3.34-6.56,6.74-9.83,10.12
			C275.34,594.39,274.28,594.39,273.21,594.39z"/>
		<path class="st0" d="M594.39,322.1c-3.43,3.32-6.88,6.62-10.28,9.98c-4,3.96-7.94,7.98-11.97,11.91c-0.41,0.4-1.26,0.33-1.91,0.48
			c0.12-0.64,0.02-1.51,0.4-1.9c7.89-7.92,15.83-15.79,23.76-23.67C594.39,319.96,594.39,321.03,594.39,322.1z"/>
		<path class="st0" d="M433.12,594.39c6.35-6.4,12.7-12.81,19.06-19.21c1.39-1.4,2.72-2.86,4.21-4.15c0.49-0.43,1.38-0.4,2.09-0.58
			c-0.22,0.7-0.22,1.6-0.68,2.06c-6.76,6.86-13.59,13.65-20.39,20.47c-0.42,0.42-0.73,0.93-1.09,1.4
			C435.25,594.39,434.18,594.39,433.12,594.39z"/>
		<path class="st0" d="M227.52,594.39c6.42-6.47,12.84-12.94,19.26-19.41c1.18-1.19,2.31-2.42,3.58-3.5
			c0.47-0.4,1.28-0.42,1.93-0.61c-0.17,0.71-0.11,1.64-0.55,2.09c-4.67,4.79-9.43,9.48-14.13,14.23c-2.34,2.36-4.6,4.8-6.9,7.2
			C229.66,594.39,228.59,594.39,227.52,594.39z"/>
		<path class="st0" d="M594.39,573.38c-4.17,4.07-8.37,8.11-12.5,12.22c-2.89,2.88-5.68,5.86-8.51,8.79c-1.07,0-2.13,0-3.2,0
			c6.39-6.44,12.77-12.9,19.17-19.33c1.65-1.66,3.36-3.26,5.04-4.89C594.39,571.24,594.39,572.31,594.39,573.38z"/>
		<path class="st0" d="M527.23,0.46c-5.28,5.34-10.56,10.68-15.85,16.01c-2.08,2.1-4.15,4.23-6.32,6.24
			c-0.46,0.43-1.36,0.39-2.06,0.56c0.21-0.7,0.2-1.61,0.65-2.07c6.29-6.38,12.64-12.69,18.97-19.03c0.52-0.52,0.95-1.14,1.42-1.71
			C525.1,0.46,526.17,0.46,527.23,0.46z"/>
		<path class="st0" d="M0.46,21.47c4.44-4.34,8.91-8.64,13.31-13.02c2.62-2.61,5.14-5.33,7.71-8c1.07,0,2.13,0,3.2,0
			C16.6,8.53,8.53,16.6,0.46,24.67C0.46,23.61,0.46,22.54,0.46,21.47z"/>
		<path class="st0" d="M413.01,0.46c-6.68,6.73-13.35,13.48-20.07,20.17c-0.42,0.42-1.28,0.41-1.93,0.6
			c0.21-0.76,0.18-1.76,0.67-2.25c5.52-5.64,11.13-11.2,16.7-16.8c0.52-0.53,0.96-1.14,1.43-1.72
			C410.88,0.46,411.95,0.46,413.01,0.46z"/>
		<path class="st0" d="M0.46,295.6c3.42-3.33,6.86-6.64,10.26-9.99c2.39-2.35,4.69-4.79,7.13-7.07c0.46-0.43,1.4-0.35,2.12-0.51
			c-0.19,0.66-0.17,1.53-0.59,1.95c-6.27,6.31-12.6,12.56-18.92,18.82C0.46,297.73,0.46,296.66,0.46,295.6z"/>
		<path class="st0" d="M0.46,44.32c3.48-3.38,6.97-6.75,10.44-10.14c2.23-2.18,4.36-4.46,6.64-6.58c0.45-0.42,1.37-0.35,2.07-0.51
			c-0.17,0.66-0.14,1.53-0.56,1.94c-6.16,6.2-12.38,12.34-18.59,18.49C0.46,46.45,0.46,45.38,0.46,44.32z"/>
		<path class="st0" d="M47.51,0.46c-6.11,6.15-12.2,12.32-18.36,18.42c-0.39,0.39-1.25,0.3-1.9,0.43c0.21-0.71,0.2-1.62,0.66-2.09
			c4.9-5,9.88-9.92,14.82-14.87c0.58-0.58,1.06-1.26,1.58-1.89C45.38,0.46,46.45,0.46,47.51,0.46z"/>
		<path class="st0" d="M504.39,0.46c-5.61,5.66-11.2,11.33-16.86,16.94c-0.39,0.39-1.25,0.29-1.9,0.42c0.2-0.7,0.18-1.62,0.63-2.08
			c4.4-4.51,8.88-8.94,13.33-13.41c0.58-0.58,1.07-1.25,1.6-1.87C502.26,0.46,503.32,0.46,504.39,0.46z"/>
		<path class="st0" d="M298.8,0.46c-5.16,5.22-10.31,10.46-15.52,15.63c-0.38,0.38-1.26,0.27-1.9,0.39c0.19-0.7,0.16-1.62,0.61-2.08
			c4.13-4.23,8.35-8.37,12.52-12.55c0.41-0.41,0.73-0.93,1.1-1.39C296.66,0.46,297.73,0.46,298.8,0.46z"/>
		<path class="st0" d="M93.2,0.46c-4.86,4.92-9.7,9.86-14.6,14.73c-0.42,0.42-1.29,0.39-1.95,0.57c0.16-0.71,0.09-1.64,0.52-2.09
			c3.86-3.99,7.81-7.88,11.73-11.82c0.42-0.42,0.74-0.93,1.11-1.39C91.07,0.46,92.14,0.46,93.2,0.46z"/>
		<path class="st0" d="M435.86,0.46c-4.91,4.95-9.8,9.92-14.75,14.83c-0.4,0.39-1.27,0.31-1.92,0.44c0.16-0.66,0.11-1.52,0.52-1.93
			c3.81-3.91,7.7-7.74,11.55-11.62c0.52-0.52,0.94-1.14,1.41-1.72C433.73,0.46,434.79,0.46,435.86,0.46z"/>
		<path class="st0" d="M344.48,0.46c-4.69,4.75-9.37,9.51-14.11,14.21c-0.38,0.38-1.25,0.28-1.89,0.4c0.15-0.64,0.09-1.49,0.48-1.9
			c3.48-3.6,7.05-7.11,10.58-10.67c0.63-0.63,1.16-1.36,1.74-2.04C342.35,0.46,343.42,0.46,344.48,0.46z"/>
		<path class="st0" d="M547.33,594.39c4.41-4.46,8.81-8.95,13.27-13.36c0.42-0.42,1.28-0.41,1.93-0.59
			c-0.15,0.71-0.07,1.64-0.5,2.08c-3.31,3.43-6.72,6.77-10.08,10.15c-0.52,0.53-0.95,1.15-1.43,1.73
			C549.47,594.39,548.4,594.39,547.33,594.39z"/>
		<path class="st0" d="M318.9,594.39c3.85-3.89,7.67-7.81,11.58-11.64c0.4-0.39,1.26-0.31,1.91-0.44c-0.16,0.65-0.11,1.51-0.52,1.93
			c-2.73,2.86-5.57,5.62-8.35,8.43c-0.52,0.53-0.95,1.15-1.43,1.73C321.03,594.39,319.96,594.39,318.9,594.39z"/>
		<path class="st0" d="M0.46,478.35c2.56-2.46,5.13-4.91,7.69-7.37c0.44-0.42,0.79-0.99,1.31-1.25c0.69-0.35,1.5-0.47,2.26-0.69
			c-0.24,0.71-0.28,1.61-0.75,2.1c-2.67,2.8-5.43,5.52-8.18,8.25c-0.75,0.75-1.55,1.44-2.33,2.17
			C0.46,480.48,0.46,479.41,0.46,478.35z"/>
		<path class="st0" d="M0.46,318.44c2.39-2.29,4.79-4.58,7.18-6.87c0.38-0.37,0.69-0.88,1.14-1.09c0.65-0.3,1.4-0.38,2.11-0.55
			c-0.19,0.67-0.17,1.54-0.6,1.97c-3.23,3.29-6.54,6.5-9.83,9.74C0.46,320.57,0.46,319.51,0.46,318.44z"/>
		<path class="st0" d="M594.39,436.31c-2.5,2.4-4.95,4.85-7.53,7.16c-0.58,0.52-1.6,0.56-2.42,0.83c0.29-0.76,0.39-1.72,0.91-2.26
			c2.96-3.03,6.02-5.96,9.04-8.93C594.39,434.18,594.39,435.25,594.39,436.31z"/>
		<path class="st0" d="M364.59,594.39c2.61-2.64,5.18-5.32,7.85-7.89c0.41-0.39,1.26-0.32,1.91-0.46c-0.16,0.65-0.13,1.46-0.52,1.91
			c-1.95,2.2-4.01,4.31-6.04,6.44C366.72,594.39,365.65,594.39,364.59,594.39z"/>
		<path class="st0" d="M0.46,432.66c1.91-1.81,3.77-3.67,5.75-5.4c0.5-0.43,1.37-0.43,2.07-0.63c-0.17,0.71-0.11,1.63-0.54,2.08
			c-2.36,2.45-4.84,4.78-7.28,7.15C0.46,434.79,0.46,433.73,0.46,432.66z"/>
		<path class="st0" d="M230.26,0.46c-2.33,2.38-4.63,4.8-7.03,7.12c-0.37,0.36-1.17,0.29-1.77,0.42c0.11-0.65-0.01-1.5,0.36-1.93
			c1.67-1.94,3.48-3.75,5.24-5.61C228.13,0.46,229.2,0.46,230.26,0.46z"/>
		<path class="st0" d="M204.68,594.39c2.27-2.32,4.51-4.68,6.84-6.93c0.36-0.35,1.15-0.27,1.74-0.38c-0.09,0.64,0.03,1.47-0.32,1.89
			c-1.61,1.88-3.36,3.63-5.06,5.43C206.81,594.39,205.75,594.39,204.68,594.39z"/>
		<path class="st0" d="M374.26,290.23c-0.84,1.06-1.24,1.7-1.76,2.22c-10,10.01-20.01,20-30.02,30
			c-13.56,13.55-27.11,27.09-40.66,40.64c-16.3,16.29-32.61,32.58-48.9,48.88c-13.5,13.5-26.98,27.02-40.48,40.52
			c-10.38,10.38-20.77,20.76-31.2,31.09c-0.5,0.49-1.46,0.51-2.2,0.75c0.25-0.75,0.29-1.71,0.79-2.22
			c11.31-11.4,22.66-22.74,34.01-34.1c12.69-12.7,25.37-25.41,38.07-38.1c13.24-13.23,26.49-26.44,39.73-39.68
			c12.53-12.53,25.05-25.09,37.58-37.63c13.98-13.98,27.97-27.96,41.98-41.91c0.48-0.48,1.23-0.73,1.91-0.93
			C373.38,289.68,373.79,290.03,374.26,290.23z"/>
		<path class="st0" d="M292.36,461.35c2.37-2.54,4.66-5.16,7.11-7.61c20.22-20.23,40.49-40.42,60.72-60.65
			c26.25-26.26,52.47-52.54,78.72-78.8c7.9-7.91,15.82-15.8,23.74-23.7c0.32-0.32,0.61-0.78,1-0.91c0.49-0.16,1.07-0.06,1.61-0.07
			c-0.03,0.48,0.04,1.01-0.13,1.44c-0.16,0.4-0.56,0.71-0.88,1.03c-19.16,19.14-38.33,38.27-57.48,57.41
			c-10.32,10.32-20.6,20.68-30.92,30.99c-15.38,15.37-30.79,30.72-46.17,46.09c-11.35,11.35-22.68,22.72-34.04,34.06
			c-0.68,0.68-1.52,1.19-2.28,1.79C293.02,462.06,292.69,461.71,292.36,461.35z"/>
		<path class="st0" d="M329.3,381.01c-0.29-0.87-0.72-1.48-0.57-1.89c0.21-0.6,0.79-1.09,1.28-1.57
			c43.31-43.31,86.63-86.62,129.94-129.92c0.22-0.22,0.4-0.51,0.66-0.62c0.62-0.27,1.28-0.44,1.92-0.66
			c-0.14,0.71-0.03,1.66-0.45,2.09c-4.08,4.21-8.24,8.33-12.38,12.48c-32.44,32.46-64.89,64.91-97.33,97.36
			c-7.05,7.05-14.11,14.09-21.17,21.13C330.73,379.86,330.19,380.25,329.3,381.01z"/>
		<path class="st0" d="M153.62,328.31c-0.59,0.67-1.09,1.31-1.66,1.88c-14.57,14.58-29.15,29.15-43.73,43.73
			c-27.11,27.11-54.22,54.22-81.33,81.32c-0.32,0.32-0.59,0.77-0.97,0.95c-0.55,0.25-1.19,0.3-1.79,0.43
			c0.11-0.65-0.01-1.51,0.36-1.9c3.1-3.24,6.29-6.4,9.46-9.58c33.83-33.84,67.67-67.69,101.5-101.53
			c5.16-5.16,10.33-10.32,15.54-15.45c0.43-0.43,1.13-0.64,1.74-0.8C152.91,327.33,153.22,327.87,153.62,328.31z"/>
		<path class="st0" d="M295.63,254.81c-0.49,0.57-0.89,1.11-1.36,1.58c-5.75,5.77-11.5,11.53-17.26,17.29
			c-10.55,10.54-21.1,21.08-31.64,31.62c-22.66,22.65-45.32,45.3-67.98,67.96c-2.53,2.53-5,5.12-7.61,7.57
			c-0.72,0.67-1.83,0.93-2.75,1.38c0.39-0.93,0.56-2.08,1.21-2.74c17.99-18.07,36.03-36.09,54.05-54.12
			c16.58-16.58,33.15-33.15,49.73-49.73c6.94-6.94,13.87-13.89,20.84-20.8c0.47-0.47,1.24-0.69,1.91-0.88
			C294.94,253.89,295.27,254.42,295.63,254.81z"/>
		<path class="st0" d="M143.34,313.36c2.54-2.7,5.02-5.46,7.64-8.08c24.66-24.7,49.34-49.38,74.03-74.06
			c12.21-12.21,24.42-24.41,36.67-36.57c0.73-0.72,1.37-2.46,2.81-1.15c0.2,0.18-0.65,1.92-1.34,2.62
			c-15.35,15.41-30.74,30.77-46.12,46.15c-15.32,15.32-30.64,30.65-45.96,45.99c-8.28,8.28-16.54,16.58-24.83,24.85
			c-0.52,0.52-1.21,0.88-1.82,1.31C144.06,314.06,143.7,313.71,143.34,313.36z"/>
		<path class="st0" d="M267.48,145.95c-0.47-0.41-0.99-0.7-0.96-0.86c0.14-0.61,0.33-1.31,0.75-1.74c3.24-3.32,6.54-6.59,9.82-9.87
			c31.26-31.26,62.52-62.51,93.77-93.77c4.52-4.52,9.04-9.04,13.56-13.56c0.38-0.38,0.72-0.87,1.18-1.06
			c0.47-0.19,1.07-0.08,1.62-0.1c-0.08,0.55,0.03,1.26-0.27,1.61c-0.98,1.16-2.11,2.19-3.19,3.26
			c-38.09,38.08-76.17,76.17-114.26,114.25C268.88,144.73,268.2,145.29,267.48,145.95z"/>
		<path class="st0" d="M308.79,307.81c1.68-1.84,3.28-3.74,5.04-5.5c20.43-20.44,40.88-40.87,61.32-61.3
			c10.11-10.1,20.21-20.21,30.31-30.32c7.09-7.09,14.18-14.19,21.27-21.29c0.43-0.43,0.81-0.97,1.33-1.23
			c0.5-0.25,1.16-0.21,1.74-0.29c-0.1,0.6,0,1.38-0.34,1.77c-1.3,1.48-2.74,2.85-4.14,4.24c-13.31,13.25-26.66,26.46-39.94,39.74
			c-24.35,24.37-48.65,48.78-72.99,73.16c-0.78,0.78-1.72,1.41-2.59,2.11C309.46,308.55,309.13,308.18,308.79,307.81z"/>
		<path class="st0" d="M241.41,331.81c-0.66,0.81-0.96,1.25-1.33,1.62c-9.37,9.34-18.77,18.66-28.13,28.02
			c-8.28,8.28-16.51,16.61-24.79,24.9c-15.53,15.56-31.08,31.1-46.62,46.65c-5.27,5.27-10.55,10.54-15.82,15.81
			c-0.16,0.16-0.29,0.41-0.48,0.48c-0.75,0.29-1.51,0.52-2.27,0.78c0.23-0.74,0.25-1.69,0.74-2.2c2.72-2.87,5.54-5.64,8.34-8.44
			c25.13-25.11,50.27-50.22,75.39-75.33c10.38-10.38,20.75-20.78,31.12-31.17c0.59-0.59,1.15-1.29,1.88-1.62
			C239.85,331.11,240.56,331.56,241.41,331.81z"/>
		<path class="st0" d="M138.54,297.74c-0.45,0.53-0.81,1.01-1.23,1.42c-22.37,22.37-44.73,44.74-67.11,67.1
			c-11.54,11.53-23.12,23.02-34.67,34.55c-3.28,3.27-6.48,6.63-9.8,9.86c-0.52,0.5-1.49,0.53-2.25,0.78
			c0.25-0.76,0.29-1.73,0.8-2.24c9.56-9.66,19.17-19.27,28.78-28.88c22.78-22.79,45.57-45.57,68.35-68.35
			c4.84-4.84,9.66-9.69,14.52-14.49c0.43-0.43,1.13-0.67,1.74-0.78C137.87,296.66,138.2,297.31,138.54,297.74z"/>
		<path class="st0" d="M166.66,429.26c-0.37-0.39-0.83-0.67-0.81-0.9c0.04-0.48,0.22-1.04,0.54-1.38c1.89-1.98,3.83-3.91,5.77-5.85
			c7.85-7.86,15.69-15.73,23.56-23.56c7.17-7.13,14.41-14.19,21.55-21.35c14.35-14.37,28.64-28.78,42.97-43.16
			c5.64-5.66,11.3-11.29,17.01-16.87c0.45-0.44,1.33-0.43,2.01-0.63c-0.24,0.76-0.25,1.76-0.75,2.26
			c-11.41,11.5-22.88,22.94-34.33,34.39c-7.53,7.53-15.04,15.08-22.58,22.6c-7.38,7.35-14.81,14.65-22.18,22
			c-7.27,7.25-14.48,14.57-21.73,21.83c-3.17,3.17-6.39,6.3-9.6,9.44C167.67,428.47,167.2,428.81,166.66,429.26z"/>
		<path class="st0" d="M432.18,95.43c-4.31,4.39-8.59,8.81-12.93,13.17c-15.43,15.46-30.88,30.9-46.32,46.34
			c-12.43,12.43-24.87,24.85-37.31,37.27c-4.31,4.3-8.57,8.65-12.93,12.89c-0.54,0.53-1.6,0.52-2.42,0.76
			c0.31-0.75,0.44-1.69,0.97-2.23c21.97-22.03,43.99-44.02,65.99-66.03c14.36-14.37,28.7-28.75,43.06-43.12
			c0.15-0.15,0.38-0.22,0.57-0.33C431.29,94.58,431.73,95,432.18,95.43z"/>
		<path class="st0" d="M205.6,413.38c-0.44,0.51-0.79,1-1.21,1.42c-14.51,14.53-29.02,29.06-43.55,43.58
			c-15.27,15.27-30.54,30.53-45.82,45.79c-5.97,5.97-11.93,11.95-17.95,17.87c-0.52,0.51-1.48,0.57-2.24,0.84
			c0.25-0.77,0.28-1.75,0.79-2.26c10.61-10.69,21.28-21.31,31.93-31.96c22.47-22.48,44.92-44.97,67.39-67.46
			c2.8-2.8,5.61-5.58,8.46-8.32c0.35-0.33,1.02-0.42,1.54-0.43C205.14,412.44,205.34,412.99,205.6,413.38z"/>
		<path class="st0" d="M254.46,90.41c-5.5,5.57-10.96,11.17-16.49,16.71c-21.24,21.26-42.5,42.5-63.75,63.76
			c-8.92,8.93-17.84,17.86-26.77,26.78c-0.22,0.22-0.4,0.52-0.66,0.61c-0.58,0.2-1.2,0.28-1.8,0.41c0.1-0.65-0.03-1.52,0.35-1.91
			c3.16-3.29,6.41-6.5,9.64-9.72c21.52-21.51,43.04-43.01,64.55-64.52c10.92-10.92,21.84-21.84,32.76-32.75
			c0.26-0.26,0.6-0.44,0.9-0.65C253.61,89.56,254.04,89.99,254.46,90.41z"/>
		<path class="st0" d="M159.79,159.85c2.87-3.02,5.67-6.1,8.61-9.04c27.86-27.89,55.74-55.75,83.61-83.63
			c0.27-0.27,0.5-0.64,0.82-0.78c0.73-0.32,1.52-0.53,2.28-0.78c-0.26,0.76-0.31,1.73-0.82,2.24
			c-19.49,19.57-39.02,39.1-58.55,58.62c-11.08,11.08-22.17,22.16-33.27,33.23c-0.47,0.47-1.06,0.82-1.59,1.23
			C160.52,160.58,160.16,160.21,159.79,159.85z"/>
		<path class="st0" d="M368.06,228.12c-0.41-0.32-0.93-0.54-0.93-0.76c0-0.54,0.09-1.23,0.42-1.58c2.1-2.2,4.27-4.33,6.42-6.48
			c6.56-6.55,13.13-13.1,19.69-19.66c14.63-14.62,29.26-29.23,43.88-43.85c7.74-7.74,15.48-15.49,23.22-23.24
			c0.43-0.43,0.81-0.97,1.33-1.23c0.44-0.22,1.04-0.1,1.57-0.12c-0.1,0.52-0.02,1.19-0.33,1.52c-1.71,1.84-3.49,3.6-5.27,5.38
			c-12.32,12.31-24.66,24.6-36.97,36.92c-14.57,14.57-29.13,29.15-43.68,43.73c-2.63,2.64-5.2,5.34-7.81,7.99
			C369.16,227.22,368.63,227.63,368.06,228.12z"/>
		<path class="st0" d="M322.97,158.98c-5.33,5.41-10.64,10.85-16,16.22c-23.87,23.88-47.75,47.75-71.67,71.58
			c-0.8,0.79-2.85,1.73-2.95,1.59c-1.19-1.6,0.61-2.17,1.39-2.94c27.46-27.51,54.95-54.98,82.45-82.45
			c1.81-1.81,3.72-3.52,5.59-5.28C322.18,158.13,322.58,158.55,322.97,158.98z"/>
		<path class="st0" d="M357.9,558.05c-0.43-0.39-0.93-0.66-0.91-0.86c0.06-0.54,0.21-1.2,0.57-1.57c3.34-3.43,6.72-6.81,10.1-10.19
			c15.59-15.58,31.19-31.16,46.79-46.75c8.93-8.92,17.86-17.85,26.79-26.78c0.38-0.38,0.7-0.89,1.15-1.09
			c0.51-0.22,1.15-0.17,1.73-0.24c-0.1,0.59-0.1,1.23-0.34,1.76c-0.21,0.46-0.71,0.78-1.09,1.16c-18.6,18.61-37.19,37.23-55.8,55.83
			c-9.02,9.02-18.06,18.03-27.1,27.04C359.23,556.94,358.59,557.44,357.9,558.05z"/>
		<path class="st0" d="M252.71,251.87c-2.49,2.64-4.91,5.35-7.47,7.92c-25.31,25.33-50.64,50.64-75.98,75.95
			c-0.57,0.57-1.28,1-1.93,1.5c-0.38-0.34-0.77-0.69-1.15-1.03c2.1-2.26,4.14-4.59,6.33-6.78c23.57-23.6,47.16-47.19,70.77-70.75
			c2.73-2.72,5.6-5.29,8.41-7.93C252.03,251.11,252.37,251.49,252.71,251.87z"/>
		<path class="st0" d="M163.7,546.6c-0.4-0.34-0.91-0.59-0.89-0.79c0.05-0.54,0.18-1.21,0.53-1.58c2.05-2.15,4.16-4.23,6.26-6.32
			c24.36-24.36,48.72-48.73,73.12-73.06c0.75-0.75,2.65-1.67,2.77-1.52c1.25,1.57-0.48,2.2-1.29,3
			c-18.97,19.01-37.96,38-56.95,56.99c-7.32,7.32-14.63,14.63-21.96,21.94C164.84,545.73,164.29,546.12,163.7,546.6z"/>
		<path class="st0" d="M199.81,327.75c-0.94,1.08-1.49,1.78-2.11,2.41c-9.41,9.41-18.82,18.81-28.23,28.22
			c-16.34,16.35-32.67,32.71-49.06,49.02c-0.78,0.78-2.04,1.09-3.07,1.62c-0.87-1.7,0.72-2.26,1.53-3.07
			c13.47-13.52,26.98-27,40.47-40.49c12.31-12.31,24.62-24.62,36.94-36.92c0.48-0.48,0.95-1.08,1.55-1.3
			C198.24,327.08,198.86,327.48,199.81,327.75z"/>
		<path class="st0" d="M490.43,425.54c-0.45-0.38-0.97-0.64-0.95-0.83c0.06-0.54,0.21-1.2,0.57-1.57c2.75-2.84,5.56-5.63,8.35-8.43
			c9.79-9.79,19.57-19.58,29.36-29.37c12.47-12.47,24.95-24.93,37.43-37.4c0.32-0.32,0.61-0.77,1-0.91c0.55-0.2,1.18-0.16,1.77-0.23
			c-0.12,0.58-0.04,1.36-0.39,1.72c-2.95,3.07-5.98,6.07-8.99,9.08c-8.33,8.33-16.68,16.65-25.01,24.98
			c-13.82,13.81-27.64,27.63-41.46,41.44C491.6,424.53,491.04,424.99,490.43,425.54z"/>
		<path class="st0" d="M447.96,399.31c-0.82,1.01-1.23,1.63-1.75,2.14c-6.99,7-13.99,13.99-20.99,20.98
			c-12.48,12.48-24.95,24.95-37.43,37.43c-3.98,3.98-7.93,7.99-11.97,11.92c-0.52,0.51-1.5,0.55-2.27,0.81
			c0.25-0.76,0.28-1.74,0.79-2.25c15.97-16,31.99-31.93,47.98-47.91c7.37-7.37,14.69-14.79,22.04-22.19
			c0.48-0.48,0.94-1.09,1.53-1.32C446.32,398.76,446.95,399.1,447.96,399.31z"/>
		<path class="st0" d="M136.04,208.82c-0.75,0.85-1.12,1.31-1.54,1.73c-15.65,15.63-31.32,31.26-46.97,46.9
			c-7.42,7.42-14.81,14.87-22.21,22.31c-0.32,0.32-0.58,0.78-0.97,0.95c-0.49,0.2-1.08,0.17-1.62,0.23c0.06-0.6-0.11-1.4,0.21-1.75
			c1.8-1.96,3.72-3.8,5.6-5.69c21.4-21.39,42.79-42.78,64.19-64.16c0.43-0.43,0.85-1.05,1.36-1.15
			C134.6,208.08,135.21,208.52,136.04,208.82z"/>
		<path class="st0" d="M368.29,182.21c-0.42-0.28-0.93-0.44-0.96-0.68c-0.07-0.45-0.02-1.08,0.25-1.4c0.89-1.04,1.9-1.97,2.86-2.94
			c21.51-21.5,43.02-43,64.53-64.5c0.22-0.21,0.39-0.56,0.65-0.63c0.58-0.15,1.2-0.18,1.8-0.25c-0.11,0.59-0.01,1.38-0.35,1.75
			c-1.86,2-3.83,3.91-5.76,5.84c-20.48,20.48-40.96,40.96-61.45,61.44C369.37,181.32,368.84,181.73,368.29,182.21z"/>
		<path class="st0" d="M425.82,398.73c-0.43-0.39-0.94-0.66-0.91-0.86c0.07-0.54,0.23-1.19,0.6-1.57c2.48-2.57,5.01-5.1,7.53-7.62
			c19.53-19.51,39.05-39.02,58.59-58.52c0.42-0.42,0.87-0.89,1.39-1.1c0.27-0.11,1.1,0.34,1.08,0.45c-0.09,0.6-0.2,1.34-0.59,1.74
			c-3.61,3.7-7.28,7.35-10.93,11c-18.29,18.27-36.58,36.55-54.87,54.81C427.15,397.64,426.51,398.14,425.82,398.73z"/>
		<path class="st0" d="M109.76,212.19c-0.83,0.98-1.22,1.53-1.69,2c-12.36,12.37-24.73,24.73-37.1,37.09
			c-9.3,9.3-18.6,18.6-27.9,27.9c-0.22,0.22-0.38,0.53-0.64,0.64c-0.73,0.31-1.49,0.55-2.24,0.81c0.22-0.76,0.21-1.73,0.68-2.25
			c1.89-2.08,3.94-4.01,5.93-6c19.68-19.68,39.37-39.36,59.05-59.03c0.59-0.59,1.14-1.29,1.86-1.64
			C108.1,211.5,108.8,211.93,109.76,212.19z"/>
		<path class="st0" d="M81.94,171.5c-0.41,0.52-0.73,1.03-1.14,1.44c-7.5,7.45-15.03,14.85-22.5,22.33
			c-9.13,9.14-18.21,18.33-27.32,27.49c-5.2,5.22-10.4,10.44-15.66,15.6c-0.45,0.44-1.35,0.43-2.04,0.63
			c0.17-0.7,0.12-1.63,0.55-2.07c4.6-4.65,9.3-9.18,13.92-13.81c8.05-8.07,16.04-16.19,24.09-24.27
			c9.12-9.15,18.26-18.28,27.43-27.39c0.46-0.46,1.23-0.66,1.9-0.85C81.3,170.57,81.61,171.11,81.94,171.5z"/>
		<path class="st0" d="M254.46,90.41c-0.42-0.43-0.85-0.86-1.27-1.29c3.86-3.96,7.68-7.96,11.59-11.87
			c17.89-17.92,35.8-35.81,53.7-53.71c0.11-0.11,0.2-0.27,0.32-0.31c0.71-0.22,1.43-0.42,2.15-0.62c-0.2,0.71-0.19,1.62-0.63,2.09
			c-3.05,3.19-6.19,6.28-9.31,9.4c-18.44,18.44-36.88,36.89-55.33,55.32C255.31,89.79,254.87,90.09,254.46,90.41z"/>
		<path class="st0" d="M469.27,469.35c-0.35-0.37-0.7-0.73-1.05-1.1c1.4-1.57,2.72-3.21,4.2-4.7c20.05-20.08,40.13-40.14,60.2-60.2
			c0.38-0.38,0.72-0.88,1.17-1.05c0.4-0.15,1.04-0.06,1.4,0.18c0.2,0.14,0.19,0.88,0.01,1.21c-0.29,0.51-0.79,0.92-1.22,1.35
			c-21.04,21.04-42.07,42.07-63.12,63.09C470.4,468.61,469.81,468.95,469.27,469.35z"/>
		<path class="st0" d="M328.15,130.96c-0.45-0.36-0.97-0.6-0.95-0.79c0.06-0.55,0.19-1.21,0.55-1.58c2.36-2.47,4.79-4.88,7.21-7.3
			c18.6-18.59,37.21-37.17,55.83-55.75c0.41-0.41,0.89-0.83,1.42-1.01c0.25-0.08,1.01,0.48,0.98,0.62c-0.14,0.6-0.35,1.28-0.77,1.71
			c-3.51,3.58-7.07,7.12-10.62,10.66c-17.09,17.09-34.17,34.18-51.27,51.27C329.8,129.52,329,130.2,328.15,130.96z"/>
		<path class="st0" d="M193.4,448.38c-0.41-0.32-0.94-0.6-0.91-0.75c0.12-0.61,0.28-1.32,0.69-1.74c2.8-2.9,5.66-5.73,8.51-8.58
			c17.64-17.63,35.27-35.26,52.91-52.9c0.11-0.11,0.19-0.26,0.32-0.32c0.81-0.33,1.64-0.63,2.45-0.94c-0.31,0.82-0.4,1.86-0.97,2.42
			c-20.5,20.58-41.05,41.11-61.59,61.64C194.4,447.63,193.92,447.96,193.4,448.38z"/>
		<path class="st0" d="M196.35,34.15c-0.89,1.07-1.41,1.81-2.03,2.43c-6.18,6.2-12.37,12.38-18.56,18.56
			c-13.61,13.6-27.22,27.21-40.84,40.81c-0.59,0.59-1.13,1.29-1.83,1.71c-0.46,0.27-1.17,0.13-1.77,0.18
			c0.11-0.54,0.05-1.24,0.37-1.6c1.42-1.58,2.94-3.08,4.45-4.58c18.82-18.83,37.65-37.66,56.48-56.48c0.54-0.54,1.06-1.17,1.73-1.46
			C194.76,33.53,195.42,33.92,196.35,34.15z"/>
		<path class="st0" d="M512.12,175.35c-4.08,4.18-8.11,8.4-12.23,12.53c-16.39,16.41-32.8,32.79-49.2,49.18
			c-0.22,0.21-0.39,0.57-0.64,0.63c-0.63,0.15-1.29,0.18-1.94,0.25c0.14-0.58,0.09-1.34,0.45-1.72c2.46-2.59,5-5.1,7.53-7.62
			c17.95-17.96,35.9-35.93,53.86-53.88c0.26-0.26,0.62-0.41,0.93-0.61C511.28,174.52,511.7,174.94,512.12,175.35z"/>
		<path class="st0" d="M344.08,343.23c-2.54,2.7-5.02,5.46-7.63,8.08c-16.66,16.7-33.35,33.37-50.04,50.05
			c-0.16,0.16-0.29,0.42-0.49,0.47c-0.65,0.19-1.32,0.31-1.98,0.45c0.15-0.67,0.07-1.55,0.48-1.97c2.95-3.08,5.99-6.06,9.01-9.07
			c15.87-15.88,31.73-31.76,47.62-47.63c0.57-0.57,1.31-0.97,1.97-1.46C343.37,342.51,343.72,342.87,344.08,343.23z"/>
		<path class="st0" d="M316.2,485.3c-1.88,2.05-3.69,4.18-5.65,6.15c-16.82,16.86-33.68,33.7-50.52,50.54
			c-0.65,0.65-1.26,1.35-1.99,1.87c-0.35,0.25-0.96,0.13-1.46,0.18c0-0.55-0.14-1.15,0.04-1.63c0.18-0.46,0.68-0.8,1.06-1.18
			c17.38-17.38,34.75-34.76,52.15-52.12c1.7-1.7,3.55-3.25,5.33-4.87C315.5,484.59,315.85,484.95,316.2,485.3z"/>
		<path class="st0" d="M321.25,457.44c-0.21-0.96-0.54-1.57-0.4-2.01c0.17-0.53,0.74-0.94,1.16-1.37
			c18.18-18.19,36.36-36.39,54.59-54.54c0.54-0.54,1.59-0.56,2.41-0.83c-0.29,0.77-0.38,1.74-0.91,2.27
			c-18.26,18.33-36.57,36.63-54.87,54.91C322.76,456.34,322.2,456.7,321.25,457.44z"/>
		<path class="st0" d="M109.68,486.2c-0.86,0.99-1.36,1.65-1.94,2.23c-8.87,8.87-17.75,17.73-26.63,26.6
			c-10.43,10.42-20.84,20.85-31.26,31.27c-0.11,0.11-0.18,0.29-0.31,0.33c-0.63,0.23-1.27,0.42-1.9,0.62
			c0.16-0.63,0.11-1.44,0.5-1.85c2.76-2.93,5.59-5.8,8.44-8.65c16.59-16.62,33.2-33.24,49.81-49.84c0.47-0.47,0.99-0.99,1.59-1.22
			C108.33,485.55,108.89,485.94,109.68,486.2z"/>
		<path class="st0" d="M405.94,98.83c-0.49,0.58-0.89,1.11-1.35,1.57c-9.78,9.79-19.56,19.58-29.35,29.37
			c-8.28,8.28-16.57,16.55-24.86,24.82c-0.11,0.11-0.19,0.27-0.32,0.32c-0.75,0.29-1.5,0.55-2.25,0.82
			c0.23-0.76,0.25-1.73,0.74-2.25c2.44-2.61,5-5.1,7.53-7.63c15.64-15.65,31.28-31.3,46.96-46.92c0.52-0.52,1.35-0.75,2.07-1.01
			C405.24,97.87,405.56,98.4,405.94,98.83z"/>
		<path class="st0" d="M449.66,215c-0.43,0.5-0.78,0.97-1.19,1.38c-10.85,10.87-21.71,21.74-32.57,32.61
			c-7.15,7.15-14.31,14.3-21.46,21.45c-0.22,0.22-0.38,0.56-0.63,0.64c-0.63,0.21-1.31,0.32-1.96,0.46
			c0.14-0.66,0.07-1.52,0.46-1.94c2.68-2.8,5.46-5.51,8.2-8.25c15.5-15.48,31-30.97,46.52-46.42c0.46-0.46,1.22-0.67,1.87-0.87
			C449.02,214.03,449.33,214.59,449.66,215z"/>
		<path class="st0" d="M115.18,115.23c-2.53,2.69-5,5.45-7.61,8.07c-15.52,15.57-31.06,31.11-46.64,46.62
			c-0.78,0.77-1.41,2.58-2.98,1.31c-0.17-0.13,0.73-2.04,1.47-2.78c16.48-16.55,32.99-33.06,49.52-49.56
			c1.65-1.65,3.44-3.15,5.17-4.73C114.47,114.52,114.82,114.88,115.18,115.23z"/>
		<path class="st0" d="M220.96,396.63c0.24-0.64,0.3-1.46,0.74-1.9c5.35-5.5,10.75-10.96,16.16-16.4
			c7.39-7.43,14.81-14.84,22.22-22.26c5.05-5.05,10.09-10.12,15.2-15.12c0.47-0.46,1.39-0.45,2.1-0.65
			c-0.18,0.7-0.13,1.62-0.57,2.06c-12.14,12.15-24.34,24.24-36.51,36.36c-5.28,5.25-10.52,10.53-15.79,15.79
			c-0.85,0.85-1.74,1.66-2.62,2.49C221.59,396.87,221.28,396.75,220.96,396.63z"/>
		<path class="st0" d="M312.81,260.5c-0.44-0.34-1.01-0.61-0.98-0.77c0.12-0.6,0.29-1.31,0.69-1.73c2.8-2.89,5.66-5.73,8.51-8.58
			c14.03-14.03,28.06-28.05,42.1-42.07c0.38-0.38,0.7-0.87,1.15-1.09c0.52-0.26,1.16-0.28,1.74-0.4c-0.12,0.59-0.03,1.37-0.38,1.74
			c-2.58,2.78-5.22,5.52-7.9,8.21c-14.4,14.41-28.81,28.8-43.23,43.2C314,259.53,313.41,259.98,312.81,260.5z"/>
		<path class="st0" d="M264.16,263.2c-2.37,2.54-4.67,5.16-7.12,7.62c-14.92,14.97-29.88,29.91-44.86,44.82
			c-0.48,0.48-1.39,0.53-2.1,0.79c0.2-0.77,0.15-1.79,0.64-2.28c10.92-11.01,21.9-21.95,32.87-32.92
			c5.64-5.64,11.27-11.31,16.93-16.94c0.79-0.79,1.73-1.42,2.61-2.13C263.46,262.5,263.81,262.85,264.16,263.2z"/>
		<path class="st0" d="M383.79,303.62c-0.23-0.58-0.53-0.95-0.47-1.27c0.09-0.55,0.28-1.18,0.65-1.56
			c3.56-3.64,7.16-7.24,10.76-10.84c12.57-12.57,25.15-25.15,37.73-37.72c0.54-0.54,1.03-1.17,1.66-1.55
			c0.47-0.28,1.14-0.23,1.72-0.32c-0.08,0.59,0.06,1.37-0.27,1.72c-2.13,2.27-4.35,4.46-6.56,6.66
			c-14.08,14.08-28.15,28.16-42.24,42.23C386,301.75,385.13,302.44,383.79,303.62z"/>
		<path class="st0" d="M316.2,485.3c-0.35-0.35-0.7-0.71-1.05-1.06c0.92-1.08,1.77-2.23,2.77-3.23
			c15.8-15.83,31.62-31.66,47.48-47.43c0.59-0.59,1.7-0.65,2.57-0.96c-0.35,0.82-0.49,1.85-1.08,2.43
			c-12.99,13.05-26.03,26.06-39.06,39.07c-3.39,3.39-6.78,6.78-10.19,10.15C317.23,484.69,316.68,484.96,316.2,485.3z"/>
		<path class="st0" d="M166.19,336.2c0.38,0.34,0.77,0.69,1.15,1.03c-2.86,3.02-5.66,6.1-8.6,9.05
			c-13.69,13.73-27.42,27.43-41.13,41.14c-0.11,0.11-0.19,0.28-0.31,0.32c-0.77,0.28-1.54,0.54-2.32,0.8
			c0.24-0.77,0.26-1.75,0.76-2.26c3.86-3.99,7.82-7.89,11.74-11.81c12.1-12.1,24.19-24.21,36.3-36.29
			C164.5,337.44,165.38,336.85,166.19,336.2z"/>
		<path class="st0" d="M152.64,488.96c-2.75,2.91-5.45,5.88-8.27,8.71c-13.75,13.8-27.54,27.55-41.31,41.33
			c-0.22,0.21-0.4,0.56-0.65,0.62c-0.64,0.15-1.3,0.17-1.96,0.25c0.15-0.59,0.11-1.36,0.48-1.74c3.02-3.12,6.11-6.16,9.17-9.22
			c13.4-13.39,26.8-26.78,40.22-40.16c0.35-0.35,0.84-0.57,1.26-0.86C151.93,488.25,152.29,488.61,152.64,488.96z"/>
		<path class="st0" d="M434.77,184.17c-0.27-1-0.64-1.6-0.5-2.06c0.15-0.53,0.72-0.95,1.15-1.38
			c15.98-15.98,31.96-31.96,47.93-47.93c0.05-0.05,0.1-0.13,0.16-0.16c0.76-0.28,1.53-0.55,2.29-0.82
			c-0.23,0.77-0.24,1.74-0.73,2.27c-1.89,2.08-3.93,4.02-5.92,6.01c-14.05,14.03-28.1,28.07-42.16,42.09
			C436.42,182.77,435.79,183.27,434.77,184.17z"/>
		<path class="st0" d="M269.45,438.54c0.5-0.65,0.93-1.36,1.5-1.94c15.8-15.82,31.61-31.63,47.41-47.44
			c0.05-0.05,0.09-0.14,0.15-0.17c0.77-0.28,1.53-0.55,2.3-0.82c-0.23,0.76-0.24,1.74-0.73,2.26c-2.88,3.03-5.87,5.96-8.83,8.91
			c-13.02,13.01-26.04,26.02-39.07,39.02c-0.47,0.46-1.06,0.8-1.6,1.19C270.21,439.23,269.83,438.89,269.45,438.54z"/>
		<path class="st0" d="M494.62,124.41c-0.43-0.29-0.94-0.46-0.97-0.68c-0.05-0.46,0-1.1,0.29-1.41c1.43-1.57,2.94-3.07,4.45-4.58
			c14.31-14.3,28.62-28.59,42.93-42.89c0.32-0.32,0.6-0.78,0.99-0.92c0.49-0.18,1.08-0.09,1.63-0.12c-0.06,0.55,0.07,1.23-0.21,1.62
			c-0.57,0.79-1.35,1.43-2.05,2.13c-15.06,15.06-30.11,30.11-45.17,45.16C495.93,123.29,495.29,123.81,494.62,124.41z"/>
		<path class="st0" d="M324.4,134.63c-0.43,0.51-0.77,0.99-1.19,1.41c-9.61,9.64-19.22,19.27-28.83,28.9
			c-5.59,5.6-11.15,11.21-16.8,16.75c-0.69,0.67-1.83,0.88-2.77,1.3c0.41-0.93,0.6-2.09,1.27-2.76
			c14.48-14.56,29.01-29.06,43.53-43.57c0.91-0.91,1.81-1.85,2.78-2.7c0.28-0.24,0.83-0.33,1.2-0.24
			C323.88,133.78,324.07,134.23,324.4,134.63z"/>
		<path class="st0" d="M113.88,139.6c-0.44-0.31-0.95-0.5-0.96-0.71c-0.03-0.47,0.06-1.1,0.35-1.42c1.44-1.56,2.96-3.06,4.47-4.56
			c13.5-13.5,27-26.99,40.5-40.48c0.22-0.22,0.4-0.54,0.65-0.62c0.69-0.22,1.42-0.34,2.13-0.5c-0.19,0.65-0.18,1.51-0.6,1.93
			c-11.11,11.15-22.28,22.25-33.42,33.37c-3.87,3.87-7.7,7.78-11.56,11.66C114.98,138.73,114.45,139.12,113.88,139.6z"/>
		<path class="st0" d="M159.79,159.85c0.36,0.36,0.73,0.73,1.09,1.09c-3.03,3.17-6.01,6.4-9.1,9.51
			c-11.59,11.64-23.21,23.26-34.87,34.83c-0.7,0.69-2.46,1.54-2.63,1.34c-1.27-1.45,0.44-2.09,1.17-2.82
			c14.22-14.29,28.49-28.53,42.76-42.77C158.66,160.57,159.26,160.24,159.79,159.85z"/>
		<path class="st0" d="M322.97,158.98c-0.4-0.43-0.8-0.85-1.2-1.28c3.96-4.08,7.87-8.2,11.88-12.23
			c10.36-10.41,20.75-20.8,31.18-31.14c0.72-0.71,1.27-2.51,2.77-1.29c0.2,0.16-0.61,2.05-1.33,2.78
			c-14.11,14.2-28.26,28.34-42.42,42.49C323.6,158.57,323.27,158.76,322.97,158.98z"/>
		<path class="st0" d="M512.12,175.35c-0.42-0.41-0.83-0.83-1.25-1.24c4.78-4.88,9.52-9.8,14.35-14.64
			c9.51-9.54,19.06-19.05,28.59-28.56c0.38-0.38,0.7-0.88,1.16-1.07c0.41-0.17,1.12-0.18,1.4,0.07c0.24,0.22,0.14,0.91,0.05,1.37
			c-0.05,0.25-0.38,0.46-0.59,0.67c-14.26,14.26-28.53,28.51-42.8,42.76C512.76,174.96,512.42,175.14,512.12,175.35z"/>
		<path class="st0" d="M73.68,225.48c-0.41-0.26-0.97-0.46-0.96-0.64c0.03-0.55,0.11-1.24,0.46-1.6c1.99-2.1,4.05-4.12,6.1-6.16
			c11.56-11.56,23.13-23.11,34.69-34.67c0.32-0.32,0.6-0.78,0.99-0.92c0.47-0.17,1.05-0.06,1.58-0.08c-0.05,0.53,0.1,1.24-0.18,1.55
			c-1.48,1.63-3.07,3.16-4.63,4.72c-12.14,12.16-24.28,24.31-36.43,36.46C74.81,224.63,74.25,225.01,73.68,225.48z"/>
		<path class="st0" d="M264.16,263.2c-0.35-0.35-0.7-0.7-1.05-1.05c2.26-2.43,4.45-4.93,6.8-7.28
			c11.54-11.58,23.11-23.13,34.72-34.63c0.53-0.53,1.59-0.52,2.4-0.76c-0.31,0.75-0.43,1.69-0.96,2.23
			c-13.4,13.49-26.84,26.93-40.28,40.37C265.33,262.53,264.71,262.83,264.16,263.2z"/>
		<path class="st0" d="M514.99,241.03c-0.44,0.53-0.78,1.02-1.2,1.43c-11.92,11.93-23.85,23.86-35.78,35.78
			c-1.56,1.56-3.06,3.17-4.7,4.64c-0.41,0.37-1.23,0.29-1.87,0.42c0.13-0.65,0.04-1.53,0.43-1.92
			c10.01-10.08,20.08-20.11,30.13-30.15c3.5-3.49,6.97-7,10.49-10.46c0.39-0.38,0.98-0.67,1.51-0.74
			C514.27,240,514.6,240.61,514.99,241.03z"/>
		<path class="st0" d="M330.34,60.11c-0.83,1-1.22,1.55-1.68,2.01c-8.6,8.61-17.2,17.21-25.81,25.81c-3.33,3.33-6.67,6.67-10,10
			c-0.32,0.32-0.6,0.72-0.97,0.96c-0.91,0.58-1.41,2.38-2.86,1.2c-0.18-0.15,0.64-1.91,1.3-2.65c1.78-1.97,3.73-3.8,5.61-5.68
			c10.17-10.16,20.33-20.32,30.51-30.48c0.54-0.54,1.03-1.21,1.69-1.5C328.58,59.58,329.28,59.92,330.34,60.11z"/>
		<path class="st0" d="M218.94,194.42c-0.28-0.88-0.71-1.5-0.57-1.94c0.2-0.6,0.79-1.09,1.27-1.57c12-12.01,23.99-24.02,36.03-35.98
			c0.79-0.78,1.69-2.79,2.99-1.45c1.3,1.34-0.76,2.18-1.54,2.96c-11.96,12.04-23.97,24.03-35.98,36.02
			C220.57,193.05,219.92,193.56,218.94,194.42z"/>
		<path class="st0" d="M245.57,439.34c0.43,0.31,0.93,0.5,0.95,0.73c0.04,0.46-0.04,1.08-0.33,1.39c-1.55,1.67-3.17,3.28-4.78,4.89
			c-10.43,10.42-20.86,20.83-31.29,31.24c-0.05,0.05-0.1,0.14-0.16,0.16c-0.76,0.29-1.52,0.57-2.29,0.85
			c0.24-0.76,0.25-1.73,0.74-2.25c2.49-2.66,5.09-5.22,7.67-7.8c9.25-9.24,18.5-18.47,27.76-27.69
			C244.37,440.35,244.95,439.89,245.57,439.34z"/>
		<path class="st0" d="M454.81,323.98c-0.42,0.54-0.73,1.03-1.14,1.44c-11.87,11.89-23.74,23.78-35.67,35.62
			c-0.49,0.49-1.48,0.47-2.24,0.68c0.23-0.7,0.26-1.59,0.72-2.06c11.89-11.98,23.82-23.91,35.78-35.83c0.42-0.42,1.14-0.6,1.76-0.74
			C454.17,323.06,454.46,323.58,454.81,323.98z"/>
		<path class="st0" d="M127.33,560.2c-0.34-0.8-0.79-1.35-0.7-1.79c0.11-0.52,0.65-0.99,1.07-1.41
			c11.35-11.36,22.7-22.71,34.06-34.06c0.22-0.22,0.4-0.53,0.66-0.62c0.63-0.24,1.3-0.38,1.95-0.56c-0.16,0.7-0.08,1.63-0.5,2.08
			c-3.97,4.1-8.03,8.11-12.06,12.14c-7.53,7.53-15.07,15.06-22.61,22.58C128.72,559.03,128.19,559.44,127.33,560.2z"/>
		<path class="st0" d="M479.61,479.67c2.32-2.49,4.58-5.04,6.98-7.45c9.45-9.48,18.94-18.92,28.42-28.37
			c0.16-0.16,0.3-0.41,0.49-0.47c0.69-0.19,1.4-0.32,2.1-0.47c-0.2,0.65-0.21,1.48-0.64,1.91c-4.57,4.68-9.19,9.31-13.82,13.94
			c-6.88,6.89-13.76,13.77-20.67,20.64c-0.52,0.52-1.19,0.89-1.8,1.33C480.33,480.38,479.97,480.02,479.61,479.67z"/>
		<path class="st0" d="M481.2,69.22c-0.53,0.62-0.97,1.21-1.5,1.74c-9.45,9.46-18.91,18.92-28.36,28.38
			c-1.93,1.93-3.82,3.92-5.83,5.77c-0.48,0.44-1.39,0.43-2.1,0.63c0.2-0.71,0.19-1.63,0.64-2.09c6.18-6.28,12.43-12.5,18.67-18.73
			c5.32-5.32,10.64-10.64,15.99-15.92c0.41-0.41,1.12-0.58,1.72-0.7C480.6,68.26,480.88,68.82,481.2,69.22z"/>
		<path class="st0" d="M148.8,241.84c-0.45-0.26-1.03-0.48-1.02-0.62c0.07-0.61,0.14-1.37,0.53-1.77c2.85-2.96,5.77-5.85,8.67-8.75
			c8.51-8.49,17.01-16.99,25.52-25.48c0.27-0.27,0.48-0.68,0.8-0.8c0.64-0.23,1.33-0.3,2-0.43c-0.15,0.65-0.09,1.52-0.49,1.93
			c-3.17,3.29-6.42,6.49-9.65,9.71c-8.29,8.28-16.57,16.56-24.86,24.84C149.85,240.93,149.34,241.35,148.8,241.84z"/>
		<path class="st0" d="M264.83,559.82c-0.44-0.27-1.02-0.48-1-0.63c0.07-0.62,0.14-1.38,0.53-1.79c2.64-2.74,5.36-5.39,8.05-8.08
			c8.67-8.65,17.33-17.3,25.99-25.95c0.38-0.38,0.7-0.88,1.15-1.08c0.4-0.18,1.13-0.2,1.38,0.05c0.25,0.25,0.21,0.98,0.04,1.38
			c-0.2,0.46-0.69,0.79-1.07,1.17c-11.18,11.19-22.37,22.38-33.55,33.56C265.89,558.92,265.37,559.34,264.83,559.82z"/>
		<path class="st0" d="M212.7,520.49c-0.41-0.36-0.89-0.6-0.9-0.86c-0.02-0.46,0.12-1.05,0.42-1.37c1.56-1.66,3.18-3.26,4.79-4.87
			c9.6-9.62,19.2-19.25,28.85-28.82c0.49-0.48,1.46-0.48,2.21-0.7c-0.2,0.7-0.17,1.62-0.62,2.07
			c-10.97,11.05-21.99,22.04-33.02,33.04C213.91,519.5,213.31,519.96,212.7,520.49z"/>
		<path class="st0" d="M178.91,257.25c-0.88,1.04-1.33,1.64-1.85,2.16c-8.17,8.17-16.35,16.34-24.52,24.51
			c-2.53,2.52-5.02,5.08-7.62,7.54c-0.49,0.47-1.38,0.52-2.08,0.77c0.21-0.76,0.18-1.76,0.67-2.25
			c10.54-10.63,21.14-21.21,31.73-31.8c0.48-0.48,0.94-1.1,1.54-1.32C177.25,256.7,177.9,257.05,178.91,257.25z"/>
		<path class="st0" d="M107.95,556.8c-0.45-0.26-1.02-0.44-1.02-0.62c0-0.53,0.06-1.22,0.39-1.57c1.87-2,3.82-3.92,5.75-5.85
			c8.7-8.71,17.39-17.43,26.14-26.09c0.79-0.78,2.05-1.08,3.1-1.6c-0.52,1.04-0.81,2.3-1.59,3.08
			c-10.38,10.47-20.82,20.87-31.25,31.28C109,555.9,108.48,556.32,107.95,556.8z"/>
		<path class="st0" d="M325.9,544.36c-0.29-0.91-0.68-1.49-0.56-1.94c0.14-0.53,0.69-0.97,1.11-1.4
			c10.15-10.17,20.32-20.34,30.48-30.5c0.37-0.37,0.73-0.85,1.19-1.03c0.4-0.15,1.02-0.07,1.38,0.17c0.19,0.12,0.18,0.89-0.02,1.19
			c-0.4,0.63-0.97,1.16-1.51,1.7c-9.89,9.9-19.79,19.79-29.7,29.68C327.66,542.85,326.96,543.42,325.9,544.36z"/>
		<path class="st0" d="M512.24,152.43c-0.43-0.32-0.96-0.55-0.95-0.74c0.05-0.54,0.18-1.21,0.53-1.58c2.64-2.74,5.32-5.43,8.01-8.12
			c7.63-7.64,15.28-15.27,22.91-22.9c0.22-0.22,0.39-0.56,0.64-0.63c0.58-0.17,1.2-0.21,1.8-0.31c-0.08,0.6,0.06,1.41-0.28,1.78
			c-1.8,1.95-3.73,3.8-5.61,5.68c-8.5,8.49-17,16.98-25.5,25.47C513.34,151.54,512.8,151.94,512.24,152.43z"/>
		<path class="st0" d="M320.18,319.31c0.44-0.59,0.81-1.25,1.33-1.77c9.92-9.96,19.86-19.9,29.79-29.84
			c0.27-0.27,0.5-0.65,0.83-0.77c0.67-0.23,1.38-0.32,2.08-0.46c-0.18,0.64-0.16,1.46-0.56,1.89c-1.92,2.06-3.94,4.01-5.93,5.99
			c-8.22,8.22-16.44,16.44-24.68,24.64c-0.52,0.51-1.18,0.88-1.77,1.32C320.9,319.98,320.54,319.64,320.18,319.31z"/>
		<path class="st0" d="M159.55,390.8c-0.84,1-1.27,1.6-1.79,2.11c-9.18,9.19-18.37,18.37-27.55,27.55
			c-0.86,0.86-1.64,1.82-2.59,2.56c-0.49,0.38-1.27,0.39-1.91,0.56c0.15-0.69,0.08-1.61,0.5-2.05c4.13-4.25,8.33-8.42,12.52-12.62
			c5.74-5.75,11.49-11.5,17.24-17.25c0.48-0.48,0.95-1.08,1.54-1.31C157.93,390.2,158.56,390.56,159.55,390.8z"/>
		<path class="st0" d="M90.28,300.28c-0.41-0.32-0.95-0.55-0.94-0.75c0.03-0.54,0.14-1.21,0.49-1.57c2.63-2.74,5.33-5.42,8.01-8.1
			c6.76-6.77,13.53-13.53,20.29-20.3c0.21-0.21,0.39-0.52,0.65-0.63c0.73-0.3,1.5-0.51,2.26-0.76c-0.22,0.76-0.22,1.73-0.7,2.24
			c-2.78,2.91-5.69,5.7-8.53,8.54c-6.66,6.65-13.31,13.32-19.97,19.97C91.37,299.39,90.84,299.8,90.28,300.28z"/>
		<path class="st0" d="M292.36,461.35c0.33,0.36,0.66,0.71,0.99,1.07c-2.26,2.43-4.44,4.93-6.78,7.28
			c-7.67,7.71-15.38,15.38-23.12,23.02c-0.47,0.46-1.35,0.51-2.03,0.76c0.14-0.69,0.05-1.62,0.46-2.05
			c9.68-9.79,19.42-19.53,29.16-29.26C291.4,461.82,291.91,461.62,292.36,461.35z"/>
		<path class="st0" d="M161.92,205.74c-0.4-0.36-0.91-0.64-0.89-0.85c0.06-0.54,0.23-1.18,0.59-1.55c2.48-2.58,5.01-5.1,7.54-7.63
			c6.77-6.78,13.55-13.55,20.33-20.33c0.27-0.27,0.5-0.64,0.82-0.78c0.62-0.25,1.29-0.37,1.94-0.54c-0.16,0.71-0.08,1.64-0.51,2.09
			c-2.94,3.08-6,6.05-9.01,9.06c-6.41,6.39-12.81,12.79-19.22,19.18C163.05,204.86,162.51,205.25,161.92,205.74z"/>
		<path class="st0" d="M513.88,513.93c1.78-1.94,3.5-3.95,5.36-5.81c8.04-8.09,16.11-16.14,24.22-24.16
			c0.52-0.51,1.51-0.56,2.28-0.82c-0.2,0.72-0.18,1.66-0.64,2.12c-9.74,9.82-19.54,19.58-29.34,29.35c-0.2,0.2-0.53,0.26-0.79,0.39
			C514.59,514.64,514.23,514.29,513.88,513.93z"/>
		<path class="st0" d="M126.42,241.35c-0.42-0.31-0.95-0.53-0.95-0.74c0.01-0.53,0.11-1.2,0.44-1.55c2.63-2.74,5.31-5.42,8-8.11
			c6.65-6.66,13.32-13.31,19.97-19.96c0.27-0.27,0.49-0.65,0.82-0.78c0.61-0.24,1.28-0.34,1.92-0.5c-0.16,0.7-0.08,1.63-0.51,2.07
			c-3.91,4.03-7.9,7.99-11.87,11.96c-5.42,5.42-10.85,10.84-16.28,16.25C127.49,240.45,126.97,240.86,126.42,241.35z"/>
		<path class="st0" d="M304.78,473.88c-0.49,0.65-0.92,1.37-1.48,1.94c-8.95,8.99-17.93,17.96-26.9,26.93
			c-0.27,0.27-0.5,0.64-0.83,0.77c-0.62,0.26-1.29,0.38-1.95,0.56c0.15-0.7,0.08-1.62,0.5-2.06c4.4-4.52,8.88-8.96,13.34-13.41
			c4.84-4.83,9.67-9.67,14.52-14.48c0.53-0.52,1.17-0.93,1.76-1.39C304.09,473.12,304.44,473.5,304.78,473.88z"/>
		<path class="st0" d="M547.33,345.7c-0.38,0.49-0.67,0.94-1.03,1.31c-9.39,9.43-18.78,18.87-28.21,28.25
			c-0.42,0.41-1.29,0.36-1.96,0.53c0.16-0.71,0.09-1.67,0.52-2.11c9.32-9.39,18.7-18.72,28.1-28.04c0.45-0.45,1.22-0.62,1.87-0.79
			C546.77,344.82,547.06,345.36,547.33,345.7z"/>
		<path class="st0" d="M510.15,382.92c-0.48,0.59-0.85,1.16-1.32,1.63c-8.92,8.94-17.84,17.89-26.81,26.77
			c-0.75,0.75-2.7,1.63-2.82,1.47c-1.21-1.57,0.57-2.23,1.34-3.01c8.88-8.98,17.82-17.89,26.78-26.79c0.53-0.52,1.38-0.73,2.12-0.98
			C509.54,381.97,509.85,382.52,510.15,382.92z"/>
		<path class="st0" d="M152.64,488.96c-0.36-0.36-0.71-0.72-1.07-1.07c2.05-2.21,4.05-4.48,6.17-6.62
			c7.44-7.49,14.92-14.95,22.44-22.37c0.5-0.49,1.47-0.51,2.21-0.75c-0.25,0.75-0.29,1.7-0.78,2.2
			c-9.15,9.23-18.34,18.41-27.54,27.58C153.67,488.35,153.12,488.63,152.64,488.96z"/>
		<path class="st0" d="M247.63,120.04c-0.35-0.25-0.88-0.45-0.88-0.66c0-0.53,0.06-1.22,0.39-1.57c1.55-1.67,3.21-3.24,4.82-4.86
			c7.43-7.41,14.84-14.84,22.31-22.21c0.5-0.5,1.47-0.52,2.21-0.77c-0.26,0.74-0.32,1.69-0.82,2.2
			c-8.88,8.97-17.81,17.89-26.74,26.81C248.56,119.34,248.12,119.64,247.63,120.04z"/>
		<path class="st0" d="M482.6,22.07c-0.73,0.89-1.08,1.39-1.5,1.81c-8.7,8.72-17.41,17.43-26.12,26.14
			c-0.16,0.16-0.29,0.41-0.48,0.47c-0.65,0.21-1.32,0.36-1.98,0.53c0.14-0.66,0.07-1.48,0.45-1.94c1.12-1.34,2.41-2.53,3.64-3.77
			c7.58-7.58,15.17-15.15,22.75-22.73c0.37-0.37,0.74-0.95,1.17-1.02C481.08,21.48,481.69,21.83,482.6,22.07z"/>
		<path class="st0" d="M300.06,135.93c-2.42,2.6-4.77,5.26-7.27,7.77c-6.49,6.53-13.02,13.02-19.59,19.47
			c-0.51,0.5-1.46,0.56-2.21,0.82c0.23-0.75,0.24-1.72,0.73-2.21c8.66-8.77,17.38-17.48,26.1-26.19c0.31-0.31,0.74-0.5,1.11-0.75
			C299.31,135.21,299.69,135.57,300.06,135.93z"/>
		<path class="st0" d="M546.98,163.3c-0.36,0.46-0.63,0.91-0.99,1.27c-8.66,8.67-17.31,17.35-26.02,25.97
			c-0.45,0.45-1.39,0.41-2.1,0.6c0.22-0.71,0.22-1.63,0.69-2.1c8.57-8.65,17.18-17.26,25.82-25.83c0.46-0.46,1.25-0.64,1.92-0.82
			C546.42,162.37,546.71,162.94,546.98,163.3z"/>
		<path class="st0" d="M439.89,361.71c-0.7,0.9-1.02,1.41-1.44,1.83c-8.39,8.39-16.78,16.77-25.18,25.15
			c-0.32,0.32-0.62,0.74-1.01,0.9c-0.42,0.17-0.94,0.08-1.42,0.1c0.01-0.52-0.21-1.24,0.05-1.54c1.47-1.64,3.04-3.19,4.6-4.75
			c6.98-7,13.98-13.98,20.97-20.97c0.43-0.43,0.84-1.04,1.35-1.18C438.33,361.12,438.98,361.49,439.89,361.71z"/>
		<path class="st0" d="M378.92,56.86c-0.58,0.79-1.06,1.67-1.74,2.36c-5.76,5.82-11.55,11.61-17.33,17.41
			c-2.46,2.47-4.88,4.99-7.43,7.36c-0.63,0.59-1.71,0.7-2.58,1.03c0.32-0.8,0.43-1.82,0.99-2.38c8.11-8.18,16.26-16.32,24.44-24.43
			c0.84-0.83,1.88-1.46,2.83-2.19C378.37,56.3,378.65,56.58,378.92,56.86z"/>
		<path class="st0" d="M244.21,189.43c0.43,0.39,0.93,0.66,0.91,0.88c-0.05,0.54-0.19,1.19-0.55,1.56c-2.37,2.46-4.8,4.86-7.22,7.26
			c-5.96,5.93-11.92,11.86-17.89,17.79c-0.32,0.32-0.59,0.78-0.98,0.93c-0.54,0.22-1.18,0.21-1.77,0.29
			c0.12-0.6,0.05-1.37,0.39-1.78c0.97-1.16,2.1-2.19,3.17-3.26c7.34-7.33,14.69-14.66,22.04-21.99
			C242.89,190.54,243.53,190.04,244.21,189.43z"/>
		<path class="st0" d="M366.68,457.86c-0.36-0.26-0.9-0.47-0.9-0.67c0-0.53,0.09-1.22,0.42-1.57c2.58-2.69,5.23-5.31,7.87-7.95
			c5.65-5.65,11.3-11.29,16.96-16.93c0.42-0.42,0.88-0.89,1.41-1.1c0.29-0.12,1.13,0.32,1.12,0.41c-0.1,0.6-0.19,1.34-0.59,1.74
			c-3.99,4.07-8.04,8.1-12.08,12.13c-4.25,4.25-8.51,8.49-12.78,12.73C367.7,457.07,367.21,457.42,366.68,457.86z"/>
		<path class="st0" d="M541.03,306.36c-0.37,0.46-0.66,0.9-1.02,1.27c-8.22,8.24-16.43,16.47-24.7,24.66
			c-0.46,0.46-1.39,0.45-2.1,0.66c0.19-0.71,0.16-1.64,0.61-2.1c8.18-8.27,16.41-16.5,24.67-24.69c0.45-0.45,1.25-0.58,1.92-0.74
			C540.53,305.4,540.79,305.99,541.03,306.36z"/>
		<path class="st0" d="M45.9,458.88c-0.41-0.32-0.95-0.58-0.92-0.75c0.1-0.61,0.23-1.34,0.63-1.76c2.58-2.69,5.24-5.31,7.87-7.94
			c4.95-4.95,9.9-9.9,14.85-14.85c0.27-0.27,0.5-0.65,0.82-0.78c0.68-0.28,1.4-0.42,2.11-0.62c-0.19,0.69-0.16,1.59-0.6,2.05
			c-2.99,3.14-6.08,6.18-9.14,9.25c-4.68,4.68-9.36,9.36-14.06,14.03C47,457.98,46.47,458.38,45.9,458.88z"/>
		<path class="st0" d="M460.28,387.17c-0.42-0.35-0.95-0.62-0.92-0.79c0.11-0.61,0.25-1.33,0.65-1.74c2.69-2.79,5.44-5.51,8.18-8.25
			c4.88-4.89,9.77-9.77,14.66-14.66c0.21-0.21,0.4-0.56,0.65-0.62c0.64-0.16,1.31-0.19,1.97-0.28c-0.15,0.6-0.11,1.38-0.48,1.77
			c-2.08,2.21-4.26,4.33-6.41,6.47c-5.59,5.58-11.17,11.16-16.76,16.73C461.36,386.27,460.84,386.67,460.28,387.17z"/>
		<path class="st0" d="M308.79,307.81c0.34,0.37,0.67,0.74,1.01,1.11c-0.86,1.03-1.64,2.14-2.58,3.09
			c-6.86,6.9-13.73,13.78-20.66,20.61c-0.48,0.47-1.39,0.51-2.09,0.75c0.16-0.71,0.08-1.65,0.51-2.09
			c7.63-7.74,15.32-15.41,23.01-23.09C308.18,307.98,308.52,307.93,308.79,307.81z"/>
		<path class="st0" d="M471.79,329.84c-0.64,0.81-0.96,1.32-1.38,1.73c-7.18,7.2-14.36,14.4-21.61,21.54
			c-0.54,0.54-1.58,0.57-2.39,0.84c0.28-0.76,0.36-1.71,0.87-2.24c3.26-3.39,6.61-6.69,9.94-10.03c3.86-3.87,7.72-7.74,11.58-11.6
			c0.37-0.37,0.79-0.91,1.22-0.95C470.5,329.09,471.04,329.52,471.79,329.84z"/>
		<path class="st0" d="M358.66,488.7c-0.74,0.89-1.09,1.37-1.5,1.78c-7.08,7.09-14.16,14.17-21.24,21.25
			c-0.27,0.27-0.51,0.65-0.83,0.76c-0.5,0.17-1.07,0.16-1.61,0.23c0.07-0.59-0.09-1.38,0.24-1.73c1.96-2.11,4.03-4.11,6.06-6.15
			c5.2-5.22,10.4-10.43,15.6-15.64c0.37-0.37,0.75-0.94,1.18-1.01C357.11,488.1,357.72,488.44,358.66,488.7z"/>
		<path class="st0" d="M295.52,437.7c-0.35-0.23-0.91-0.46-0.89-0.63c0.06-0.6,0.15-1.34,0.53-1.74c2.3-2.43,4.67-4.8,7.04-7.16
			c4.68-4.67,9.36-9.36,14.11-13.96c0.49-0.47,1.46-0.45,2.21-0.65c-0.24,0.7-0.29,1.58-0.76,2.06
			c-6.95,7.03-13.96,14.01-20.96,20.99C296.42,436.97,296,437.29,295.52,437.7z"/>
		<path class="st0" d="M516.45,79.34c-0.35,0.48-0.61,0.94-0.97,1.3c-8.04,8.06-16.08,16.12-24.16,24.14
			c-0.38,0.38-1.16,0.37-1.75,0.55c0.12-0.66,0.01-1.55,0.41-1.95c8.01-8.09,16.06-16.13,24.14-24.14c0.4-0.4,1.15-0.48,1.76-0.61
			C516,78.6,516.22,79.04,516.45,79.34z"/>
		<path class="st0" d="M479.61,479.67c0.36,0.36,0.71,0.71,1.07,1.07c-0.28,0.44-0.49,0.94-0.84,1.3
			c-6.86,6.89-13.73,13.78-20.66,20.6c-0.43,0.42-1.36,0.32-2.07,0.46c0.19-0.65,0.17-1.5,0.59-1.93
			c6.83-6.92,13.72-13.79,20.61-20.65C478.67,480.16,479.18,479.95,479.61,479.67z"/>
		<path class="st0" d="M498.62,211.66c-0.41,0.53-0.73,1.03-1.14,1.44c-6.56,6.57-13.11,13.16-19.73,19.67
			c-0.49,0.48-1.48,0.44-2.23,0.64c0.23-0.7,0.25-1.6,0.71-2.07c6.58-6.66,13.2-13.27,19.86-19.86c0.42-0.41,1.13-0.59,1.74-0.72
			C498,210.73,498.28,211.26,498.62,211.66z"/>
		<path class="st0" d="M122.83,176.37c-0.35-0.24-0.89-0.44-0.9-0.65c-0.01-0.53,0.04-1.22,0.37-1.57c1.7-1.84,3.49-3.61,5.26-5.39
			c4.83-4.85,9.68-9.69,14.52-14.53c0.22-0.22,0.4-0.53,0.66-0.62c0.59-0.21,1.21-0.32,1.83-0.47c-0.09,0.67,0.06,1.55-0.31,1.96
			c-1.74,1.91-3.63,3.68-5.46,5.51c-4.9,4.89-9.79,9.79-14.69,14.67C123.73,175.66,123.3,175.97,122.83,176.37z"/>
		<path class="st0" d="M321.7,228.71c-0.41-0.32-0.92-0.54-0.92-0.76c-0.01-0.48,0.1-1.08,0.41-1.41c1.56-1.67,3.18-3.27,4.79-4.89
			c4.89-4.9,9.79-9.79,14.68-14.69c0.38-0.38,0.71-0.86,1.16-1.08c0.41-0.21,0.96-0.13,1.46-0.18c0,0.55,0.09,1.12-0.03,1.63
			c-0.08,0.32-0.46,0.59-0.73,0.85c-6.4,6.4-12.81,12.79-19.22,19.18C322.82,227.84,322.28,228.23,321.7,228.71z"/>
		<path class="st0" d="M403.69,397.95c-0.47,0.61-0.83,1.18-1.29,1.65c-6.38,6.39-12.76,12.79-19.2,19.12
			c-0.51,0.51-1.49,0.54-2.25,0.8c0.24-0.75,0.25-1.72,0.74-2.22c6.33-6.45,12.71-12.84,19.12-19.2c0.53-0.52,1.36-0.77,2.09-1.03
			C403.03,397.03,403.35,397.56,403.69,397.95z"/>
		<path class="st0" d="M246.27,52.65c-0.6,0.85-0.87,1.39-1.28,1.8c-6.38,6.39-12.79,12.77-19.19,19.15
			c-0.22,0.21-0.42,0.52-0.68,0.59c-0.51,0.15-1.06,0.17-1.6,0.25c0.06-0.59-0.1-1.36,0.22-1.73c1.19-1.38,2.52-2.63,3.81-3.92
			c5.2-5.22,10.4-10.44,15.61-15.64c0.42-0.42,0.91-0.88,1.45-1.03C245,52.01,245.52,52.39,246.27,52.65z"/>
		<path class="st0" d="M114.87,92.9c-0.41,0.5-0.75,0.99-1.16,1.41c-6.33,6.34-12.66,12.69-19.04,18.97
			c-0.47,0.47-1.38,0.5-2.08,0.73c0.22-0.76,0.22-1.75,0.71-2.25c6.28-6.39,12.61-12.71,18.98-19.01c0.46-0.46,1.26-0.62,1.93-0.8
			C114.31,91.91,114.59,92.48,114.87,92.9z"/>
		<path class="st0" d="M344.08,343.23c-0.35-0.36-0.71-0.72-1.06-1.08c1.89-2.04,3.73-4.14,5.68-6.12c4.52-4.6,9.1-9.14,13.66-13.7
			c0.38-0.38,0.71-0.86,1.17-1.06c0.46-0.21,1.05-0.13,1.59-0.17c-0.04,0.54,0.13,1.26-0.15,1.58c-1.14,1.31-2.42,2.51-3.65,3.75
			c-5.25,5.26-10.51,10.53-15.78,15.77C345.12,342.62,344.57,342.89,344.08,343.23z"/>
		<path class="st0" d="M402.5,239.07c-0.67,0.92-0.92,1.37-1.27,1.73c-6.23,6.25-12.45,12.5-18.74,18.69
			c-0.44,0.44-1.37,0.38-2.08,0.55c0.22-0.7,0.24-1.61,0.7-2.08c6.15-6.22,12.35-12.39,18.57-18.53c0.42-0.41,1.1-0.63,1.7-0.76
			C401.69,238.59,402.09,238.9,402.5,239.07z"/>
		<path class="st0" d="M486.17,178.46c-0.42-0.35-0.87-0.55-0.91-0.81c-0.06-0.39,0.03-0.94,0.28-1.22c1.17-1.29,2.4-2.53,3.63-3.76
			c5.04-5.05,10.06-10.11,15.15-15.09c0.46-0.45,1.39-0.4,2.1-0.59c-0.21,0.71-0.2,1.63-0.66,2.09
			c-5.85,5.95-11.76,11.83-17.67,17.72C487.53,177.37,486.87,177.86,486.17,178.46z"/>
		<path class="st0" d="M174.42,510.73c0.97-1.13,1.88-2.33,2.92-3.39c4.96-5.02,9.96-10,14.96-14.99c0.38-0.38,0.73-0.84,1.19-1.04
			c0.4-0.18,1.17-0.24,1.36-0.01c0.25,0.3,0.18,0.96,0.06,1.43c-0.08,0.33-0.45,0.59-0.72,0.86c-5.91,5.9-11.81,11.8-17.73,17.68
			c-0.25,0.25-0.64,0.37-0.96,0.55C175.14,511.46,174.78,511.1,174.42,510.73z"/>
		<path class="st0" d="M433.93,433.98c0.36,0.37,0.73,0.74,1.09,1.11c-1.64,1.77-3.24,3.58-4.93,5.3
			c-4.27,4.33-8.57,8.65-12.92,12.9c-0.53,0.52-1.47,0.61-2.22,0.9c0.25-0.81,0.26-1.85,0.79-2.39
			c5.64-5.76,11.36-11.45,17.07-17.14C433.1,434.35,433.55,434.2,433.93,433.98z"/>
		<path class="st0" d="M269.45,438.54c0.38,0.34,0.76,0.69,1.14,1.03c-2.17,2.32-4.29,4.68-6.52,6.94
			c-3.9,3.96-7.83,7.89-11.82,11.75c-0.44,0.43-1.36,0.35-2.06,0.51c0.18-0.65,0.16-1.5,0.57-1.92
			c5.87-5.97,11.79-11.88,17.72-17.79C268.73,438.82,269.12,438.71,269.45,438.54z"/>
		<path class="st0" d="M250.06,323.23c-0.43-0.25-0.92-0.37-1-0.62c-0.12-0.38-0.1-0.97,0.13-1.26c0.56-0.71,1.28-1.29,1.92-1.93
			c5.1-5.11,10.17-10.24,15.31-15.3c0.53-0.52,1.48-0.61,2.23-0.9c-0.25,0.8-0.27,1.83-0.79,2.37c-5.36,5.49-10.8,10.9-16.23,16.32
			C251.17,322.37,250.62,322.77,250.06,323.23z"/>
		<path class="st0" d="M174.61,558.59c-0.45,0.55-0.79,1.05-1.21,1.46c-5.42,5.42-10.83,10.85-16.31,16.21
			c-0.49,0.48-1.45,0.5-2.19,0.73c0.25-0.74,0.3-1.69,0.8-2.19c5.36-5.48,10.78-10.9,16.23-16.29c0.48-0.48,1.22-0.74,1.89-0.95
			C173.95,557.52,174.3,558.17,174.61,558.59z"/>
		<path class="st0" d="M218.97,148.66c-0.35,0.47-0.61,0.93-0.97,1.29c-5.43,5.42-10.84,10.85-16.33,16.21
			c-0.52,0.51-1.48,0.58-2.24,0.85c0.25-0.75,0.29-1.72,0.79-2.23c5.36-5.49,10.77-10.92,16.22-16.31c0.46-0.45,1.26-0.58,1.94-0.74
			C218.48,147.7,218.74,148.29,218.97,148.66z"/>
		<path class="st0" d="M89.98,49.22c-0.39,0.48-0.68,0.92-1.05,1.28c-5.4,5.44-10.79,10.88-16.24,16.26
			c-0.48,0.47-1.4,0.5-2.12,0.73c0.16-0.71,0.09-1.66,0.53-2.1c5.43-5.52,10.92-10.97,16.44-16.4c0.4-0.4,1.12-0.53,1.72-0.63
			C89.43,48.35,89.7,48.88,89.98,49.22z"/>
		<path class="st0" d="M320.18,319.31c0.36,0.33,0.72,0.66,1.08,1c-0.33,0.49-0.58,1.05-0.99,1.46c-5.2,5.23-10.4,10.46-15.68,15.61
			c-0.55,0.54-1.6,0.57-2.42,0.84c0.3-0.76,0.41-1.71,0.94-2.25c5.16-5.27,10.38-10.47,15.61-15.68
			C319.14,319.89,319.69,319.64,320.18,319.31z"/>
		<path class="st0" d="M155.27,52.43c-0.37,0.49-0.65,0.95-1.01,1.32c-5.04,5.06-10.08,10.12-15.18,15.12
			c-0.4,0.39-1.26,0.3-1.91,0.43c0.15-0.65,0.09-1.52,0.5-1.93c5-5.1,10.06-10.15,15.15-15.16c0.41-0.4,1.14-0.54,1.75-0.63
			C154.74,51.55,155,52.09,155.27,52.43z"/>
		<path class="st0" d="M531.2,430.33c-0.33-0.26-0.82-0.46-0.85-0.7c-0.05-0.46,0.03-1.06,0.31-1.39c0.89-1.03,1.9-1.96,2.86-2.92
			c4.07-4.08,8.11-8.17,12.24-12.2c0.41-0.4,1.27-0.34,1.93-0.49c-0.12,0.64-0.02,1.51-0.4,1.89c-4.88,4.98-9.82,9.9-14.76,14.82
			C532.17,429.7,531.7,429.96,531.2,430.33z"/>
		<path class="st0" d="M432.18,95.43c-0.44-0.43-0.89-0.85-1.33-1.28c5.21-5.27,10.41-10.56,15.68-15.78
			c0.41-0.41,1.28-0.37,1.93-0.53c-0.15,0.66-0.07,1.53-0.47,1.94C442.75,85.03,437.46,90.22,432.18,95.43z"/>
		<path class="st0" d="M559.12,471.12c-0.41-0.31-1.06-0.6-1.03-0.81c0.08-0.6,0.28-1.3,0.69-1.72c2.91-2.99,5.87-5.92,8.82-8.86
			c1.66-1.66,3.27-3.37,5.01-4.95c0.49-0.44,1.36-0.48,2.05-0.7c-0.15,0.71-0.06,1.66-0.49,2.1c-4.61,4.71-9.3,9.35-13.97,14
			C559.9,470.49,559.55,470.76,559.12,471.12z"/>
		<path class="st0" d="M470.65,559.17c-0.13-0.35-0.37-0.7-0.38-1.07c-0.01-0.41,0.05-0.94,0.3-1.21c1.18-1.29,2.43-2.52,3.66-3.76
			c3.61-3.6,7.2-7.23,10.87-10.76c0.45-0.43,1.37-0.39,2.06-0.56c-0.18,0.65-0.16,1.49-0.58,1.91c-4.74,4.83-9.54,9.61-14.34,14.39
			C471.95,558.4,471.53,558.58,470.65,559.17z"/>
		<path class="st0" d="M143.34,313.36c0.36,0.35,0.71,0.7,1.07,1.05c-1.03,1.18-2,2.42-3.1,3.53c-3.78,3.83-7.58,7.64-11.44,11.38
			c-0.46,0.45-1.36,0.45-2.06,0.66c0.19-0.7,0.17-1.61,0.61-2.07c4.55-4.66,9.16-9.26,13.78-13.86
			C142.52,313.75,142.96,313.59,143.34,313.36z"/>
		<path class="st0" d="M98.74,268.76c-2.69,2.85-5.36,5.72-8.08,8.53c-1.95,2.02-3.92,4.01-5.98,5.91
			c-0.42,0.39-1.29,0.29-1.95,0.41c0.09-0.59-0.03-1.38,0.31-1.73c4.63-4.7,9.31-9.33,14-13.97c0.14-0.14,0.41-0.16,0.62-0.24
			C98.02,268.04,98.38,268.4,98.74,268.76z"/>
		<path class="st0" d="M115.18,115.23c-0.36-0.36-0.71-0.71-1.07-1.07c2.27-2.42,4.5-4.87,6.81-7.25c2.32-2.4,4.67-4.76,7.09-7.05
			c0.38-0.36,1.17-0.3,1.76-0.43c-0.04,0.59,0.15,1.41-0.16,1.73c-4.63,4.69-9.32,9.31-14,13.93
			C115.51,115.19,115.32,115.19,115.18,115.23z"/>
		<path class="st0" d="M339.04,165.67c-0.39,0.49-0.67,0.93-1.04,1.3c-4.07,4.1-8.13,8.2-12.26,12.24
			c-0.42,0.41-1.27,0.36-1.92,0.53c0.12-0.65,0-1.53,0.38-1.92c4.08-4.19,8.23-8.32,12.41-12.41c0.4-0.39,1.13-0.51,1.72-0.58
			C338.52,164.79,338.77,165.33,339.04,165.67z"/>
		<path class="st0" d="M326.63,495.62c1.71-1.89,3.36-3.82,5.14-5.64c2.7-2.77,5.46-5.48,8.27-8.15c0.37-0.36,1.14-0.3,1.73-0.43
			c-0.05,0.59,0.14,1.4-0.18,1.72c-4.46,4.54-8.99,9.01-13.51,13.5c-0.09,0.09-0.29,0.07-0.44,0.1
			C327.3,496.35,326.96,495.99,326.63,495.62z"/>
		<path class="st0" d="M303.63,290c0.3,0.21,0.84,0.42,0.83,0.6c-0.03,0.6-0.07,1.38-0.44,1.76c-3.17,3.25-6.41,6.43-9.63,9.63
			c-0.97,0.96-1.88,1.99-2.93,2.84c-0.36,0.29-1.09,0.13-1.65,0.17c0.05-0.55-0.11-1.31,0.19-1.62c4.23-4.33,8.51-8.59,12.79-12.86
			C302.98,290.31,303.28,290.21,303.63,290z"/>
		<path class="st0" d="M222.91,258.97c-0.39,0.49-0.68,0.94-1.05,1.3c-3.8,3.81-7.58,7.64-11.45,11.38
			c-0.48,0.46-1.46,0.41-2.2,0.59c0.24-0.69,0.29-1.57,0.75-2.04c3.81-3.91,7.68-7.75,11.59-11.56c0.39-0.38,1.13-0.47,1.73-0.54
			C222.44,258.08,222.67,258.63,222.91,258.97z"/>
		<path class="st0" d="M409.83,551.67c-0.36,0.49-0.62,0.96-0.98,1.33c-3.8,3.82-7.6,7.65-11.48,11.4
			c-0.38,0.37-1.24,0.23-1.88,0.32c0.12-0.59,0.05-1.37,0.4-1.74c3.76-3.86,7.57-7.68,11.42-11.45c0.42-0.41,1.14-0.57,1.75-0.68
			C409.25,550.81,409.54,551.34,409.83,551.67z"/>
		<path class="st0" d="M391.03,387.8c-0.33-0.24-0.84-0.46-0.84-0.67c0-0.54,0.06-1.24,0.39-1.59c1.65-1.77,3.4-3.45,5.12-5.17
			c1.82-1.82,3.61-3.68,5.5-5.43c0.37-0.34,1.13-0.26,1.7-0.37c-0.04,0.58,0.17,1.39-0.14,1.71c-3.53,3.65-7.14,7.23-10.74,10.81
			C391.75,387.35,391.41,387.52,391.03,387.8z"/>
		<path class="st0" d="M378.92,488.94c0.31,0.2,0.86,0.4,0.86,0.58c-0.01,0.53-0.08,1.21-0.42,1.56c-1.93,2.03-3.95,3.99-5.93,5.98
			c-1.56,1.55-3.07,3.16-4.71,4.63c-0.37,0.33-1.15,0.21-1.75,0.3c0.05-0.54-0.12-1.29,0.17-1.59c3.6-3.69,7.26-7.32,10.92-10.96
			C378.27,489.23,378.58,489.14,378.92,488.94z"/>
		<path class="st0" d="M283.89,220.44c0-1.07-0.28-1.99,0.04-2.33c3.26-3.39,6.59-6.71,9.97-9.98c0.3-0.29,1.05-0.13,1.59-0.17
			c-0.02,0.54,0.18,1.3-0.1,1.58c-3.28,3.37-6.63,6.67-9.97,9.98C285.17,219.77,284.8,219.9,283.89,220.44z"/>
		<path class="st0" d="M422.34,150.49c0-1.06-0.27-1.96,0.04-2.29c3.1-3.22,6.27-6.37,9.49-9.47c0.31-0.3,1.05-0.16,1.59-0.23
			c-0.07,0.59,0.09,1.39-0.24,1.73c-3.05,3.16-6.17,6.25-9.29,9.35C423.67,149.82,423.29,149.94,422.34,150.49z"/>
		<path class="st0" d="M468.55,195.89c-0.26-0.2-0.72-0.37-0.79-0.64c-0.11-0.37-0.08-0.97,0.16-1.21c3.12-3.2,6.28-6.36,9.48-9.48
			c0.24-0.24,1.07-0.22,1.33,0.01c0.26,0.24,0.37,1.1,0.16,1.32c-3.17,3.25-6.4,6.45-9.63,9.65
			C469.1,195.69,468.85,195.74,468.55,195.89z"/>
		<path class="st0" d="M300.06,135.93c-0.37-0.36-0.75-0.72-1.12-1.09c3.24-3.37,6.46-6.75,9.76-10.06c0.28-0.28,1.09-0.2,1.56-0.03
			c0.17,0.06,0.28,1.11,0.05,1.33C306.93,129.4,303.49,132.66,300.06,135.93z"/>
		<path class="st0" d="M513.88,513.93c0.36,0.36,0.72,0.71,1.08,1.07c-3.18,3.31-6.33,6.63-9.56,9.88
			c-0.25,0.26-1.04-0.01-1.57-0.03c0.04-0.47-0.11-1.14,0.15-1.39C507.24,520.25,510.56,517.1,513.88,513.93z"/>
		<path class="st0" d="M461.27,546c-0.37,0.48-0.65,0.92-1.02,1.29c-2.45,2.47-4.89,4.97-7.42,7.36c-0.48,0.46-1.38,0.47-2.09,0.69
			c0.18-0.71,0.14-1.62,0.58-2.09c2.44-2.59,4.97-5.1,7.54-7.57c0.41-0.4,1.17-0.49,1.78-0.58
			C460.8,545.09,461.03,545.65,461.27,546z"/>
		<path class="st0" d="M417.46,155.69c-0.31,0.46-0.51,0.87-0.81,1.18c-2.41,2.43-4.81,4.88-7.29,7.23
			c-0.38,0.36-1.15,0.31-1.73,0.45c0.08-0.64-0.07-1.51,0.28-1.89c2.34-2.49,4.77-4.91,7.23-7.28c0.37-0.35,1.04-0.47,1.59-0.51
			C416.94,154.86,417.19,155.37,417.46,155.69z"/>
		<path class="st0" d="M252.71,251.87c-0.34-0.38-0.68-0.76-1.02-1.13c2.76-2.88,5.5-5.77,8.3-8.6c0.22-0.23,1.09-0.17,1.33,0.07
			c0.23,0.24,0.24,1.09,0,1.33C258.49,246.35,255.59,249.1,252.71,251.87z"/>
		<path class="st0" d="M176.45,305.19c-0.25-0.2-0.7-0.38-0.78-0.65c-0.1-0.37-0.06-0.97,0.18-1.22c2.37-2.45,4.77-4.88,7.23-7.24
			c0.26-0.25,1.07-0.27,1.37-0.05c0.28,0.21,0.45,1.11,0.26,1.31c-2.47,2.57-5,5.07-7.53,7.58
			C177.03,305.05,176.76,305.07,176.45,305.19z"/>
		<path class="st0" d="M107.11,395.51c0.16,0.67,0.61,1.53,0.39,1.77c-2.43,2.61-4.95,5.15-7.52,7.63c-0.21,0.21-1,0.05-1.34-0.19
			c-0.22-0.15-0.31-0.96-0.13-1.15c2.48-2.57,5.01-5.08,7.55-7.6C106.22,395.83,106.47,395.79,107.11,395.51z"/>
		<path class="st0" d="M69.08,321.36c-0.3,0.43-0.51,0.83-0.82,1.14c-2.13,2.16-4.24,4.33-6.45,6.4c-0.42,0.4-1.25,0.37-1.89,0.54
			c0.1-0.64-0.02-1.5,0.34-1.89c2.12-2.27,4.32-4.46,6.57-6.61c0.36-0.34,1.04-0.44,1.58-0.46
			C68.61,320.47,68.83,321.01,69.08,321.36z"/>
		<path class="st0" d="M98.74,268.76c-0.36-0.36-0.72-0.72-1.07-1.08c2.66-2.78,5.29-5.58,8.01-8.3c0.27-0.27,1.04-0.04,1.58-0.05
			c-0.06,0.48,0.06,1.15-0.21,1.42C104.31,263.46,101.51,266.1,98.74,268.76z"/>
		<path class="st0" d="M42.44,142.47c-0.32-0.2-0.83-0.34-0.89-0.59c-0.1-0.44-0.1-1.12,0.16-1.4c2.31-2.4,4.66-4.76,7.08-7.06
			c0.31-0.3,1.05-0.14,1.59-0.2c-0.02,0.54,0.2,1.3-0.08,1.59c-2.29,2.42-4.67,4.75-7.04,7.1
			C43.06,142.12,42.77,142.25,42.44,142.47z"/>
		<path class="st0" d="M326.63,495.62c0.34,0.37,0.67,0.73,1.01,1.1c-2.54,2.67-5.06,5.37-7.64,7.99c-0.25,0.25-0.94,0.08-1.42,0.11
			c0-0.54-0.23-1.31,0.05-1.58C321.24,500.65,323.94,498.15,326.63,495.62z"/>
		<path class="st0" d="M77.56,83.93c0-0.93-0.27-1.8,0.04-2.13c2.17-2.31,4.45-4.53,6.75-6.71c0.26-0.25,0.93-0.08,1.4-0.11
			c-0.02,0.53,0.19,1.28-0.09,1.57c-2.17,2.31-4.42,4.54-6.67,6.78C78.8,83.51,78.46,83.56,77.56,83.93z"/>
		<path class="st0" d="M280.98,109.52c-0.37,0.48-0.65,0.92-1,1.28c-1.85,1.88-3.68,3.79-5.61,5.59c-0.44,0.41-1.27,0.42-1.91,0.61
			c0.13-0.71,0.02-1.63,0.43-2.08c1.83-2.01,3.78-3.91,5.75-5.77c0.36-0.34,1.04-0.43,1.58-0.45
			C280.43,108.69,280.67,109.18,280.98,109.52z"/>
		<path class="st0" d="M124.68,469.15c0.25,0.18,0.67,0.33,0.79,0.61c0.12,0.28,0.05,0.81-0.16,1.02c-2.49,2.53-5.01,5.04-7.57,7.5
			c-0.2,0.19-0.94,0.14-1.14-0.07c-0.22-0.24-0.3-0.97-0.11-1.17c2.44-2.57,4.94-5.1,7.45-7.62
			C124.08,469.28,124.36,469.27,124.68,469.15z"/>
		<path class="st0" d="M258,427.1c2.22-2.35,4.42-4.73,6.71-7.01c0.27-0.27,1.04-0.04,1.58-0.04c-0.07,0.54,0.06,1.27-0.25,1.58
			c-2.23,2.23-4.56,4.37-6.85,6.53C258.79,427.81,258.39,427.45,258,427.1z"/>
		<path class="st0" d="M304.78,473.88c-0.34-0.38-0.69-0.76-1.03-1.14c2.22-2.35,4.42-4.72,6.69-7.01c0.25-0.25,0.94-0.08,1.42-0.11
			c0,0.55,0.23,1.33-0.04,1.6C309.53,469.5,307.14,471.67,304.78,473.88z"/>
		<path class="st0" d="M107.13,351.78c-0.27-0.17-0.72-0.31-0.82-0.58c-0.14-0.36-0.17-0.99,0.05-1.22
			c1.99-2.09,4.01-4.14,6.11-6.12c0.29-0.27,1.06-0.02,1.61-0.01c-0.04,0.49,0.12,1.17-0.14,1.44c-1.98,2.09-4.05,4.1-6.1,6.13
			C107.69,351.57,107.44,351.62,107.13,351.78z"/>
		<path class="st0" d="M524.43,480.61c0.22,0.16,0.69,0.32,0.76,0.59c0.1,0.38,0.07,0.98-0.17,1.24c-1.83,1.93-3.7,3.82-5.63,5.65
			c-0.26,0.25-1.02,0.2-1.4,0.01c-0.23-0.12-0.39-0.99-0.22-1.18c1.99-2.08,4.05-4.1,6.1-6.12
			C523.97,480.7,524.15,480.7,524.43,480.61z"/>
		<path class="st0" d="M80.41,307.15c0.66,0.45,1.13,0.59,1.2,0.85c0.1,0.38,0.09,0.99-0.15,1.24c-1.23,1.34-2.52,2.62-3.85,3.85
			c-0.26,0.24-0.86,0.27-1.24,0.16c-0.24-0.07-0.56-0.77-0.47-0.87C77.35,310.63,78.87,308.92,80.41,307.15z"/>
		<path class="st0" d="M126.39,81.81c-1.79,1.56-3.51,3.07-5.28,4.53c-0.1,0.08-0.79-0.27-0.85-0.5c-0.09-0.38-0.03-0.97,0.21-1.24
			c1.22-1.34,2.5-2.63,3.84-3.86c0.24-0.22,0.85-0.21,1.22-0.09C125.8,80.75,125.95,81.2,126.39,81.81z"/>
		<path class="st0" d="M174.42,510.73c0.36,0.36,0.72,0.72,1.08,1.08c-1.36,1.48-2.7,3-4.12,4.42c-0.25,0.25-0.9,0.09-1.37,0.13
			c-0.02-0.52-0.26-1.27-0.01-1.52C171.41,513.4,172.94,512.09,174.42,510.73z"/>
		<path class="st0" d="M258,427.1c0.4,0.35,0.79,0.7,1.19,1.06c-1.22,1.34-2.38,2.73-3.68,3.99c-0.31,0.3-1.06,0.16-1.6,0.22
			c0.03-0.55-0.16-1.3,0.13-1.6C255.28,429.47,256.66,428.31,258,427.1z"/>
		<path class="st0" d="M530.97,545.21c-0.52-0.75-1.08-1.35-1-1.45c0.75-0.97,1.62-1.85,2.45-2.76c0.39,0.35,1.14,0.97,1.1,1.02
			C532.81,543.02,532,543.96,530.97,545.21z"/>
		<path class="st0" d="M551.69,387.25c-1.13,0.92-2.08,1.7-3.08,2.43c-0.03,0.02-0.75-0.77-0.72-0.81c0.81-0.92,1.67-1.8,2.58-2.63
			C550.51,386.2,551.07,386.73,551.69,387.25z"/>
	</g>
</g>
</svg>
